<?xml version="1.0" encoding="UTF-8" standalone="no"?>
<!-- Created with Inkscape (http://www.inkscape.org/) -->

<svg
   xmlns:dc="http://purl.org/dc/elements/1.1/"
   xmlns:cc="http://creativecommons.org/ns#"
   xmlns:rdf="http://www.w3.org/1999/02/22-rdf-syntax-ns#"
   xmlns:svg="http://www.w3.org/2000/svg"
   xmlns="http://www.w3.org/2000/svg"
   xmlns:xlink="http://www.w3.org/1999/xlink"
   xmlns:sodipodi="http://sodipodi.sourceforge.net/DTD/sodipodi-0.dtd"
   xmlns:inkscape="http://www.inkscape.org/namespaces/inkscape"
   id="svg2"
   version="1.1"
   inkscape:version="0.48.5 r10040"
   width="315.0032"
   height="50.956402"
   xml:space="preserve"
   sodipodi:docname="02_design.pdf"><metadata
     id="metadata8"><rdf:RDF><cc:Work
         rdf:about=""><dc:format>image/svg+xml</dc:format><dc:type
           rdf:resource="http://purl.org/dc/dcmitype/StillImage" /><dc:title></dc:title></cc:Work></rdf:RDF></metadata><defs
     id="defs6"><clipPath
       clipPathUnits="userSpaceOnUse"
       id="clipPath128"><path
         d="m 0,0 362.835,0 0,3.985 L 0,3.985 0,0 z"
         id="path130"
         inkscape:connector-curvature="0" /></clipPath><linearGradient
       x1="0"
       y1="0"
       x2="0"
       y2="3.9851"
       gradientUnits="userSpaceOnUse"
       id="linearGradient132"><stop
         style="stop-opacity:1;stop-color:#ffffff"
         offset="0"
         id="stop134" /><stop
         style="stop-opacity:1;stop-color:#808080"
         offset="1"
         id="stop136" /></linearGradient><clipPath
       clipPathUnits="userSpaceOnUse"
       id="clipPath146"><path
         d="m 0,0 362.8394,0 0,19.67815 L 0,19.67815 0,0 z"
         id="path148"
         inkscape:connector-curvature="0" /></clipPath><clipPath
       clipPathUnits="userSpaceOnUse"
       id="clipPath160"><path
         d="m 0,0 362.835,0 0,272.126 L 0,272.126 0,0 z"
         id="path162"
         inkscape:connector-curvature="0" /></clipPath><linearGradient
       x1="0"
       y1="0"
       x2="362.83939"
       y2="0"
       gradientUnits="userSpaceOnUse"
       id="linearGradient164"><stop
         style="stop-opacity:1;stop-color:#3333b3"
         offset="0"
         id="stop166" /><stop
         style="stop-opacity:1;stop-color:#000000"
         offset="1"
         id="stop168" /></linearGradient><clipPath
       clipPathUnits="userSpaceOnUse"
       id="clipPath184"><path
         d="m 0,0 362.835,0 0,3.985 L 0,3.985 0,0 z"
         id="path186"
         inkscape:connector-curvature="0" /></clipPath><linearGradient
       x1="0"
       y1="0"
       x2="0"
       y2="3.9851"
       gradientUnits="userSpaceOnUse"
       id="linearGradient188"><stop
         style="stop-opacity:1;stop-color:#ffffff"
         offset="0"
         id="stop190" /><stop
         style="stop-opacity:1;stop-color:#808080"
         offset="1"
         id="stop192" /></linearGradient><clipPath
       clipPathUnits="userSpaceOnUse"
       id="clipPath202"><path
         d="m 0,0 6.048,0 0,6.048 L 0,6.048 0,0 z"
         id="path204"
         inkscape:connector-curvature="0" /></clipPath><radialGradient
       fx="1.9761"
       fy="4.3296199"
       cx="3.0352001"
       cy="3.0352001"
       r="3.0239"
       gradientUnits="userSpaceOnUse"
       id="radialGradient206"><stop
         style="stop-opacity:1;stop-color:#e0e0f4"
         offset="0"
         id="stop208" /><stop
         style="stop-opacity:1;stop-color:#6666c6"
         offset="0.93788"
         id="stop210" /><stop
         style="stop-opacity:1;stop-color:#24247d"
         offset="1.87576"
         id="stop212" /><stop
         style="stop-opacity:1;stop-color:#191959"
         offset="2.5792"
         id="stop214" /><stop
         style="stop-opacity:1;stop-color:#ffffff"
         offset="3.0239"
         id="stop216" /></radialGradient><clipPath
       clipPathUnits="userSpaceOnUse"
       id="clipPath292"><path
         d="M 0,0 544,0 544,88 0,88 0,0 z"
         id="path294"
         inkscape:connector-curvature="0" /></clipPath><clipPath
       clipPathUnits="userSpaceOnUse"
       id="clipPath576"><path
         d="m 0,0 6.048,0 0,6.048 L 0,6.048 0,0 z"
         id="path578"
         inkscape:connector-curvature="0" /></clipPath><radialGradient
       fx="1.9761"
       fy="4.3296199"
       cx="3.0352001"
       cy="3.0352001"
       r="3.0239"
       gradientUnits="userSpaceOnUse"
       id="radialGradient580"><stop
         style="stop-opacity:1;stop-color:#e0e0f4"
         offset="0"
         id="stop582" /><stop
         style="stop-opacity:1;stop-color:#6666c6"
         offset="0.93788"
         id="stop584" /><stop
         style="stop-opacity:1;stop-color:#24247d"
         offset="1.87576"
         id="stop586" /><stop
         style="stop-opacity:1;stop-color:#191959"
         offset="2.5792"
         id="stop588" /><stop
         style="stop-opacity:1;stop-color:#ffffff"
         offset="3.0239"
         id="stop590" /></radialGradient><linearGradient
       inkscape:collect="always"
       xlink:href="#linearGradient164"
       id="linearGradient5401"
       gradientUnits="userSpaceOnUse"
       x1="0"
       y1="0"
       x2="362.83939"
       y2="0" /><linearGradient
       inkscape:collect="always"
       xlink:href="#linearGradient188"
       id="linearGradient5623"
       gradientUnits="userSpaceOnUse"
       x1="0"
       y1="0"
       x2="0"
       y2="3.9851" /><radialGradient
       inkscape:collect="always"
       xlink:href="#radialGradient206"
       id="radialGradient5625"
       gradientUnits="userSpaceOnUse"
       cx="3.0352001"
       cy="3.0352001"
       fx="1.9761"
       fy="4.3296199"
       r="3.0239" /><radialGradient
       inkscape:collect="always"
       xlink:href="#radialGradient580"
       id="radialGradient5627"
       gradientUnits="userSpaceOnUse"
       cx="3.0352001"
       cy="3.0352001"
       fx="1.9761"
       fy="4.3296199"
       r="3.0239" /></defs><sodipodi:namedview
     pagecolor="#ffffff"
     bordercolor="#666666"
     borderopacity="1"
     objecttolerance="10"
     gridtolerance="10"
     guidetolerance="10"
     inkscape:pageopacity="0"
     inkscape:pageshadow="2"
     inkscape:window-width="2560"
     inkscape:window-height="1377"
     id="namedview4"
     showgrid="false"
     fit-margin-top="0"
     fit-margin-left="0"
     fit-margin-right="0"
     fit-margin-bottom="0"
     inkscape:zoom="2.775185"
     inkscape:cx="139.18126"
     inkscape:cy="5.3094994"
     inkscape:window-x="-8"
     inkscape:window-y="-8"
     inkscape:window-maximized="1"
     inkscape:current-layer="g10" /><g
     id="g10"
     inkscape:groupmode="layer"
     inkscape:label="02_design"
     transform="matrix(1.25,0,0,-1.25,-87.590622,215.72565)"><g
       id="g282"
       transform="matrix(0.46324,0,0,0.46324,70.072498,131.8154)"><g
         id="g284"><g
           id="g286"><g
             id="g288"><g
               id="g290"
               clip-path="url(#clipPath292)"><g
                 id="g296" /><g
                 id="g298"><path
                   d="M 0,88 544,88 544,0 0,0 0,88 z"
                   style="fill:#ffffff;fill-opacity:1;fill-rule:nonzero;stroke:none"
                   id="path300"
                   inkscape:connector-curvature="0" /><path
                   d="m 23.166702,74.333298 110.499998,0 0,-61.333298 -110.499998,0 0,61.333298 z"
                   style="fill:#ffffff;fill-opacity:0;fill-rule:nonzero;stroke:none"
                   id="path302"
                   inkscape:connector-curvature="0" /><g
                   id="g304"
                   transform="matrix(1,0,0,-1,10.5,83.5)"><path
                     d="m 12.666702,9.1667023 110.499998,0 0,61.3332977 -110.499998,0 0,-61.3332977 z"
                     style="fill:none;stroke:#000000;stroke-width:1;stroke-linecap:round;stroke-linejoin:round;stroke-miterlimit:10;stroke-opacity:1;stroke-dasharray:none"
                     id="path306"
                     inkscape:connector-curvature="0" /></g><path
                   d="m 412.66699,74.333298 109.16699,0 0,-61.333298 -109.16699,0 0,61.333298 z"
                   style="fill:#ffffff;fill-opacity:0;fill-rule:nonzero;stroke:none"
                   id="path308"
                   inkscape:connector-curvature="0" /><g
                   id="g310"
                   transform="matrix(1,0,0,-1,10.5,83.5)"><path
                     d="m 402.16699,9.1667023 109.16699,0 0,61.3332977 -109.16699,0 0,-61.3332977 z"
                     style="fill:none;stroke:#000000;stroke-width:1;stroke-linecap:round;stroke-linejoin:round;stroke-miterlimit:10;stroke-opacity:1;stroke-dasharray:none"
                     id="path312"
                     inkscape:connector-curvature="0" /></g><path
                   d="m 169.33401,74.333298 207.66699,0 0,-61.333298 -207.66699,0 0,61.333298 z"
                   style="fill:#ffffff;fill-opacity:0;fill-rule:nonzero;stroke:none"
                   id="path314"
                   inkscape:connector-curvature="0" /><g
                   id="g316"
                   transform="matrix(1,0,0,-1,10.5,83.5)"><path
                     d="m 158.83401,9.1667023 207.667,0 0,61.3332977 -207.667,0 0,-61.3332977 z"
                     style="fill:none;stroke:#000000;stroke-width:1;stroke-linecap:round;stroke-linejoin:round;stroke-miterlimit:10;stroke-opacity:1;stroke-dasharray:none"
                     id="path318"
                     inkscape:connector-curvature="0" /></g><path
                   d="m 424.83401,61.666702 37.6665,0 0,-36 -37.6665,0 0,36 z"
                   style="fill:#ebebeb;fill-opacity:1;fill-rule:nonzero;stroke:none"
                   id="path320"
                   inkscape:connector-curvature="0" /><g
                   id="g322"
                   transform="matrix(1,0,0,-1,10.5,83.5)"><path
                     d="m 414.33401,21.833298 37.66651,0 0,36 -37.66651,0 0,-36 z"
                     style="fill:none;stroke:#000000;stroke-width:1;stroke-linecap:round;stroke-linejoin:round;stroke-miterlimit:1;stroke-opacity:1;stroke-dasharray:none"
                     id="path324"
                     inkscape:connector-curvature="0" /></g><g
                   id="g326"
                   transform="matrix(1,0,0,-1,443.66727,43.666702)"><text
                     transform="translate(-14.25791,6.5)"
                     id="text328"><tspan
                       style="font-size:24px;font-style:italic;font-variant:normal;font-weight:bold;writing-mode:lr-tb;fill:#000000;fill-opacity:1;fill-rule:nonzero;stroke:none;font-family:Times New Roman;-inkscape-font-specification:TimesNewRomanPS-BoldItalicMT"
                       x="0"
                       y="0"
                       id="tspan330">u</tspan></text>
</g><g
                   id="g332"
                   transform="matrix(1,0,0,-1,443.66727,43.666702)"><text
                     transform="translate(-1.2102547,11.5)"
                     id="text334"><tspan
                       style="font-size:12px;font-style:italic;font-variant:normal;font-weight:bold;writing-mode:lr-tb;fill:#000000;fill-opacity:1;fill-rule:nonzero;stroke:none;font-family:Times New Roman;-inkscape-font-specification:TimesNewRomanPS-BoldItalicMT"
                       x="0"
                       y="0"
                       id="tspan336">r</tspan></text>
</g><g
                   id="g338"
                   transform="matrix(1,0,0,-1,443.66727,43.666702)"><text
                     transform="translate(3.159668,12.5)"
                     id="text340"><tspan
                       style="font-size:10px;font-variant:normal;font-weight:bold;writing-mode:lr-tb;fill:#000000;fill-opacity:1;fill-rule:nonzero;stroke:none;font-family:Times New Roman;-inkscape-font-specification:TimesNewRomanPS-BoldMT"
                       x="0"
                       y="0"
                       id="tspan342">+</tspan></text>
</g><g
                   id="g344"
                   transform="matrix(1,0,0,-1,443.66727,43.666702)"><text
                     transform="translate(8.5579109,12.5)"
                     id="text346"><tspan
                       style="font-size:10px;font-variant:normal;font-weight:bold;writing-mode:lr-tb;fill:#000000;fill-opacity:1;fill-rule:nonzero;stroke:none;font-family:Times New Roman;-inkscape-font-specification:TimesNewRomanPS-BoldMT"
                       x="0"
                       y="0"
                       id="tspan348">1</tspan></text>
</g><path
                   d="m 83.500542,61.666702 37.999158,0 0,-36 -37.999158,0 0,36 z"
                   style="fill:#ebebeb;fill-opacity:1;fill-rule:nonzero;stroke:none"
                   id="path350"
                   inkscape:connector-curvature="0" /><g
                   id="g352"
                   transform="matrix(1,0,0,-1,10.5,83.5)"><path
                     d="m 73.000542,21.833298 37.999158,0 0,36 -37.999158,0 0,-36 z"
                     style="fill:none;stroke:#000000;stroke-width:1;stroke-linecap:round;stroke-linejoin:round;stroke-miterlimit:1;stroke-opacity:1;stroke-dasharray:none"
                     id="path354"
                     inkscape:connector-curvature="0" /></g><g
                   id="g356"
                   transform="matrix(1,0,0,-1,102.50012,43.666702)"><text
                     transform="translate(-14.051025,6.5)"
                     id="text358"><tspan
                       style="font-size:24px;font-style:italic;font-variant:normal;font-weight:bold;writing-mode:lr-tb;fill:#000000;fill-opacity:1;fill-rule:nonzero;stroke:none;font-family:Times New Roman;-inkscape-font-specification:TimesNewRomanPS-BoldItalicMT"
                       x="0"
                       y="0"
                       id="tspan360">u</tspan></text>
</g><g
                   id="g362"
                   transform="matrix(1,0,0,-1,102.50012,43.666702)"><text
                     transform="translate(-0.70336914,10.5)"
                     id="text364"><tspan
                       style="font-size:11px;font-style:italic;font-variant:normal;font-weight:bold;writing-mode:lr-tb;fill:#000000;fill-opacity:1;fill-rule:nonzero;stroke:none;font-family:Times New Roman;-inkscape-font-specification:TimesNewRomanPS-BoldItalicMT"
                       x="0"
                       y="0"
                       id="tspan366">l</tspan></text>
</g><g
                   id="g368"
                   transform="matrix(1,0,0,-1,102.50012,43.666702)"><text
                     transform="translate(2.3527832,10.5)"
                     id="text370"><tspan
                       style="font-size:10px;font-variant:normal;font-weight:bold;writing-mode:lr-tb;fill:#000000;fill-opacity:1;fill-rule:nonzero;stroke:none;font-family:Times New Roman;-inkscape-font-specification:TimesNewRomanPS-BoldMT"
                       x="0"
                       y="0"
                       id="tspan372">−</tspan></text>
<text
                     transform="translate(8.0527832,10.5)"
                     id="text374"><tspan
                       style="font-size:10px;font-variant:normal;font-weight:bold;writing-mode:lr-tb;fill:#000000;fill-opacity:1;fill-rule:nonzero;stroke:none;font-family:Times New Roman;-inkscape-font-specification:TimesNewRomanPS-BoldMT"
                       x="0"
                       y="0"
                       id="tspan376">1</tspan></text>
</g><path
                   d="m 183.16701,61.666702 36,0 0,-36 -36,0 0,36 z"
                   style="fill:#ebebeb;fill-opacity:1;fill-rule:nonzero;stroke:none"
                   id="path378"
                   inkscape:connector-curvature="0" /><g
                   id="g380"
                   transform="matrix(1,0,0,-1,10.5,83.5)"><path
                     d="m 172.66701,21.833298 36,0 0,36 -36,0 0,-36 z"
                     style="fill:none;stroke:#000000;stroke-width:1;stroke-linecap:round;stroke-linejoin:round;stroke-miterlimit:1;stroke-opacity:1;stroke-dasharray:none"
                     id="path382"
                     inkscape:connector-curvature="0" /></g><g
                   id="g384"
                   transform="matrix(1,0,0,-1,201.16701,43.666702)"><text
                     transform="translate(-8.7019043,6.5)"
                     id="text386"><tspan
                       style="font-size:24px;font-style:italic;font-variant:normal;font-weight:bold;writing-mode:lr-tb;fill:#000000;fill-opacity:1;fill-rule:nonzero;stroke:none;font-family:Times New Roman;-inkscape-font-specification:TimesNewRomanPS-BoldItalicMT"
                       x="0"
                       y="0"
                       id="tspan388">u</tspan></text>
</g><g
                   id="g390"
                   transform="matrix(1,0,0,-1,201.16701,43.666702)"><text
                     transform="translate(4.645752,10.5)"
                     id="text392"><tspan
                       style="font-size:11px;font-style:italic;font-variant:normal;font-weight:bold;writing-mode:lr-tb;fill:#000000;fill-opacity:1;fill-rule:nonzero;stroke:none;font-family:Times New Roman;-inkscape-font-specification:TimesNewRomanPS-BoldItalicMT"
                       x="0"
                       y="0"
                       id="tspan394">l</tspan></text>
</g><path
                   d="m 327.16699,61.666702 36,0 0,-36 -36,0 0,36 z"
                   style="fill:#ebebeb;fill-opacity:1;fill-rule:nonzero;stroke:none"
                   id="path396"
                   inkscape:connector-curvature="0" /><g
                   id="g398"
                   transform="matrix(1,0,0,-1,10.5,83.5)"><path
                     d="m 316.66699,21.833298 36,0 0,36 -36,0 0,-36 z"
                     style="fill:none;stroke:#000000;stroke-width:1;stroke-linecap:round;stroke-linejoin:round;stroke-miterlimit:1;stroke-opacity:1;stroke-dasharray:none"
                     id="path400"
                     inkscape:connector-curvature="0" /></g><g
                   id="g402"
                   transform="matrix(1,0,0,-1,345.16699,43.666702)"><text
                     transform="translate(-9.5087891,6.5)"
                     id="text404"><tspan
                       style="font-size:24px;font-style:italic;font-variant:normal;font-weight:bold;writing-mode:lr-tb;fill:#000000;fill-opacity:1;fill-rule:nonzero;stroke:none;font-family:Times New Roman;-inkscape-font-specification:TimesNewRomanPS-BoldItalicMT"
                       x="0"
                       y="0"
                       id="tspan406">u</tspan></text>
</g><g
                   id="g408"
                   transform="matrix(1,0,0,-1,345.16699,43.666702)"><text
                     transform="translate(3.8388672,11.5)"
                     id="text410"><tspan
                       style="font-size:12px;font-style:italic;font-variant:normal;font-weight:bold;writing-mode:lr-tb;fill:#000000;fill-opacity:1;fill-rule:nonzero;stroke:none;font-family:Times New Roman;-inkscape-font-specification:TimesNewRomanPS-BoldItalicMT"
                       x="0"
                       y="0"
                       id="tspan412">r</tspan></text>
</g><path
                   d="m 255.16699,61.666702 36,0 0,-36 -36,0 0,36 z"
                   style="fill:#ffffff;fill-opacity:1;fill-rule:nonzero;stroke:none"
                   id="path414"
                   inkscape:connector-curvature="0" /><g
                   id="g416"
                   transform="matrix(1,0,0,-1,10.5,83.5)"><path
                     d="m 244.66699,21.833298 36,0 0,36 -36,0 0,-36 z"
                     style="fill:none;stroke:#ffffff;stroke-width:1;stroke-linecap:round;stroke-linejoin:round;stroke-miterlimit:10;stroke-opacity:1;stroke-dasharray:none"
                     id="path418"
                     inkscape:connector-curvature="0" /></g><g
                   id="g420"
                   transform="matrix(1,0,0,-1,273.16699,43.666702)"><text
                     transform="translate(-8.7792969,4)"
                     id="text422"><tspan
                       style="font-size:12px;font-variant:normal;font-weight:normal;writing-mode:lr-tb;fill:#000000;fill-opacity:1;fill-rule:nonzero;stroke:none;font-family:Symbol;-inkscape-font-specification:Symbol"
                       x="0 5.52 11.04"
                       y="0"
                       sodipodi:role="line"
                       id="tspan424">•••</tspan></text>
</g><g
                   id="g426"
                   transform="matrix(1,0,0,-1,10.5,83.5)"><path
                     d="m 208.62103,30.710648 26.14601,0.09452"
                     style="fill:none;stroke:#000000;stroke-width:1;stroke-linecap:round;stroke-linejoin:round;stroke-miterlimit:10;stroke-opacity:1;stroke-dasharray:none"
                     id="path428"
                     inkscape:connector-curvature="0" /></g><path
                   d="m 253.26698,52.665916 -7.9891,3.028901 -0.0217,-5.999962 8.01078,2.971061 z"
                   style="fill:#000000;fill-opacity:1;fill-rule:nonzero;stroke:none"
                   id="path430"
                   inkscape:connector-curvature="0" /><g
                   id="g432"
                   transform="matrix(1,0,0,-1,10.5,83.5)"><path
                     d="m 242.76698,30.834084 -7.9891,-3.028901 -0.0217,5.999962 8.01078,-2.971061 z"
                     style="fill:none;stroke:#000000;stroke-width:1;stroke-linecap:butt;stroke-linejoin:miter;stroke-miterlimit:10;stroke-opacity:1;stroke-dasharray:none"
                     id="path434"
                     inkscape:connector-curvature="0" /></g><g
                   id="g436"
                   transform="matrix(1,0,0,-1,10.5,83.5)"><path
                     d="m 218.56699,48.781216 26.10002,0.04449"
                     style="fill:none;stroke:#000000;stroke-width:1;stroke-linecap:round;stroke-linejoin:round;stroke-miterlimit:10;stroke-opacity:1;stroke-dasharray:none"
                     id="path438"
                     inkscape:connector-curvature="0" /></g><path
                   d="m 221.067,34.732418 7.99487,-3.01363 0.0102,5.999989 -8.0051,-2.986359 z"
                   style="fill:#000000;fill-opacity:1;fill-rule:nonzero;stroke:none"
                   id="path440"
                   inkscape:connector-curvature="0" /><g
                   id="g442"
                   transform="matrix(1,0,0,-1,10.5,83.5)"><path
                     d="m 210.567,48.767582 7.99487,3.01363 0.0102,-5.999989 -8.0051,2.986359 z"
                     style="fill:none;stroke:#000000;stroke-width:1;stroke-linecap:butt;stroke-linejoin:miter;stroke-miterlimit:10;stroke-opacity:1;stroke-dasharray:none"
                     id="path444"
                     inkscape:connector-curvature="0" /></g><g
                   id="g446"
                   transform="matrix(1,0,0,-1,10.5,83.5)"><path
                     d="m 280.66699,30.840866 26.14603,-0.0055"
                     style="fill:none;stroke:#000000;stroke-width:1;stroke-linecap:round;stroke-linejoin:round;stroke-miterlimit:10;stroke-opacity:1;stroke-dasharray:none"
                     id="path448"
                     inkscape:connector-curvature="0" /></g><path
                   d="m 325.31302,52.666306 -8.00064,2.998317 10e-4,-6 7.99936,3.001683 z"
                   style="fill:#000000;fill-opacity:1;fill-rule:nonzero;stroke:none"
                   id="path450"
                   inkscape:connector-curvature="0" /><g
                   id="g452"
                   transform="matrix(1,0,0,-1,10.5,83.5)"><path
                     d="m 314.81302,30.833694 -8.00064,-2.998317 10e-4,6 7.99936,-3.001683 z"
                     style="fill:none;stroke:#000000;stroke-width:1;stroke-linecap:butt;stroke-linejoin:miter;stroke-miterlimit:10;stroke-opacity:1;stroke-dasharray:none"
                     id="path454"
                     inkscape:connector-curvature="0" /></g><g
                   id="g456"
                   transform="matrix(1,0,0,-1,10.5,83.5)"><path
                     d="m 290.56699,48.723263 26.14602,0.04869"
                     style="fill:none;stroke:#000000;stroke-width:1;stroke-linecap:round;stroke-linejoin:round;stroke-miterlimit:10;stroke-opacity:1;stroke-dasharray:none"
                     id="path458"
                     inkscape:connector-curvature="0" /></g><path
                   d="m 293.06699,34.791634 7.99438,-3.014893 0.0112,5.999989 -8.00558,-2.985096 z"
                   style="fill:#000000;fill-opacity:1;fill-rule:nonzero;stroke:none"
                   id="path460"
                   inkscape:connector-curvature="0" /><g
                   id="g462"
                   transform="matrix(1,0,0,-1,10.5,83.5)"><path
                     d="m 282.56699,48.708366 7.99438,3.014893 0.0112,-5.999989 -8.00558,2.985096 z"
                     style="fill:none;stroke:#000000;stroke-width:1;stroke-linecap:butt;stroke-linejoin:miter;stroke-miterlimit:10;stroke-opacity:1;stroke-dasharray:none"
                     id="path464"
                     inkscape:connector-curvature="0" /></g><g
                   id="g466"
                   transform="matrix(1,0,0,-1,10.5,83.5)"><path
                     d="m 366.50101,21.565868 11.89999,0 11.866,-0.111934 2,0"
                     style="fill:none;stroke:#000000;stroke-width:1;stroke-linecap:round;stroke-linejoin:round;stroke-miterlimit:10;stroke-opacity:1;stroke-dasharray:none"
                     id="path468"
                     inkscape:connector-curvature="0" /></g><path
                   d="m 410.767,62.046066 -8,3 0,-6 8,3 z"
                   style="fill:#000000;fill-opacity:1;fill-rule:nonzero;stroke:none"
                   id="path470"
                   inkscape:connector-curvature="0" /><g
                   id="g472"
                   transform="matrix(1,0,0,-1,10.5,83.5)"><path
                     d="m 400.267,21.453934 -8,-3 0,6 8,-3 z"
                     style="fill:none;stroke:#000000;stroke-width:1;stroke-linecap:butt;stroke-linejoin:miter;stroke-miterlimit:10;stroke-opacity:1;stroke-dasharray:none"
                     id="path474"
                     inkscape:connector-curvature="0" /></g><g
                   id="g476"
                   transform="matrix(1,0,0,-1,10.5,83.5)"><path
                     d="m 376.401,57.106102 2,0 11.86603,-0.209385 11.89999,0"
                     style="fill:none;stroke:#000000;stroke-width:1;stroke-linecap:round;stroke-linejoin:round;stroke-miterlimit:10;stroke-opacity:1;stroke-dasharray:none"
                     id="path478"
                     inkscape:connector-curvature="0" /></g><path
                   d="m 378.901,26.393898 8,-3 0,6 -8,-3 z"
                   style="fill:#000000;fill-opacity:1;fill-rule:nonzero;stroke:none"
                   id="path480"
                   inkscape:connector-curvature="0" /><g
                   id="g482"
                   transform="matrix(1,0,0,-1,10.5,83.5)"><path
                     d="m 368.401,57.106102 8,3 0,-6 -8,3 z"
                     style="fill:none;stroke:#000000;stroke-width:1;stroke-linecap:butt;stroke-linejoin:miter;stroke-miterlimit:10;stroke-opacity:1;stroke-dasharray:none"
                     id="path484"
                     inkscape:connector-curvature="0" /></g><path
                   d="m 498.50101,75.499901 35.33182,0 0,-63.6661 -35.33182,0 0,63.6661 z"
                   style="fill:#ffffff;fill-opacity:1;fill-rule:nonzero;stroke:none"
                   id="path486"
                   inkscape:connector-curvature="0" /><g
                   id="g488"
                   transform="matrix(1,0,0,-1,10.5,83.5)"><path
                     d="m 488.00101,8.0000992 35.33181,0 0,63.6660998 -35.33181,0 0,-63.6660998 z"
                     style="fill:none;stroke:#ffffff;stroke-width:1;stroke-linecap:round;stroke-linejoin:round;stroke-miterlimit:10;stroke-opacity:1;stroke-dasharray:none"
                     id="path490"
                     inkscape:connector-curvature="0" /></g><g
                   id="g492"
                   transform="matrix(1,0,0,-1,516.16687,43.666851)"><text
                     transform="translate(-8.7792969,4)"
                     id="text494"><tspan
                       style="font-size:12px;font-variant:normal;font-weight:normal;writing-mode:lr-tb;fill:#000000;fill-opacity:1;fill-rule:nonzero;stroke:none;font-family:Symbol;-inkscape-font-specification:Symbol"
                       x="0 5.52 11.04"
                       y="0"
                       sodipodi:role="line"
                       id="tspan496">•••</tspan></text>
</g><g
                   id="g498"
                   transform="matrix(1,0,0,-1,10.5,83.5)"><path
                     d="m 451.90424,30.695309 11.89999,0 12.29681,0.01909 2,0"
                     style="fill:none;stroke:#000000;stroke-width:1;stroke-linecap:round;stroke-linejoin:round;stroke-miterlimit:10;stroke-opacity:1;stroke-dasharray:none"
                     id="path500"
                     inkscape:connector-curvature="0" /></g><path
                   d="m 496.60104,52.785599 -8,3 0,-5.999996 8,2.999996 z"
                   style="fill:#000000;fill-opacity:1;fill-rule:nonzero;stroke:none"
                   id="path502"
                   inkscape:connector-curvature="0" /><g
                   id="g504"
                   transform="matrix(1,0,0,-1,10.5,83.5)"><path
                     d="m 486.10104,30.714401 -8,-3 0,5.999996 8,-2.999996 z"
                     style="fill:none;stroke:#000000;stroke-width:1;stroke-linecap:butt;stroke-linejoin:miter;stroke-miterlimit:10;stroke-opacity:1;stroke-dasharray:none"
                     id="path506"
                     inkscape:connector-curvature="0" /></g><g
                   id="g508"
                   transform="matrix(1,0,0,-1,10.5,83.5)"><path
                     d="m 461.86841,48.664639 2,0 12.23263,0.04573 11.9,0"
                     style="fill:none;stroke:#000000;stroke-width:1;stroke-linecap:round;stroke-linejoin:round;stroke-miterlimit:10;stroke-opacity:1;stroke-dasharray:none"
                     id="path510"
                     inkscape:connector-curvature="0" /></g><path
                   d="m 464.36841,34.835361 8,-3 0,6 -8,-3 z"
                   style="fill:#000000;fill-opacity:1;fill-rule:nonzero;stroke:none"
                   id="path512"
                   inkscape:connector-curvature="0" /><g
                   id="g514"
                   transform="matrix(1,0,0,-1,10.5,83.5)"><path
                     d="m 453.86841,48.664639 8,3 0,-6 -8,3 z"
                     style="fill:none;stroke:#000000;stroke-width:1;stroke-linecap:butt;stroke-linejoin:miter;stroke-miterlimit:10;stroke-opacity:1;stroke-dasharray:none"
                     id="path516"
                     inkscape:connector-curvature="0" /></g><path
                   d="m 11.833191,76.499695 36,0 0,-65.666107 -36,0 0,65.666107 z"
                   style="fill:#ffffff;fill-opacity:1;fill-rule:nonzero;stroke:none"
                   id="path518"
                   inkscape:connector-curvature="0" /><g
                   id="g520"
                   transform="matrix(1,0,0,-1,10.5,83.5)"><path
                     d="m 1.3331909,7.0003052 36.0000001,0 0,65.6661068 -36.0000001,0 0,-65.6661068 z"
                     style="fill:none;stroke:#ffffff;stroke-width:1;stroke-linecap:round;stroke-linejoin:round;stroke-miterlimit:10;stroke-opacity:1;stroke-dasharray:none"
                     id="path522"
                     inkscape:connector-curvature="0" /></g><g
                   id="g524"
                   transform="matrix(1,0,0,-1,29.833191,43.666641)"><text
                     transform="translate(-8.7792969,4)"
                     id="text526"><tspan
                       style="font-size:12px;font-variant:normal;font-weight:normal;writing-mode:lr-tb;fill:#000000;fill-opacity:1;fill-rule:nonzero;stroke:none;font-family:Symbol;-inkscape-font-specification:Symbol"
                       x="0 5.52 11.04"
                       y="0"
                       sodipodi:role="line"
                       id="tspan528">•••</tspan></text>
</g><g
                   id="g530"
                   transform="matrix(1,0,0,-1,10.5,83.5)"><path
                     d="m 37.16082,30.493473 11.900002,0 12.039718,0.241085 2,0"
                     style="fill:none;stroke:#000000;stroke-width:1;stroke-linecap:round;stroke-linejoin:round;stroke-miterlimit:10;stroke-opacity:1;stroke-dasharray:none"
                     id="path532"
                     inkscape:connector-curvature="0" /></g><path
                   d="m 81.60054,52.765442 -8,3 0,-5.999996 8,2.999996 z"
                   style="fill:#000000;fill-opacity:1;fill-rule:nonzero;stroke:none"
                   id="path534"
                   inkscape:connector-curvature="0" /><g
                   id="g536"
                   transform="matrix(1,0,0,-1,10.5,83.5)"><path
                     d="m 71.10054,30.734558 -8,-3 0,5.999996 8,-2.999996 z"
                     style="fill:none;stroke:#000000;stroke-width:1;stroke-linecap:butt;stroke-linejoin:miter;stroke-miterlimit:10;stroke-opacity:1;stroke-dasharray:none"
                     id="path538"
                     inkscape:connector-curvature="0" /></g><g
                   id="g540"
                   transform="matrix(1,0,0,-1,10.5,83.5)"><path
                     d="m 47.233192,48.260044 2,0 11.932099,0.44297 11.900001,0"
                     style="fill:none;stroke:#000000;stroke-width:1;stroke-linecap:round;stroke-linejoin:round;stroke-miterlimit:10;stroke-opacity:1;stroke-dasharray:none"
                     id="path542"
                     inkscape:connector-curvature="0" /></g><path
                   d="m 49.733192,35.239956 8,-3 0,6 -8,-3 z"
                   style="fill:#000000;fill-opacity:1;fill-rule:nonzero;stroke:none"
                   id="path544"
                   inkscape:connector-curvature="0" /><g
                   id="g546"
                   transform="matrix(1,0,0,-1,10.5,83.5)"><path
                     d="m 39.233192,48.260044 8,3 0,-6 -8,3 z"
                     style="fill:none;stroke:#000000;stroke-width:1;stroke-linecap:butt;stroke-linejoin:miter;stroke-miterlimit:10;stroke-opacity:1;stroke-dasharray:none"
                     id="path548"
                     inkscape:connector-curvature="0" /></g><g
                   id="g550"
                   transform="matrix(1,0,0,-1,10.5,83.5)"><path
                     d="m 123.1667,22.042709 11.9,0 12.13272,-0.01914 2,0"
                     style="fill:none;stroke:#000000;stroke-width:1;stroke-linecap:round;stroke-linejoin:round;stroke-miterlimit:10;stroke-opacity:1;stroke-dasharray:none"
                     id="path552"
                     inkscape:connector-curvature="0" /></g><path
                   d="m 167.69942,61.476429 -8,2.999996 0,-5.999996 8,3 z"
                   style="fill:#000000;fill-opacity:1;fill-rule:nonzero;stroke:none"
                   id="path554"
                   inkscape:connector-curvature="0" /><g
                   id="g556"
                   transform="matrix(1,0,0,-1,10.5,83.5)"><path
                     d="m 157.19942,22.023571 -8,-2.999996 0,5.999996 8,-3 z"
                     style="fill:none;stroke:#000000;stroke-width:1;stroke-linecap:butt;stroke-linejoin:miter;stroke-miterlimit:10;stroke-opacity:1;stroke-dasharray:none"
                     id="path558"
                     inkscape:connector-curvature="0" /></g><g
                   id="g560"
                   transform="matrix(1,0,0,-1,10.5,83.5)"><path
                     d="m 133.06671,57.181343 2,0 11.86731,0.100658 11.89999,0"
                     style="fill:none;stroke:#000000;stroke-width:1;stroke-linecap:round;stroke-linejoin:round;stroke-miterlimit:10;stroke-opacity:1;stroke-dasharray:none"
                     id="path562"
                     inkscape:connector-curvature="0" /></g><path
                   d="m 135.56671,26.318657 8,-3 0,6 -8,-3 z"
                   style="fill:#000000;fill-opacity:1;fill-rule:nonzero;stroke:none"
                   id="path564"
                   inkscape:connector-curvature="0" /><g
                   id="g566"
                   transform="matrix(1,0,0,-1,10.5,83.5)"><path
                     d="m 125.06671,57.181343 8,3 0,-6 -8,3 z"
                     style="fill:none;stroke:#000000;stroke-width:1;stroke-linecap:butt;stroke-linejoin:miter;stroke-miterlimit:10;stroke-opacity:1;stroke-dasharray:none"
                     id="path568"
                     inkscape:connector-curvature="0" /></g></g></g></g></g></g></g></g></svg>