<?xml version="1.0" encoding="UTF-8" standalone="no"?>
<!-- Created with Inkscape (http://www.inkscape.org/) -->

<svg
   xmlns:dc="http://purl.org/dc/elements/1.1/"
   xmlns:cc="http://creativecommons.org/ns#"
   xmlns:rdf="http://www.w3.org/1999/02/22-rdf-syntax-ns#"
   xmlns:svg="http://www.w3.org/2000/svg"
   xmlns="http://www.w3.org/2000/svg"
   xmlns:sodipodi="http://sodipodi.sourceforge.net/DTD/sodipodi-0.dtd"
   xmlns:inkscape="http://www.inkscape.org/namespaces/inkscape"
   id="svg2"
   version="1.1"
   inkscape:version="0.48.5 r10040"
   width="610.78237"
   height="184.26225"
   xml:space="preserve"
   sodipodi:docname="bitonic_split.pdf"><metadata
     id="metadata8"><rdf:RDF><cc:Work
         rdf:about=""><dc:format>image/svg+xml</dc:format><dc:type
           rdf:resource="http://purl.org/dc/dcmitype/StillImage" /><dc:title></dc:title></cc:Work></rdf:RDF></metadata><defs
     id="defs6"><clipPath
       clipPathUnits="userSpaceOnUse"
       id="clipPath12"><path
         d="m 0,0 691.2,0 0,1044 L 0,1044 0,0 z"
         id="path14" /></clipPath><clipPath
       clipPathUnits="userSpaceOnUse"
       id="clipPath24"><path
         d="m 342.9203,136.9323 135.7916,0 0,484.6569 -135.7916,0 0,-484.6569 z"
         id="path26" /></clipPath><clipPath
       clipPathUnits="userSpaceOnUse"
       id="clipPath32"><path
         d="m 342.9203,136.9323 135.7916,0 0,484.6569 -135.7916,0 0,-484.6569 z"
         clip-rule="evenodd"
         id="path34" /></clipPath></defs><sodipodi:namedview
     pagecolor="#ffffff"
     bordercolor="#666666"
     borderopacity="1"
     objecttolerance="10"
     gridtolerance="10"
     guidetolerance="10"
     inkscape:pageopacity="0"
     inkscape:pageshadow="2"
     inkscape:window-width="2560"
     inkscape:window-height="1379"
     id="namedview4"
     showgrid="false"
     inkscape:zoom="2.1087708"
     inkscape:cx="305.39117"
     inkscape:cy="92.131126"
     inkscape:window-x="-8"
     inkscape:window-y="-8"
     inkscape:window-maximized="1"
     inkscape:current-layer="g10" /><g
     id="g10"
     inkscape:groupmode="layer"
     inkscape:label="bitonic_split"
     transform="matrix(1.25,0,0,-1.25,-131.518,1225.9978)"
     clip-path="url(#clipPath12)"><g
       id="g16"><g
         id="g18"
         transform="translate(104.301,838.6858)"><g
           id="g20"
           transform="matrix(0,-1,1,0,-136.9323,478.712)"><g
             id="g22"
             clip-path="url(#clipPath24)"><g
               id="g28"><g
                 id="g30"
                 clip-path="url(#clipPath32)"><path
                   d="m 456,168 -90,54 90,48"
                   style="fill:none;stroke:#000000;stroke-opacity:1;stroke-width:0.75;stroke-linecap:round;stroke-linejoin:round;stroke-miterlimit:10;stroke-dasharray:none"
                   id="path36" /><text
                   transform="matrix(0,1,1,0,375.12,163.26)"
                   id="text38"><tspan
                     style="fill:#000000;fill-opacity:1;fill-rule:nonzero;stroke:none;font-family:Arial;font-style:italic;font-variant:normal;font-weight:normal;font-stretch:normal;font-size:18;writing-mode:lr;-inkscape-font-specification:Helvetica-Oblique"
                     x="0"
                     y="0"
                     id="tspan40">s</tspan></text>
<path
                   d="m 456,342 -48,30 m 12,54 36,18 m -48,78 -42,24 54,30"
                   style="fill:none;stroke:#000000;stroke-opacity:1;stroke-width:0.75;stroke-linecap:round;stroke-linejoin:round;stroke-miterlimit:10;stroke-dasharray:none"
                   id="path42" /><path
                   d="m 348,150 120,0 0,138 -120,0 0,-138 z m 0,168 120,0 0,138 -120,0 0,-138 z m 0,156 120,0 0,138 -120,0 0,-138 z"
                   style="fill:none;stroke:#000000;stroke-opacity:1;stroke-width:0.75;stroke-linecap:round;stroke-linejoin:miter;stroke-miterlimit:8;stroke-dasharray:none"
                   id="path44" /><text
                   transform="matrix(0,1,1,0,375.12,331.26)"
                   id="text46"><tspan
                     style="fill:#000000;fill-opacity:1;fill-rule:nonzero;stroke:none;font-family:Arial;font-style:italic;font-variant:normal;font-weight:normal;font-stretch:normal;font-size:18;writing-mode:lr;-inkscape-font-specification:Helvetica-Oblique"
                     x="0"
                     y="0"
                     id="tspan48">s</tspan></text>
<text
                   transform="matrix(0,1,1,0,380.1,340.26)"
                   id="text50"><tspan
                     style="fill:#000000;fill-opacity:1;fill-rule:nonzero;stroke:none;font-family:Arial;font-style:italic;font-variant:normal;font-weight:normal;font-stretch:normal;font-size:12;writing-mode:lr;-inkscape-font-specification:Helvetica-Oblique"
                     x="0"
                     y="0"
                     id="tspan52">1</tspan></text>
<text
                   transform="matrix(0,1,1,0,375.12,487.26)"
                   id="text54"><tspan
                     style="fill:#000000;fill-opacity:1;fill-rule:nonzero;stroke:none;font-family:Arial;font-style:italic;font-variant:normal;font-weight:normal;font-stretch:normal;font-size:18;writing-mode:lr;-inkscape-font-specification:Helvetica-Oblique"
                     x="0"
                     y="0"
                     id="tspan56">s</tspan></text>
<text
                   transform="matrix(0,1,1,0,380.1,496.26)"
                   id="text58"><tspan
                     style="fill:#000000;fill-opacity:1;fill-rule:nonzero;stroke:none;font-family:Arial;font-style:italic;font-variant:normal;font-weight:normal;font-stretch:normal;font-size:12;writing-mode:lr;-inkscape-font-specification:Helvetica-Oblique"
                     x="0"
                     y="0"
                     id="tspan60">2</tspan></text>
<path
                   d="m 437.64,186 0,157.02 0.12,0.24 0.24,0.12 0.24,-0.12 0.12,-0.24 0,-157.02 -0.12,-0.24 -0.24,-0.12 -0.24,0.12 -0.12,0.24 z m -2.64,156 3,6 3,-6"
                   style="fill:#000000;fill-opacity:1;fill-rule:nonzero;stroke:none"
                   id="path62" /><path
                   d="m 449.64,270 -5.82,156.96 0.06,0.3 0.3,0.12 0.24,-0.12 0.12,-0.24 5.82,-157.02 -0.06,-0.24 -0.3,-0.12 -0.24,0.06 -0.12,0.3 z m -8.4,155.88 2.76,6.12 3.24,-5.88"
                   style="fill:#000000;fill-opacity:1;fill-rule:nonzero;stroke:none"
                   id="path64" /><path
                   d="m 389.64,210 0,313.02 0.12,0.24 0.24,0.12 0.24,-0.12 0.12,-0.24 0,-313.02 -0.12,-0.24 -0.24,-0.12 -0.24,0.12 -0.12,0.24 z m -2.64,312 3,6 3,-6"
                   style="fill:#000000;fill-opacity:1;fill-rule:nonzero;stroke:none"
                   id="path66" /><path
                   d="m 401.64,240 0,313.02 0.12,0.24 0.24,0.12 0.24,-0.12 0.12,-0.24 0,-313.02 -0.12,-0.24 -0.24,-0.12 -0.24,0.12 -0.12,0.24 z m -2.64,312 3,6 3,-6"
                   style="fill:#000000;fill-opacity:1;fill-rule:nonzero;stroke:none"
                   id="path68" /></g></g></g></g></g></g></g></svg>