<?xml version="1.0" encoding="UTF-8" standalone="no"?>
<!-- Created with Inkscape (http://www.inkscape.org/) -->

<svg
   xmlns:dc="http://purl.org/dc/elements/1.1/"
   xmlns:cc="http://creativecommons.org/ns#"
   xmlns:rdf="http://www.w3.org/1999/02/22-rdf-syntax-ns#"
   xmlns:svg="http://www.w3.org/2000/svg"
   xmlns="http://www.w3.org/2000/svg"
   xmlns:xlink="http://www.w3.org/1999/xlink"
   xmlns:sodipodi="http://sodipodi.sourceforge.net/DTD/sodipodi-0.dtd"
   xmlns:inkscape="http://www.inkscape.org/namespaces/inkscape"
   id="svg2"
   version="1.1"
   inkscape:version="0.48.5 r10040"
   width="360.01251"
   height="114.94375"
   xml:space="preserve"
   sodipodi:docname="02_design.pdf"><metadata
     id="metadata8"><rdf:RDF><cc:Work
         rdf:about=""><dc:format>image/svg+xml</dc:format><dc:type
           rdf:resource="http://purl.org/dc/dcmitype/StillImage" /><dc:title></dc:title></cc:Work></rdf:RDF></metadata><defs
     id="defs6"><clipPath
       clipPathUnits="userSpaceOnUse"
       id="clipPath128"><path
         d="m 0,0 362.835,0 0,3.985 L 0,3.985 0,0 z"
         id="path130"
         inkscape:connector-curvature="0" /></clipPath><linearGradient
       x1="0"
       y1="0"
       x2="0"
       y2="3.9851"
       gradientUnits="userSpaceOnUse"
       id="linearGradient132"><stop
         style="stop-opacity:1;stop-color:#ffffff"
         offset="0"
         id="stop134" /><stop
         style="stop-opacity:1;stop-color:#808080"
         offset="1"
         id="stop136" /></linearGradient><clipPath
       clipPathUnits="userSpaceOnUse"
       id="clipPath146"><path
         d="m 0,0 362.8394,0 0,19.67815 L 0,19.67815 0,0 z"
         id="path148"
         inkscape:connector-curvature="0" /></clipPath><clipPath
       clipPathUnits="userSpaceOnUse"
       id="clipPath160"><path
         d="m 0,0 362.835,0 0,272.126 L 0,272.126 0,0 z"
         id="path162"
         inkscape:connector-curvature="0" /></clipPath><linearGradient
       x1="0"
       y1="0"
       x2="362.83939"
       y2="0"
       gradientUnits="userSpaceOnUse"
       id="linearGradient164"><stop
         style="stop-opacity:1;stop-color:#3333b3"
         offset="0"
         id="stop166" /><stop
         style="stop-opacity:1;stop-color:#000000"
         offset="1"
         id="stop168" /></linearGradient><clipPath
       clipPathUnits="userSpaceOnUse"
       id="clipPath184"><path
         d="m 0,0 362.835,0 0,3.985 L 0,3.985 0,0 z"
         id="path186"
         inkscape:connector-curvature="0" /></clipPath><linearGradient
       x1="0"
       y1="0"
       x2="0"
       y2="3.9851"
       gradientUnits="userSpaceOnUse"
       id="linearGradient188"><stop
         style="stop-opacity:1;stop-color:#ffffff"
         offset="0"
         id="stop190" /><stop
         style="stop-opacity:1;stop-color:#808080"
         offset="1"
         id="stop192" /></linearGradient><clipPath
       clipPathUnits="userSpaceOnUse"
       id="clipPath208"><path
         d="M 0,0 664,0 664,212 0,212 0,0 z"
         id="path210"
         inkscape:connector-curvature="0" /></clipPath><clipPath
       clipPathUnits="userSpaceOnUse"
       id="clipPath218"><path
         d="M 0,0 664,0 664,212 0,212 0,0 z"
         id="path220"
         inkscape:connector-curvature="0" /></clipPath><linearGradient
       inkscape:collect="always"
       xlink:href="#linearGradient132"
       id="linearGradient4173"
       gradientUnits="userSpaceOnUse"
       x1="0"
       y1="0"
       x2="0"
       y2="3.9851" /><linearGradient
       inkscape:collect="always"
       xlink:href="#linearGradient164"
       id="linearGradient4175"
       gradientUnits="userSpaceOnUse"
       x1="0"
       y1="0"
       x2="362.83939"
       y2="0" /><linearGradient
       inkscape:collect="always"
       xlink:href="#linearGradient188"
       id="linearGradient4177"
       gradientUnits="userSpaceOnUse"
       x1="0"
       y1="0"
       x2="0"
       y2="3.9851" /><linearGradient
       inkscape:collect="always"
       xlink:href="#linearGradient164"
       id="linearGradient4447"
       gradientUnits="userSpaceOnUse"
       x1="0"
       y1="0"
       x2="362.83939"
       y2="0" /><linearGradient
       inkscape:collect="always"
       xlink:href="#linearGradient188"
       id="linearGradient4449"
       gradientUnits="userSpaceOnUse"
       x1="0"
       y1="0"
       x2="0"
       y2="3.9851" /><linearGradient
       inkscape:collect="always"
       xlink:href="#linearGradient188"
       id="linearGradient4565"
       gradientUnits="userSpaceOnUse"
       x1="0"
       y1="0"
       x2="0"
       y2="3.9851" /><linearGradient
       inkscape:collect="always"
       xlink:href="#linearGradient164"
       id="linearGradient4567"
       gradientUnits="userSpaceOnUse"
       x1="0"
       y1="0"
       x2="362.83939"
       y2="0" /></defs><sodipodi:namedview
     pagecolor="#ffffff"
     bordercolor="#666666"
     borderopacity="1"
     objecttolerance="10"
     gridtolerance="10"
     guidetolerance="10"
     inkscape:pageopacity="0"
     inkscape:pageshadow="2"
     inkscape:window-width="2560"
     inkscape:window-height="1379"
     id="namedview4"
     showgrid="false"
     fit-margin-top="0"
     fit-margin-left="0"
     fit-margin-right="0"
     fit-margin-bottom="0"
     inkscape:zoom="2.775185"
     inkscape:cx="185.76975"
     inkscape:cy="52.740714"
     inkscape:window-x="-8"
     inkscape:window-y="-8"
     inkscape:window-maximized="1"
     inkscape:current-layer="g10" /><g
     id="g10"
     inkscape:groupmode="layer"
     inkscape:label="02_design"
     transform="matrix(1.25,0,0,-1.25,-41.00213,232.28179)"><g
       id="g198"
       transform="matrix(0.43375,0,0,0.43375,32.801704,93.870428)"><g
         id="g200"><g
           id="g202"><g
             id="g204"><g
               id="g206"
               clip-path="url(#clipPath208)"><g
                 id="g212" /><g
                 id="g214"><g
                   id="g216"
                   clip-path="url(#clipPath218)"><path
                     d="M 0,212 664,212 664,0 0,0 0,212 z"
                     style="fill:#ffffff;fill-opacity:1;fill-rule:nonzero;stroke:none"
                     id="path222"
                     inkscape:connector-curvature="0" /><path
                     d="m 11.5,154.5 144,0 0,-144 -144,0 0,144 z"
                     style="fill:#eaeaea;fill-opacity:1;fill-rule:nonzero;stroke:none"
                     id="path224"
                     inkscape:connector-curvature="0" /><g
                     id="g226"
                     transform="matrix(1,0,0,-1,11.5,225.5)"><path
                       d="m 0,71 144,0 0,144 L 0,215 0,71 z"
                       style="fill:none;stroke:#000000;stroke-width:1;stroke-linecap:round;stroke-linejoin:round;stroke-miterlimit:10;stroke-opacity:1;stroke-dasharray:none"
                       id="path228"
                       inkscape:connector-curvature="0" /></g><path
                     d="m 11.5,154.5 62,46 127,0 -45,-46 -144,0 z"
                     style="fill:#ffffff;fill-opacity:0;fill-rule:nonzero;stroke:none"
                     id="path230"
                     inkscape:connector-curvature="0" /><g
                     id="g232"
                     transform="matrix(1,0,0,-1,11.5,225.5)"><path
                       d="M 0,71 62,25 189,25 144,71 0,71 z"
                       style="fill:none;stroke:#000000;stroke-width:1;stroke-linecap:round;stroke-linejoin:round;stroke-miterlimit:1;stroke-opacity:1;stroke-dasharray:none"
                       id="path234"
                       inkscape:connector-curvature="0" /></g><path
                     d="m 155.5,10.5 0,144 45,46 1,-127 -46,-63 z"
                     style="fill:#ffffff;fill-opacity:0;fill-rule:nonzero;stroke:none"
                     id="path236"
                     inkscape:connector-curvature="0" /><g
                     id="g238"
                     transform="matrix(1,0,0,-1,11.5,225.5)"><path
                       d="m 144,215 0,-144 45,-46 1,127 -46,63 z"
                       style="fill:none;stroke:#000000;stroke-width:1;stroke-linecap:round;stroke-linejoin:round;stroke-miterlimit:1;stroke-opacity:1;stroke-dasharray:none"
                       id="path240"
                       inkscape:connector-curvature="0" /></g><path
                     d="m 237.5,154.5 144,0 0,-144 -144,0 0,144 z"
                     style="fill:#ffffff;fill-opacity:0;fill-rule:nonzero;stroke:none"
                     id="path242"
                     inkscape:connector-curvature="0" /><g
                     id="g244"
                     transform="matrix(1,0,0,-1,11.5,225.5)"><path
                       d="m 226,71 144,0 0,144 -144,0 0,-144 z"
                       style="fill:none;stroke:#000000;stroke-width:1;stroke-linecap:round;stroke-linejoin:round;stroke-miterlimit:10;stroke-opacity:1;stroke-dasharray:none"
                       id="path246"
                       inkscape:connector-curvature="0" /></g><path
                     d="m 237.5,154.5 62,46 127,0 -45,-46 -144,0 z"
                     style="fill:#ffffff;fill-opacity:0;fill-rule:nonzero;stroke:none"
                     id="path248"
                     inkscape:connector-curvature="0" /><g
                     id="g250"
                     transform="matrix(1,0,0,-1,11.5,225.5)"><path
                       d="m 226,71 62,-46 127,0 -45,46 -144,0 z"
                       style="fill:none;stroke:#000000;stroke-width:1;stroke-linecap:round;stroke-linejoin:round;stroke-miterlimit:1;stroke-opacity:1;stroke-dasharray:none"
                       id="path252"
                       inkscape:connector-curvature="0" /></g><path
                     d="m 381.5,10.5 0,144 45,46 1,-127 -46,-63 z"
                     style="fill:#ffffff;fill-opacity:0;fill-rule:nonzero;stroke:none"
                     id="path254"
                     inkscape:connector-curvature="0" /><g
                     id="g256"
                     transform="matrix(1,0,0,-1,11.5,225.5)"><path
                       d="m 370,215 0,-144 45,-46 1,127 -46,63 z"
                       style="fill:none;stroke:#000000;stroke-width:1;stroke-linecap:round;stroke-linejoin:round;stroke-miterlimit:1;stroke-opacity:1;stroke-dasharray:none"
                       id="path258"
                       inkscape:connector-curvature="0" /></g><path
                     d="m 11.5,154.5 36,27 133,-1 -25,-26 -144,0 z"
                     style="fill:#eaeaea;fill-opacity:1;fill-rule:nonzero;stroke:none"
                     id="path260"
                     inkscape:connector-curvature="0" /><g
                     id="g262"
                     transform="matrix(1,0,0,-1,11.5,225.5)"><path
                       d="M 0,71 36,44 169,45 144,71 0,71 z"
                       style="fill:none;stroke:#000000;stroke-width:1;stroke-linecap:round;stroke-linejoin:round;stroke-miterlimit:1;stroke-opacity:1;stroke-dasharray:none"
                       id="path264"
                       inkscape:connector-curvature="0" /></g><path
                     d="m 155.5,154.5 26,26 1,-132 -27,-38 0,144 z"
                     style="fill:#eaeaea;fill-opacity:1;fill-rule:nonzero;stroke:none"
                     id="path266"
                     inkscape:connector-curvature="0" /><g
                     id="g268"
                     transform="matrix(1,0,0,-1,11.5,225.5)"><path
                       d="m 144,71 26,-26 1,132 -27,38 0,-144 z"
                       style="fill:none;stroke:#000000;stroke-width:1;stroke-linecap:round;stroke-linejoin:round;stroke-miterlimit:1;stroke-opacity:1;stroke-dasharray:none"
                       id="path270"
                       inkscape:connector-curvature="0" /></g><path
                     d="m 308.5,154.5 27,23 71,0 -25,-23 -73,0 z"
                     style="fill:#eaeaea;fill-opacity:1;fill-rule:nonzero;stroke:none"
                     id="path272"
                     inkscape:connector-curvature="0" /><g
                     id="g274"
                     transform="matrix(1,0,0,-1,11.5,225.5)"><path
                       d="m 297,71 27,-23 71,0 -25,23 -73,0 z"
                       style="fill:none;stroke:#000000;stroke-width:1;stroke-linecap:round;stroke-linejoin:round;stroke-miterlimit:1;stroke-opacity:1;stroke-dasharray:none"
                       id="path276"
                       inkscape:connector-curvature="0" /></g><path
                     d="m 308.5,154.5 1,-144 72,0 0,144 -73,0 z"
                     style="fill:#eaeaea;fill-opacity:1;fill-rule:nonzero;stroke:none"
                     id="path278"
                     inkscape:connector-curvature="0" /><g
                     id="g280"
                     transform="matrix(1,0,0,-1,11.5,225.5)"><path
                       d="m 297,71 1,144 72,0 0,-144 -73,0 z"
                       style="fill:none;stroke:#000000;stroke-width:1;stroke-linecap:round;stroke-linejoin:round;stroke-miterlimit:1;stroke-opacity:1;stroke-dasharray:none"
                       id="path282"
                       inkscape:connector-curvature="0" /></g><path
                     d="m 381.5,154.5 24,24 1,-134 -25,-34 0,144 z"
                     style="fill:#eaeaea;fill-opacity:1;fill-rule:nonzero;stroke:none"
                     id="path284"
                     inkscape:connector-curvature="0" /><g
                     id="g286"
                     transform="matrix(1,0,0,-1,11.5,225.5)"><path
                       d="m 370,71 24,-24 1,134 -25,34 0,-144 z"
                       style="fill:none;stroke:#000000;stroke-width:1;stroke-linecap:round;stroke-linejoin:round;stroke-miterlimit:1;stroke-opacity:1;stroke-dasharray:none"
                       id="path288"
                       inkscape:connector-curvature="0" /></g><path
                     d="m 463.5,154.5 144,0 0,-144 -144,0 0,144 z"
                     style="fill:#ffffff;fill-opacity:0;fill-rule:nonzero;stroke:none"
                     id="path290"
                     inkscape:connector-curvature="0" /><g
                     id="g292"
                     transform="matrix(1,0,0,-1,11.5,225.5)"><path
                       d="m 452,71 144,0 0,144 -144,0 0,-144 z"
                       style="fill:none;stroke:#000000;stroke-width:1;stroke-linecap:round;stroke-linejoin:round;stroke-miterlimit:10;stroke-opacity:1;stroke-dasharray:none"
                       id="path294"
                       inkscape:connector-curvature="0" /></g><path
                     d="m 463.5,154.5 62,46 127,0 -45,-46 -144,0 z"
                     style="fill:#ffffff;fill-opacity:0;fill-rule:nonzero;stroke:none"
                     id="path296"
                     inkscape:connector-curvature="0" /><g
                     id="g298"
                     transform="matrix(1,0,0,-1,11.5,225.5)"><path
                       d="m 452,71 62,-46 127,0 -45,46 -144,0 z"
                       style="fill:none;stroke:#000000;stroke-width:1;stroke-linecap:round;stroke-linejoin:round;stroke-miterlimit:1;stroke-opacity:1;stroke-dasharray:none"
                       id="path300"
                       inkscape:connector-curvature="0" /></g><path
                     d="m 607.5,10.5 0,144 45,46 1,-127 -46,-63 z"
                     style="fill:#ffffff;fill-opacity:0;fill-rule:nonzero;stroke:none"
                     id="path302"
                     inkscape:connector-curvature="0" /><g
                     id="g304"
                     transform="matrix(1,0,0,-1,11.5,225.5)"><path
                       d="m 596,215 0,-144 45,-46 1,127 -46,63 z"
                       style="fill:none;stroke:#000000;stroke-width:1;stroke-linecap:round;stroke-linejoin:round;stroke-miterlimit:1;stroke-opacity:1;stroke-dasharray:none"
                       id="path306"
                       inkscape:connector-curvature="0" /></g><path
                     d="m 537,154.5 26.5,23 68,1 -23.5,-24 -71,0 z"
                     style="fill:#eaeaea;fill-opacity:1;fill-rule:nonzero;stroke:none"
                     id="path308"
                     inkscape:connector-curvature="0" /><g
                     id="g310"
                     transform="matrix(1,0,0,-1,11.5,225.5)"><path
                       d="m 525.5,71 26.5,-23 68,-1 -23.5,24 -71,0 z"
                       style="fill:none;stroke:#000000;stroke-width:1;stroke-linecap:round;stroke-linejoin:round;stroke-miterlimit:1;stroke-opacity:1;stroke-dasharray:none"
                       id="path312"
                       inkscape:connector-curvature="0" /></g><path
                     d="m 536,154.5 -1,-73 72,0 1,73 -72,0 z"
                     style="fill:#eaeaea;fill-opacity:1;fill-rule:nonzero;stroke:none"
                     id="path314"
                     inkscape:connector-curvature="0" /><g
                     id="g316"
                     transform="matrix(1,0,0,-1,11.5,225.5)"><path
                       d="m 524.5,71 -1,73 72,0 1,-73 -72,0 z"
                       style="fill:none;stroke:#000000;stroke-width:1;stroke-linecap:round;stroke-linejoin:round;stroke-miterlimit:1;stroke-opacity:1;stroke-dasharray:none"
                       id="path318"
                       inkscape:connector-curvature="0" /></g><path
                     d="m 608,154.5 22.5,23 1,-65 -24.5,-31 1,73 z"
                     style="fill:#eaeaea;fill-opacity:1;fill-rule:nonzero;stroke:none"
                     id="path320"
                     inkscape:connector-curvature="0" /><g
                     id="g322"
                     transform="matrix(1,0,0,-1,11.5,225.5)"><path
                       d="m 596.5,71 22.5,-23 1,65 -24.5,31 1,-73 z"
                       style="fill:none;stroke:#000000;stroke-width:1;stroke-linecap:round;stroke-linejoin:round;stroke-miterlimit:1;stroke-opacity:1;stroke-dasharray:none"
                       id="path324"
                       inkscape:connector-curvature="0" /></g><path
                     d="m 237.5,154.5 72,0 26,23 -68,-1 -30,-22 z"
                     style="fill:#ffffff;fill-opacity:0;fill-rule:nonzero;stroke:none"
                     id="path326"
                     inkscape:connector-curvature="0" /><g
                     id="g328"
                     transform="matrix(1,0,0,-1,11.5,225.5)"><path
                       d="m 226,71 72,0 26,-23 -68,1 -30,22 z"
                       style="fill:none;stroke:#000000;stroke-width:1;stroke-linecap:round;stroke-linejoin:round;stroke-miterlimit:1;stroke-opacity:1;stroke-dasharray:none"
                       id="path330"
                       inkscape:connector-curvature="0" /></g><path
                     d="m 335.5,176.5 69,1 22,23 -64,0 -27,-24 z"
                     style="fill:#ffffff;fill-opacity:0;fill-rule:nonzero;stroke:none"
                     id="path332"
                     inkscape:connector-curvature="0" /><g
                     id="g334"
                     transform="matrix(1,0,0,-1,11.5,225.5)"><path
                       d="m 324,49 69,-1 22,-23 -64,0 -27,24 z"
                       style="fill:none;stroke:#000000;stroke-width:1;stroke-linecap:round;stroke-linejoin:round;stroke-miterlimit:1;stroke-opacity:1;stroke-dasharray:none"
                       id="path336"
                       inkscape:connector-curvature="0" /></g><path
                     d="m 463.5,154.5 73,0 28,23 -70,0 -31,-23 z"
                     style="fill:#ffffff;fill-opacity:0;fill-rule:nonzero;stroke:none"
                     id="path338"
                     inkscape:connector-curvature="0" /><g
                     id="g340"
                     transform="matrix(1,0,0,-1,11.5,225.5)"><path
                       d="m 452,71 73,0 28,-23 -70,0 -31,23 z"
                       style="fill:none;stroke:#000000;stroke-width:1;stroke-linecap:round;stroke-linejoin:round;stroke-miterlimit:1;stroke-opacity:1;stroke-dasharray:none"
                       id="path342"
                       inkscape:connector-curvature="0" /></g><path
                     d="m 566.5,178.5 64,-1 22,22 -63,1 -23,-22 z"
                     style="fill:#ffffff;fill-opacity:0;fill-rule:nonzero;stroke:none"
                     id="path344"
                     inkscape:connector-curvature="0" /><g
                     id="g346"
                     transform="matrix(1,0,0,-1,11.5,225.5)"><path
                       d="m 555,47 64,1 22,-22 -63,-1 -23,22 z"
                       style="fill:none;stroke:#000000;stroke-width:1;stroke-linecap:round;stroke-linejoin:round;stroke-miterlimit:1;stroke-opacity:1;stroke-dasharray:none"
                       id="path348"
                       inkscape:connector-curvature="0" /></g><path
                     d="m 653.5,200.5 -23,-23 0,-65 23,32 0,56 z"
                     style="fill:#ffffff;fill-opacity:0;fill-rule:nonzero;stroke:none"
                     id="path350"
                     inkscape:connector-curvature="0" /><g
                     id="g352"
                     transform="matrix(1,0,0,-1,11.5,225.5)"><path
                       d="m 642,25 -23,23 0,65 23,-32 0,-56 z"
                       style="fill:none;stroke:#000000;stroke-width:1;stroke-linecap:round;stroke-linejoin:round;stroke-miterlimit:1;stroke-opacity:1;stroke-dasharray:none"
                       id="path354"
                       inkscape:connector-curvature="0" /></g><path
                     d="m 630.5,112.5 -23,-31 0,-71 24,32 -1,70 z"
                     style="fill:#ffffff;fill-opacity:0;fill-rule:nonzero;stroke:none"
                     id="path356"
                     inkscape:connector-curvature="0" /><g
                     id="g358"
                     transform="matrix(1,0,0,-1,11.5,225.5)"><path
                       d="m 619,113 -23,31 0,71 24,-32 -1,-70 z"
                       style="fill:none;stroke:#000000;stroke-width:1;stroke-linecap:round;stroke-linejoin:round;stroke-miterlimit:1;stroke-opacity:1;stroke-dasharray:none"
                       id="path360"
                       inkscape:connector-curvature="0" /></g><path
                     d="m 463.5,154.5 72,0 0,-73 -72,0 0,73 z"
                     style="fill:#ffffff;fill-opacity:0;fill-rule:nonzero;stroke:none"
                     id="path362"
                     inkscape:connector-curvature="0" /><g
                     id="g364"
                     transform="matrix(1,0,0,-1,11.5,225.5)"><path
                       d="m 452,71 72,0 0,73 -72,0 0,-73 z"
                       style="fill:none;stroke:#000000;stroke-width:1;stroke-linecap:round;stroke-linejoin:round;stroke-miterlimit:1;stroke-opacity:1;stroke-dasharray:none"
                       id="path366"
                       inkscape:connector-curvature="0" /></g><path
                     d="m 535.5,81.5 72,0 0,-71 -72,0 0,71 z"
                     style="fill:#ffffff;fill-opacity:0;fill-rule:nonzero;stroke:none"
                     id="path368"
                     inkscape:connector-curvature="0" /><g
                     id="g370"
                     transform="matrix(1,0,0,-1,11.5,225.5)"><path
                       d="m 524,144 72,0 0,71 -72,0 0,-71 z"
                       style="fill:none;stroke:#000000;stroke-width:1;stroke-linecap:round;stroke-linejoin:round;stroke-miterlimit:1;stroke-opacity:1;stroke-dasharray:none"
                       id="path372"
                       inkscape:connector-curvature="0" /></g></g></g></g></g></g></g></g></g></svg>