<?xml version="1.0" encoding="UTF-8" standalone="no"?>
<!-- Created with Inkscape (http://www.inkscape.org/) -->

<svg
   xmlns:dc="http://purl.org/dc/elements/1.1/"
   xmlns:cc="http://creativecommons.org/ns#"
   xmlns:rdf="http://www.w3.org/1999/02/22-rdf-syntax-ns#"
   xmlns:svg="http://www.w3.org/2000/svg"
   xmlns="http://www.w3.org/2000/svg"
   xmlns:xlink="http://www.w3.org/1999/xlink"
   xmlns:sodipodi="http://sodipodi.sourceforge.net/DTD/sodipodi-0.dtd"
   xmlns:inkscape="http://www.inkscape.org/namespaces/inkscape"
   id="svg2"
   version="1.1"
   inkscape:version="0.48.5 r10040"
   width="360.0058"
   height="129.15793"
   xml:space="preserve"
   sodipodi:docname="04_performance.pdf"><metadata
     id="metadata8"><rdf:RDF><cc:Work
         rdf:about=""><dc:format>image/svg+xml</dc:format><dc:type
           rdf:resource="http://purl.org/dc/dcmitype/StillImage" /><dc:title></dc:title></cc:Work></rdf:RDF></metadata><defs
     id="defs6"><clipPath
       clipPathUnits="userSpaceOnUse"
       id="clipPath128"><path
         d="m 0,0 362.835,0 0,3.985 L 0,3.985 0,0 z"
         id="path130"
         inkscape:connector-curvature="0" /></clipPath><linearGradient
       x1="0"
       y1="0"
       x2="0"
       y2="3.9851"
       gradientUnits="userSpaceOnUse"
       id="linearGradient132"><stop
         style="stop-opacity:1;stop-color:#ffffff"
         offset="0"
         id="stop134" /><stop
         style="stop-opacity:1;stop-color:#808080"
         offset="1"
         id="stop136" /></linearGradient><clipPath
       clipPathUnits="userSpaceOnUse"
       id="clipPath146"><path
         d="m 0,0 362.8394,0 0,19.67815 L 0,19.67815 0,0 z"
         id="path148"
         inkscape:connector-curvature="0" /></clipPath><clipPath
       clipPathUnits="userSpaceOnUse"
       id="clipPath160"><path
         d="m 0,0 362.835,0 0,272.126 L 0,272.126 0,0 z"
         id="path162"
         inkscape:connector-curvature="0" /></clipPath><linearGradient
       x1="0"
       y1="0"
       x2="362.83939"
       y2="0"
       gradientUnits="userSpaceOnUse"
       id="linearGradient164"><stop
         style="stop-opacity:1;stop-color:#3333b3"
         offset="0"
         id="stop166" /><stop
         style="stop-opacity:1;stop-color:#000000"
         offset="1"
         id="stop168" /></linearGradient><clipPath
       clipPathUnits="userSpaceOnUse"
       id="clipPath184"><path
         d="m 0,0 362.835,0 0,3.985 L 0,3.985 0,0 z"
         id="path186"
         inkscape:connector-curvature="0" /></clipPath><linearGradient
       x1="0"
       y1="0"
       x2="0"
       y2="3.9851"
       gradientUnits="userSpaceOnUse"
       id="linearGradient188"><stop
         style="stop-opacity:1;stop-color:#ffffff"
         offset="0"
         id="stop190" /><stop
         style="stop-opacity:1;stop-color:#808080"
         offset="1"
         id="stop192" /></linearGradient><clipPath
       clipPathUnits="userSpaceOnUse"
       id="clipPath208"><path
         d="M 0,0 616,0 616,221 0,221 0,0 z"
         id="path210"
         inkscape:connector-curvature="0" /></clipPath><linearGradient
       inkscape:collect="always"
       xlink:href="#linearGradient164"
       id="linearGradient4737"
       gradientUnits="userSpaceOnUse"
       x1="0"
       y1="0"
       x2="362.83939"
       y2="0" /><linearGradient
       inkscape:collect="always"
       xlink:href="#linearGradient188"
       id="linearGradient4739"
       gradientUnits="userSpaceOnUse"
       x1="0"
       y1="0"
       x2="0"
       y2="3.9851" /></defs><sodipodi:namedview
     pagecolor="#ffffff"
     bordercolor="#666666"
     borderopacity="1"
     objecttolerance="10"
     gridtolerance="10"
     guidetolerance="10"
     inkscape:pageopacity="0"
     inkscape:pageshadow="2"
     inkscape:window-width="2560"
     inkscape:window-height="1377"
     id="namedview4"
     showgrid="false"
     fit-margin-top="0"
     fit-margin-left="0"
     fit-margin-right="0"
     fit-margin-bottom="0"
     inkscape:zoom="2.775185"
     inkscape:cx="180.00438"
     inkscape:cy="48.764999"
     inkscape:window-x="-8"
     inkscape:window-y="-8"
     inkscape:window-maximized="1"
     inkscape:current-layer="g10" /><g
     id="g10"
     inkscape:groupmode="layer"
     inkscape:label="04_performance"
     transform="matrix(1.25,0,0,-1.25,-46.7675,250.47167)"><g
       id="g198"
       transform="matrix(0.46754,0,0,0.46754,37.414,97.051)"><g
         id="g200"><g
           id="g202"><g
             id="g204"><g
               id="g206"
               clip-path="url(#clipPath208)"><g
                 id="g212" /><g
                 id="g214"><path
                   d="M 0,221 616,221 616,0 0,0 0,221 z"
                   style="fill:#ffffff;fill-opacity:1;fill-rule:nonzero;stroke:none"
                   id="path216"
                   inkscape:connector-curvature="0" /><path
                   d="m 11.5,209.5 90,0 0,-29 -90,0 0,29 z"
                   style="fill:#ebebeb;fill-opacity:1;fill-rule:nonzero;stroke:none"
                   id="path218"
                   inkscape:connector-curvature="0" /><g
                   id="g220"
                   transform="matrix(1,0,0,-1,11.5,281.5)"><path
                     d="m 0,72 90,0 0,29 -90,0 0,-29 z"
                     style="fill:none;stroke:#000000;stroke-width:1;stroke-linecap:round;stroke-linejoin:round;stroke-miterlimit:1;stroke-opacity:1;stroke-dasharray:none"
                     id="path222"
                     inkscape:connector-curvature="0" /></g><path
                   d="m 11.5,166.5 90,0 0,-29 -90,0 0,29 z"
                   style="fill:#ebebeb;fill-opacity:1;fill-rule:nonzero;stroke:none"
                   id="path224"
                   inkscape:connector-curvature="0" /><g
                   id="g226"
                   transform="matrix(1,0,0,-1,11.5,281.5)"><path
                     d="m 0,115 90,0 0,29 -90,0 0,-29 z"
                     style="fill:none;stroke:#000000;stroke-width:1;stroke-linecap:round;stroke-linejoin:round;stroke-miterlimit:1;stroke-opacity:1;stroke-dasharray:none"
                     id="path228"
                     inkscape:connector-curvature="0" /></g><path
                   d="m 11.5,123.5 90,0 0,-29 -90,0 0,29 z"
                   style="fill:#ebebeb;fill-opacity:1;fill-rule:nonzero;stroke:none"
                   id="path230"
                   inkscape:connector-curvature="0" /><g
                   id="g232"
                   transform="matrix(1,0,0,-1,11.5,281.5)"><path
                     d="m 0,158 90,0 0,29 -90,0 0,-29 z"
                     style="fill:none;stroke:#000000;stroke-width:1;stroke-linecap:round;stroke-linejoin:round;stroke-miterlimit:1;stroke-opacity:1;stroke-dasharray:none"
                     id="path234"
                     inkscape:connector-curvature="0" /></g><path
                   d="m 11.5,80.5 90,0 0,-29 -90,0 0,29 z"
                   style="fill:#ebebeb;fill-opacity:1;fill-rule:nonzero;stroke:none"
                   id="path236"
                   inkscape:connector-curvature="0" /><g
                   id="g238"
                   transform="matrix(1,0,0,-1,11.5,281.5)"><path
                     d="m 0,201 90,0 0,29 -90,0 0,-29 z"
                     style="fill:none;stroke:#000000;stroke-width:1;stroke-linecap:round;stroke-linejoin:round;stroke-miterlimit:1;stroke-opacity:1;stroke-dasharray:none"
                     id="path240"
                     inkscape:connector-curvature="0" /></g><path
                   d="m 155.5,209.5 84,0 0,-29 -84,0 0,29 z"
                   style="fill:#ebebeb;fill-opacity:1;fill-rule:nonzero;stroke:none"
                   id="path242"
                   inkscape:connector-curvature="0" /><g
                   id="g244"
                   transform="matrix(1,0,0,-1,11.5,281.5)"><path
                     d="m 144,72 84,0 0,29 -84,0 0,-29 z"
                     style="fill:none;stroke:#000000;stroke-width:1;stroke-linecap:round;stroke-linejoin:round;stroke-miterlimit:10;stroke-opacity:1;stroke-dasharray:none"
                     id="path246"
                     inkscape:connector-curvature="0" /></g><path
                   d="m 155.5,166.5 108,0 0,-29 -108,0 0,29 z"
                   style="fill:#ebebeb;fill-opacity:1;fill-rule:nonzero;stroke:none"
                   id="path248"
                   inkscape:connector-curvature="0" /><g
                   id="g250"
                   transform="matrix(1,0,0,-1,11.5,281.5)"><path
                     d="m 144,115 108,0 0,29 -108,0 0,-29 z"
                     style="fill:none;stroke:#000000;stroke-width:1;stroke-linecap:round;stroke-linejoin:round;stroke-miterlimit:10;stroke-opacity:1;stroke-dasharray:none"
                     id="path252"
                     inkscape:connector-curvature="0" /></g><path
                   d="m 155.5,123.5 72,0 0,-29 -72,0 0,29 z"
                   style="fill:#ebebeb;fill-opacity:1;fill-rule:nonzero;stroke:none"
                   id="path254"
                   inkscape:connector-curvature="0" /><g
                   id="g256"
                   transform="matrix(1,0,0,-1,11.5,281.5)"><path
                     d="m 144,158 72,0 0,29 -72,0 0,-29 z"
                     style="fill:none;stroke:#000000;stroke-width:1;stroke-linecap:round;stroke-linejoin:round;stroke-miterlimit:10;stroke-opacity:1;stroke-dasharray:none"
                     id="path258"
                     inkscape:connector-curvature="0" /></g><path
                   d="m 155.5,80.5 96,0 0,-29 -96,0 0,29 z"
                   style="fill:#ebebeb;fill-opacity:1;fill-rule:nonzero;stroke:none"
                   id="path260"
                   inkscape:connector-curvature="0" /><g
                   id="g262"
                   transform="matrix(1,0,0,-1,11.5,281.5)"><path
                     d="m 144,201 96,0 0,29 -96,0 0,-29 z"
                     style="fill:none;stroke:#000000;stroke-width:1;stroke-linecap:round;stroke-linejoin:round;stroke-miterlimit:1;stroke-opacity:1;stroke-dasharray:none"
                     id="path264"
                     inkscape:connector-curvature="0" /></g><path
                   d="m 353.5,209.5 90,0 0,-29 -90,0 0,29 z"
                   style="fill:#ebebeb;fill-opacity:1;fill-rule:nonzero;stroke:none"
                   id="path266"
                   inkscape:connector-curvature="0" /><g
                   id="g268"
                   transform="matrix(1,0,0,-1,11.5,281.5)"><path
                     d="m 342,72 90,0 0,29 -90,0 0,-29 z"
                     style="fill:none;stroke:#000000;stroke-width:1;stroke-linecap:round;stroke-linejoin:round;stroke-miterlimit:10;stroke-opacity:1;stroke-dasharray:none"
                     id="path270"
                     inkscape:connector-curvature="0" /></g><path
                   d="m 335.5,166.5 90,0 0,-29 -90,0 0,29 z"
                   style="fill:#ebebeb;fill-opacity:1;fill-rule:nonzero;stroke:none"
                   id="path272"
                   inkscape:connector-curvature="0" /><g
                   id="g274"
                   transform="matrix(1,0,0,-1,11.5,281.5)"><path
                     d="m 324,115 90,0 0,29 -90,0 0,-29 z"
                     style="fill:none;stroke:#000000;stroke-width:1;stroke-linecap:round;stroke-linejoin:round;stroke-miterlimit:10;stroke-opacity:1;stroke-dasharray:none"
                     id="path276"
                     inkscape:connector-curvature="0" /></g><path
                   d="m 317.5,123.5 90,0 0,-29 -90,0 0,29 z"
                   style="fill:#ebebeb;fill-opacity:1;fill-rule:nonzero;stroke:none"
                   id="path278"
                   inkscape:connector-curvature="0" /><g
                   id="g280"
                   transform="matrix(1,0,0,-1,11.5,281.5)"><path
                     d="m 306,158 90,0 0,29 -90,0 0,-29 z"
                     style="fill:none;stroke:#000000;stroke-width:1;stroke-linecap:round;stroke-linejoin:round;stroke-miterlimit:10;stroke-opacity:1;stroke-dasharray:none"
                     id="path282"
                     inkscape:connector-curvature="0" /></g><path
                   d="m 299.5,80.5 90,0 0,-29 -90,0 0,29 z"
                   style="fill:#ebebeb;fill-opacity:1;fill-rule:nonzero;stroke:none"
                   id="path284"
                   inkscape:connector-curvature="0" /><g
                   id="g286"
                   transform="matrix(1,0,0,-1,11.5,281.5)"><path
                     d="m 288,201 90,0 0,29 -90,0 0,-29 z"
                     style="fill:none;stroke:#000000;stroke-width:1;stroke-linecap:round;stroke-linejoin:round;stroke-miterlimit:1;stroke-opacity:1;stroke-dasharray:none"
                     id="path288"
                     inkscape:connector-curvature="0" /></g><path
                   d="m 486.5,209.5 119,0 0,-29 -119,0 0,29 z"
                   style="fill:#ebebeb;fill-opacity:1;fill-rule:nonzero;stroke:none"
                   id="path290"
                   inkscape:connector-curvature="0" /><g
                   id="g292"
                   transform="matrix(1,0,0,-1,11.5,281.5)"><path
                     d="m 475,72 119,0 0,29 -119,0 0,-29 z"
                     style="fill:none;stroke:#000000;stroke-width:1;stroke-linecap:round;stroke-linejoin:round;stroke-miterlimit:1;stroke-opacity:1;stroke-dasharray:none"
                     id="path294"
                     inkscape:connector-curvature="0" /></g><path
                   d="m 508.5,209.5 7,0 0,-29 -7,0 0,29 z"
                   style="fill:#bfbfbf;fill-opacity:1;fill-rule:nonzero;stroke:none"
                   id="path296"
                   inkscape:connector-curvature="0" /><g
                   id="g298"
                   transform="matrix(1,0,0,-1,11.5,281.5)"><path
                     d="m 497,72 7,0 0,29 -7,0 0,-29 z"
                     style="fill:none;stroke:#000000;stroke-width:1;stroke-linecap:round;stroke-linejoin:round;stroke-miterlimit:10;stroke-opacity:1;stroke-dasharray:none"
                     id="path300"
                     inkscape:connector-curvature="0" /></g><path
                   d="m 533.5,209.5 7,0 0,-29 -7,0 0,29 z"
                   style="fill:#bfbfbf;fill-opacity:1;fill-rule:nonzero;stroke:none"
                   id="path302"
                   inkscape:connector-curvature="0" /><g
                   id="g304"
                   transform="matrix(1,0,0,-1,11.5,281.5)"><path
                     d="m 522,72 7,0 0,29 -7,0 0,-29 z"
                     style="fill:none;stroke:#000000;stroke-width:1;stroke-linecap:round;stroke-linejoin:round;stroke-miterlimit:10;stroke-opacity:1;stroke-dasharray:none"
                     id="path306"
                     inkscape:connector-curvature="0" /></g><path
                   d="m 558.5,209.5 7,0 0,-29 -7,0 0,29 z"
                   style="fill:#bfbfbf;fill-opacity:1;fill-rule:nonzero;stroke:none"
                   id="path308"
                   inkscape:connector-curvature="0" /><g
                   id="g310"
                   transform="matrix(1,0,0,-1,11.5,281.5)"><path
                     d="m 547,72 7,0 0,29 -7,0 0,-29 z"
                     style="fill:none;stroke:#000000;stroke-width:1;stroke-linecap:round;stroke-linejoin:round;stroke-miterlimit:10;stroke-opacity:1;stroke-dasharray:none"
                     id="path312"
                     inkscape:connector-curvature="0" /></g><path
                   d="m 580.5,209.5 7,0 0,-29 -7,0 0,29 z"
                   style="fill:#bfbfbf;fill-opacity:1;fill-rule:nonzero;stroke:none"
                   id="path314"
                   inkscape:connector-curvature="0" /><g
                   id="g316"
                   transform="matrix(1,0,0,-1,11.5,281.5)"><path
                     d="m 569,72 7,0 0,29 -7,0 0,-29 z"
                     style="fill:none;stroke:#000000;stroke-width:1;stroke-linecap:round;stroke-linejoin:round;stroke-miterlimit:10;stroke-opacity:1;stroke-dasharray:none"
                     id="path318"
                     inkscape:connector-curvature="0" /></g><path
                   d="m 486.5,166.5 119,0 0,-29 -119,0 0,29 z"
                   style="fill:#ebebeb;fill-opacity:1;fill-rule:nonzero;stroke:none"
                   id="path320"
                   inkscape:connector-curvature="0" /><g
                   id="g322"
                   transform="matrix(1,0,0,-1,11.5,281.5)"><path
                     d="m 475,115 119,0 0,29 -119,0 0,-29 z"
                     style="fill:none;stroke:#000000;stroke-width:1;stroke-linecap:round;stroke-linejoin:round;stroke-miterlimit:10;stroke-opacity:1;stroke-dasharray:none"
                     id="path324"
                     inkscape:connector-curvature="0" /></g><path
                   d="m 508.5,166.5 7,0 0,-29 -7,0 0,29 z"
                   style="fill:#bfbfbf;fill-opacity:1;fill-rule:nonzero;stroke:none"
                   id="path326"
                   inkscape:connector-curvature="0" /><g
                   id="g328"
                   transform="matrix(1,0,0,-1,11.5,281.5)"><path
                     d="m 497,115 7,0 0,29 -7,0 0,-29 z"
                     style="fill:none;stroke:#000000;stroke-width:1;stroke-linecap:round;stroke-linejoin:round;stroke-miterlimit:10;stroke-opacity:1;stroke-dasharray:none"
                     id="path330"
                     inkscape:connector-curvature="0" /></g><path
                   d="m 533.5,166.5 7,0 0,-29 -7,0 0,29 z"
                   style="fill:#bfbfbf;fill-opacity:1;fill-rule:nonzero;stroke:none"
                   id="path332"
                   inkscape:connector-curvature="0" /><g
                   id="g334"
                   transform="matrix(1,0,0,-1,11.5,281.5)"><path
                     d="m 522,115 7,0 0,29 -7,0 0,-29 z"
                     style="fill:none;stroke:#000000;stroke-width:1;stroke-linecap:round;stroke-linejoin:round;stroke-miterlimit:10;stroke-opacity:1;stroke-dasharray:none"
                     id="path336"
                     inkscape:connector-curvature="0" /></g><path
                   d="m 558.5,166.5 7,0 0,-29 -7,0 0,29 z"
                   style="fill:#bfbfbf;fill-opacity:1;fill-rule:nonzero;stroke:none"
                   id="path338"
                   inkscape:connector-curvature="0" /><g
                   id="g340"
                   transform="matrix(1,0,0,-1,11.5,281.5)"><path
                     d="m 547,115 7,0 0,29 -7,0 0,-29 z"
                     style="fill:none;stroke:#000000;stroke-width:1;stroke-linecap:round;stroke-linejoin:round;stroke-miterlimit:10;stroke-opacity:1;stroke-dasharray:none"
                     id="path342"
                     inkscape:connector-curvature="0" /></g><path
                   d="m 580.5,166.5 7,0 0,-29 -7,0 0,29 z"
                   style="fill:#bfbfbf;fill-opacity:1;fill-rule:nonzero;stroke:none"
                   id="path344"
                   inkscape:connector-curvature="0" /><g
                   id="g346"
                   transform="matrix(1,0,0,-1,11.5,281.5)"><path
                     d="m 569,115 7,0 0,29 -7,0 0,-29 z"
                     style="fill:none;stroke:#000000;stroke-width:1;stroke-linecap:round;stroke-linejoin:round;stroke-miterlimit:10;stroke-opacity:1;stroke-dasharray:none"
                     id="path348"
                     inkscape:connector-curvature="0" /></g><path
                   d="m 486.5,123.5 119,0 0,-29 -119,0 0,29 z"
                   style="fill:#ebebeb;fill-opacity:1;fill-rule:nonzero;stroke:none"
                   id="path350"
                   inkscape:connector-curvature="0" /><g
                   id="g352"
                   transform="matrix(1,0,0,-1,11.5,281.5)"><path
                     d="m 475,158 119,0 0,29 -119,0 0,-29 z"
                     style="fill:none;stroke:#000000;stroke-width:1;stroke-linecap:round;stroke-linejoin:round;stroke-miterlimit:10;stroke-opacity:1;stroke-dasharray:none"
                     id="path354"
                     inkscape:connector-curvature="0" /></g><path
                   d="m 508.5,123.5 7,0 0,-29 -7,0 0,29 z"
                   style="fill:#bfbfbf;fill-opacity:1;fill-rule:nonzero;stroke:none"
                   id="path356"
                   inkscape:connector-curvature="0" /><g
                   id="g358"
                   transform="matrix(1,0,0,-1,11.5,281.5)"><path
                     d="m 497,158 7,0 0,29 -7,0 0,-29 z"
                     style="fill:none;stroke:#000000;stroke-width:1;stroke-linecap:round;stroke-linejoin:round;stroke-miterlimit:10;stroke-opacity:1;stroke-dasharray:none"
                     id="path360"
                     inkscape:connector-curvature="0" /></g><path
                   d="m 533.5,123.5 7,0 0,-29 -7,0 0,29 z"
                   style="fill:#bfbfbf;fill-opacity:1;fill-rule:nonzero;stroke:none"
                   id="path362"
                   inkscape:connector-curvature="0" /><g
                   id="g364"
                   transform="matrix(1,0,0,-1,11.5,281.5)"><path
                     d="m 522,158 7,0 0,29 -7,0 0,-29 z"
                     style="fill:none;stroke:#000000;stroke-width:1;stroke-linecap:round;stroke-linejoin:round;stroke-miterlimit:10;stroke-opacity:1;stroke-dasharray:none"
                     id="path366"
                     inkscape:connector-curvature="0" /></g><path
                   d="m 558.5,123.5 7,0 0,-29 -7,0 0,29 z"
                   style="fill:#bfbfbf;fill-opacity:1;fill-rule:nonzero;stroke:none"
                   id="path368"
                   inkscape:connector-curvature="0" /><g
                   id="g370"
                   transform="matrix(1,0,0,-1,11.5,281.5)"><path
                     d="m 547,158 7,0 0,29 -7,0 0,-29 z"
                     style="fill:none;stroke:#000000;stroke-width:1;stroke-linecap:round;stroke-linejoin:round;stroke-miterlimit:10;stroke-opacity:1;stroke-dasharray:none"
                     id="path372"
                     inkscape:connector-curvature="0" /></g><path
                   d="m 580.5,123.5 7,0 0,-29 -7,0 0,29 z"
                   style="fill:#bfbfbf;fill-opacity:1;fill-rule:nonzero;stroke:none"
                   id="path374"
                   inkscape:connector-curvature="0" /><g
                   id="g376"
                   transform="matrix(1,0,0,-1,11.5,281.5)"><path
                     d="m 569,158 7,0 0,29 -7,0 0,-29 z"
                     style="fill:none;stroke:#000000;stroke-width:1;stroke-linecap:round;stroke-linejoin:round;stroke-miterlimit:10;stroke-opacity:1;stroke-dasharray:none"
                     id="path378"
                     inkscape:connector-curvature="0" /></g><path
                   d="m 486.5,80.5 119,0 0,-29 -119,0 0,29 z"
                   style="fill:#ebebeb;fill-opacity:1;fill-rule:nonzero;stroke:none"
                   id="path380"
                   inkscape:connector-curvature="0" /><g
                   id="g382"
                   transform="matrix(1,0,0,-1,11.5,281.5)"><path
                     d="m 475,201 119,0 0,29 -119,0 0,-29 z"
                     style="fill:none;stroke:#000000;stroke-width:1;stroke-linecap:round;stroke-linejoin:round;stroke-miterlimit:10;stroke-opacity:1;stroke-dasharray:none"
                     id="path384"
                     inkscape:connector-curvature="0" /></g><path
                   d="m 508.5,80.5 7,0 0,-29 -7,0 0,29 z"
                   style="fill:#bfbfbf;fill-opacity:1;fill-rule:nonzero;stroke:none"
                   id="path386"
                   inkscape:connector-curvature="0" /><g
                   id="g388"
                   transform="matrix(1,0,0,-1,11.5,281.5)"><path
                     d="m 497,201 7,0 0,29 -7,0 0,-29 z"
                     style="fill:none;stroke:#000000;stroke-width:1;stroke-linecap:round;stroke-linejoin:round;stroke-miterlimit:10;stroke-opacity:1;stroke-dasharray:none"
                     id="path390"
                     inkscape:connector-curvature="0" /></g><path
                   d="m 533.5,80.5 7,0 0,-29 -7,0 0,29 z"
                   style="fill:#bfbfbf;fill-opacity:1;fill-rule:nonzero;stroke:none"
                   id="path392"
                   inkscape:connector-curvature="0" /><g
                   id="g394"
                   transform="matrix(1,0,0,-1,11.5,281.5)"><path
                     d="m 522,201 7,0 0,29 -7,0 0,-29 z"
                     style="fill:none;stroke:#000000;stroke-width:1;stroke-linecap:round;stroke-linejoin:round;stroke-miterlimit:10;stroke-opacity:1;stroke-dasharray:none"
                     id="path396"
                     inkscape:connector-curvature="0" /></g><path
                   d="m 558.5,80.5 7,0 0,-29 -7,0 0,29 z"
                   style="fill:#bfbfbf;fill-opacity:1;fill-rule:nonzero;stroke:none"
                   id="path398"
                   inkscape:connector-curvature="0" /><g
                   id="g400"
                   transform="matrix(1,0,0,-1,11.5,281.5)"><path
                     d="m 547,201 7,0 0,29 -7,0 0,-29 z"
                     style="fill:none;stroke:#000000;stroke-width:1;stroke-linecap:round;stroke-linejoin:round;stroke-miterlimit:10;stroke-opacity:1;stroke-dasharray:none"
                     id="path402"
                     inkscape:connector-curvature="0" /></g><path
                   d="m 580.5,80.5 7,0 0,-29 -7,0 0,29 z"
                   style="fill:#bfbfbf;fill-opacity:1;fill-rule:nonzero;stroke:none"
                   id="path404"
                   inkscape:connector-curvature="0" /><g
                   id="g406"
                   transform="matrix(1,0,0,-1,11.5,281.5)"><path
                     d="m 569,201 7,0 0,29 -7,0 0,-29 z"
                     style="fill:none;stroke:#000000;stroke-width:1;stroke-linecap:round;stroke-linejoin:round;stroke-miterlimit:10;stroke-opacity:1;stroke-dasharray:none"
                     id="path408"
                     inkscape:connector-curvature="0" /></g><g
                   id="g410"
                   transform="matrix(1,0,0,-1,59,21.375)"><text
                     transform="translate(-11.499512,8)"
                     id="text412"><tspan
                       style="font-size:18px;font-variant:normal;font-weight:normal;writing-mode:lr-tb;fill:#000000;fill-opacity:1;fill-rule:nonzero;stroke:none;font-family:Helvetica;-inkscape-font-specification:Helvetica"
                       x="0 5.994 16.002001"
                       y="0"
                       sodipodi:role="line"
                       id="tspan414">(a)</tspan></text>
</g><g
                   id="g416"
                   transform="matrix(1,0,0,-1,203.5,21.375)"><text
                     transform="translate(-11.499512,8)"
                     id="text418"><tspan
                       style="font-size:18px;font-variant:normal;font-weight:normal;writing-mode:lr-tb;fill:#000000;fill-opacity:1;fill-rule:nonzero;stroke:none;font-family:Helvetica;-inkscape-font-specification:Helvetica"
                       x="0 5.994 16.002001"
                       y="0"
                       sodipodi:role="line"
                       id="tspan420">(b)</tspan></text>
</g><g
                   id="g422"
                   transform="matrix(1,0,0,-1,380,21.375)"><text
                     transform="translate(-10.994141,8)"
                     id="text424"><tspan
                       style="font-size:18px;font-variant:normal;font-weight:normal;writing-mode:lr-tb;fill:#000000;fill-opacity:1;fill-rule:nonzero;stroke:none;font-family:Helvetica;-inkscape-font-specification:Helvetica"
                       x="0 5.994 14.994"
                       y="0"
                       sodipodi:role="line"
                       id="tspan426">(c)</tspan></text>
</g><g
                   id="g428"
                   transform="matrix(1,0,0,-1,546,21.375)"><text
                     transform="translate(-11.499512,8)"
                     id="text430"><tspan
                       style="font-size:18px;font-variant:normal;font-weight:normal;writing-mode:lr-tb;fill:#000000;fill-opacity:1;fill-rule:nonzero;stroke:none;font-family:Helvetica;-inkscape-font-specification:Helvetica"
                       x="0 5.994 16.002001"
                       y="0"
                       sodipodi:role="line"
                       id="tspan432">(d)</tspan></text>
</g></g></g></g></g></g></g></g></svg>