<?xml version="1.0" encoding="UTF-8" standalone="no"?>
<!-- Created with Inkscape (http://www.inkscape.org/) -->

<svg
   xmlns:dc="http://purl.org/dc/elements/1.1/"
   xmlns:cc="http://creativecommons.org/ns#"
   xmlns:rdf="http://www.w3.org/1999/02/22-rdf-syntax-ns#"
   xmlns:svg="http://www.w3.org/2000/svg"
   xmlns="http://www.w3.org/2000/svg"
   xmlns:sodipodi="http://sodipodi.sourceforge.net/DTD/sodipodi-0.dtd"
   xmlns:inkscape="http://www.inkscape.org/namespaces/inkscape"
   id="svg2"
   version="1.1"
   inkscape:version="0.48.5 r10040"
   width="396.45625"
   height="388.29375"
   xml:space="preserve"
   sodipodi:docname="ring_reduction.pdf"><metadata
     id="metadata8"><rdf:RDF><cc:Work
         rdf:about=""><dc:format>image/svg+xml</dc:format><dc:type
           rdf:resource="http://purl.org/dc/dcmitype/StillImage" /><dc:title></dc:title></cc:Work></rdf:RDF></metadata><defs
     id="defs6" /><sodipodi:namedview
     pagecolor="#ffffff"
     bordercolor="#666666"
     borderopacity="1"
     objecttolerance="10"
     gridtolerance="10"
     guidetolerance="10"
     inkscape:pageopacity="0"
     inkscape:pageshadow="2"
     inkscape:window-width="640"
     inkscape:window-height="480"
     id="namedview4"
     showgrid="false"
     inkscape:zoom="0.60778726"
     inkscape:cx="198.22812"
     inkscape:cy="194.14688"
     inkscape:window-x="465"
     inkscape:window-y="186"
     inkscape:window-maximized="0"
     inkscape:current-layer="g10" /><g
     id="g10"
     inkscape:groupmode="layer"
     inkscape:label="ring_reduction"
     transform="matrix(1.25,0,0,-1.25,198.805,208.18625)"><g
       id="g12"><g
         id="g14"><g
           id="g16"><g
             id="g18"><path
               d="m 122.09497,0 c 0,4.80917 -3.89851,8.70769 -8.70769,8.70769 -4.80918,0 -8.7077,-3.89852 -8.7077,-8.70769 0,-4.80917 3.89852,-8.70769 8.7077,-8.70769 4.80918,0 8.70769,3.89852 8.70769,8.70769 z"
               style="fill:none;stroke:#000000;stroke-opacity:1;stroke-width:1.19553;stroke-linecap:butt;stroke-linejoin:miter;stroke-miterlimit:10;stroke-dasharray:none"
               id="path20" /></g><g
             id="g22"
             transform="translate(110.895,-3.21)"><g
               id="g24"><g
                 id="g26"
                 transform="translate(-269.939,-140.876)"><text
                   transform="matrix(1,0,0,-1,269.939,140.876)"
                   id="text28"><tspan
                     style="fill:#000000;fill-opacity:1;fill-rule:nonzero;stroke:none;font-family:CMR10;font-variant:normal;font-weight:normal;font-size:9.9626;writing-mode:lr;-inkscape-font-specification:CMR10"
                     x="0"
                     y="0"
                     id="tspan30">1</tspan></text>
<g
                   id="g32"
                   transform="translate(269.939,140.876)" /></g></g><g
               id="g34"
               transform="translate(-110.895,3.21)" /></g></g><g
           id="g36"><path
             d="m 112.28343,15.78072 c -2.67619,19.0417 -10.15489,37.10115 -21.72726,52.45822"
             style="fill:none;stroke:#000000;stroke-opacity:1;stroke-width:1.59404;stroke-linecap:butt;stroke-linejoin:miter;stroke-miterlimit:10;stroke-dasharray:none"
             id="path38" /></g><g
           id="g40"><g
             id="g42"><path
               d="m 88.88469,80.17699 c 0,4.80917 -3.89853,8.7077 -8.7077,8.7077 -4.80918,0 -8.70769,-3.89853 -8.70769,-8.7077 0,-4.80918 3.89851,-8.70769 8.70769,-8.70769 4.80917,0 8.7077,3.89851 8.7077,8.70769 z"
               style="fill:none;stroke:#000000;stroke-opacity:1;stroke-width:1.19553;stroke-linecap:butt;stroke-linejoin:miter;stroke-miterlimit:10;stroke-dasharray:none"
               id="path44" /></g><g
             id="g46"
             transform="translate(77.685,76.966)"><g
               id="g48"><g
                 id="g50"
                 transform="translate(-236.729,-221.052)"><text
                   transform="matrix(1,0,0,-1,236.729,221.052)"
                   id="text52"><tspan
                     style="fill:#000000;fill-opacity:1;fill-rule:nonzero;stroke:none;font-family:CMR10;font-variant:normal;font-weight:normal;font-size:9.9626;writing-mode:lr;-inkscape-font-specification:CMR10"
                     x="0"
                     y="0"
                     id="tspan54">2</tspan></text>
<g
                   id="g56"
                   transform="translate(236.729,221.052)" /></g></g><g
               id="g58"
               transform="translate(-77.685,-76.966)" /></g></g><g
           id="g60"><path
             d="M 68.23894,90.55617 C 52.88187,102.12854 34.82242,109.60724 15.78072,112.28343"
             style="fill:none;stroke:#000000;stroke-opacity:1;stroke-width:1.59404;stroke-linecap:butt;stroke-linejoin:miter;stroke-miterlimit:10;stroke-dasharray:none"
             id="path62" /></g><g
           id="g64"><g
             id="g66"><path
               d="m 8.70769,113.38728 c 0,4.80918 -3.89852,8.70769 -8.70769,8.70769 -4.80917,0 -8.70769,-3.89851 -8.70769,-8.70769 0,-4.80918 3.89852,-8.7077 8.70769,-8.7077 4.80917,0 8.70769,3.89852 8.70769,8.7077 z"
               style="fill:none;stroke:#000000;stroke-opacity:1;stroke-width:1.19553;stroke-linecap:butt;stroke-linejoin:miter;stroke-miterlimit:10;stroke-dasharray:none"
               id="path68" /></g><g
             id="g70"
             transform="translate(-2.491,110.175)"><g
               id="g72"><g
                 id="g74"
                 transform="translate(-156.553,-254.261)"><text
                   transform="matrix(1,0,0,-1,156.553,254.261)"
                   id="text76"><tspan
                     style="fill:#000000;fill-opacity:1;fill-rule:nonzero;stroke:none;font-family:CMR10;font-variant:normal;font-weight:normal;font-size:9.9626;writing-mode:lr;-inkscape-font-specification:CMR10"
                     x="0"
                     y="0"
                     id="tspan78">3</tspan></text>
<g
                   id="g80"
                   transform="translate(156.553,254.261)" /></g></g><g
               id="g82"
               transform="translate(2.491,-110.175)" /></g></g><g
           id="g84"><path
             d="m -15.78072,112.28343 c -19.0417,-2.67619 -37.10115,-10.15489 -52.45822,-21.72726"
             style="fill:none;stroke:#000000;stroke-opacity:1;stroke-width:1.59404;stroke-linecap:butt;stroke-linejoin:miter;stroke-miterlimit:10;stroke-dasharray:none"
             id="path86" /></g><g
           id="g88"><g
             id="g90"><path
               d="m -71.4693,80.17699 c 0,4.80917 -3.89851,8.7077 -8.70769,8.7077 -4.80917,0 -8.7077,-3.89853 -8.7077,-8.7077 0,-4.80918 3.89853,-8.70769 8.7077,-8.70769 4.80918,0 8.70769,3.89851 8.70769,8.70769 z"
               style="fill:none;stroke:#000000;stroke-opacity:1;stroke-width:1.19553;stroke-linecap:butt;stroke-linejoin:miter;stroke-miterlimit:10;stroke-dasharray:none"
               id="path92" /></g><g
             id="g94"
             transform="translate(-82.667,76.966)"><g
               id="g96"><g
                 id="g98"
                 transform="translate(-76.377,-221.052)"><text
                   transform="matrix(1,0,0,-1,76.377,221.052)"
                   id="text100"><tspan
                     style="fill:#000000;fill-opacity:1;fill-rule:nonzero;stroke:none;font-family:CMR10;font-variant:normal;font-weight:normal;font-size:9.9626;writing-mode:lr;-inkscape-font-specification:CMR10"
                     x="0"
                     y="0"
                     id="tspan102">4</tspan></text>
<g
                   id="g104"
                   transform="translate(76.377,221.052)" /></g></g><g
               id="g106"
               transform="translate(82.667,-76.966)" /></g></g><g
           id="g108"><path
             d="M -90.55617,68.23894 C -102.12854,52.88187 -109.60724,34.82242 -112.28343,15.78072"
             style="fill:none;stroke:#000000;stroke-opacity:1;stroke-width:1.59404;stroke-linecap:butt;stroke-linejoin:miter;stroke-miterlimit:10;stroke-dasharray:none"
             id="path110" /></g><g
           id="g112"><g
             id="g114"><path
               d="m -104.67958,0 c 0,4.80917 -3.89852,8.70769 -8.7077,8.70769 -4.80918,0 -8.70769,-3.89852 -8.70769,-8.70769 0,-4.80917 3.89851,-8.70769 8.70769,-8.70769 4.80918,0 8.7077,3.89852 8.7077,8.70769 z"
               style="fill:none;stroke:#000000;stroke-opacity:1;stroke-width:1.19553;stroke-linecap:butt;stroke-linejoin:miter;stroke-miterlimit:10;stroke-dasharray:none"
               id="path116" /></g><g
             id="g118"
             transform="translate(-115.876,-3.21)"><g
               id="g120"><g
                 id="g122"
                 transform="translate(-43.168,-140.876)"><text
                   transform="matrix(1,0,0,-1,43.168,140.876)"
                   id="text124"><tspan
                     style="fill:#000000;fill-opacity:1;fill-rule:nonzero;stroke:none;font-family:CMR10;font-variant:normal;font-weight:normal;font-size:9.9626;writing-mode:lr;-inkscape-font-specification:CMR10"
                     x="0"
                     y="0"
                     id="tspan126">5</tspan></text>
<g
                   id="g128"
                   transform="translate(43.168,140.876)" /></g></g><g
               id="g130"
               transform="translate(115.876,3.21)" /></g></g><g
           id="g132"><path
             d="m -112.28343,-15.78072 c 2.67619,-19.0417 10.15489,-37.10115 21.72726,-52.45822"
             style="fill:none;stroke:#000000;stroke-opacity:1;stroke-width:1.59404;stroke-linecap:butt;stroke-linejoin:miter;stroke-miterlimit:10;stroke-dasharray:none"
             id="path134" /></g><g
           id="g136"><g
             id="g138"><path
               d="m -71.4693,-80.17699 c 0,4.80918 -3.89851,8.70769 -8.70769,8.70769 -4.80917,0 -8.7077,-3.89851 -8.7077,-8.70769 0,-4.80917 3.89853,-8.7077 8.7077,-8.7077 4.80918,0 8.70769,3.89853 8.70769,8.7077 z"
               style="fill:none;stroke:#000000;stroke-opacity:1;stroke-width:1.19553;stroke-linecap:butt;stroke-linejoin:miter;stroke-miterlimit:10;stroke-dasharray:none"
               id="path140" /></g><g
             id="g142"
             transform="translate(-82.667,-83.386)"><g
               id="g144"><g
                 id="g146"
                 transform="translate(-76.377,-60.7)"><text
                   transform="matrix(1,0,0,-1,76.377,60.7)"
                   id="text148"><tspan
                     style="fill:#000000;fill-opacity:1;fill-rule:nonzero;stroke:none;font-family:CMR10;font-variant:normal;font-weight:normal;font-size:9.9626;writing-mode:lr;-inkscape-font-specification:CMR10"
                     x="0"
                     y="0"
                     id="tspan150">6</tspan></text>
<g
                   id="g152"
                   transform="translate(76.377,60.7)" /></g></g><g
               id="g154"
               transform="translate(82.667,83.386)" /></g></g><g
           id="g156"><path
             d="m -68.23894,-90.55617 c 15.35707,-11.57237 33.41652,-19.05107 52.45822,-21.72726"
             style="fill:none;stroke:#000000;stroke-opacity:1;stroke-width:1.59404;stroke-linecap:butt;stroke-linejoin:miter;stroke-miterlimit:10;stroke-dasharray:none"
             id="path158" /></g><g
           id="g160"><g
             id="g162"><path
               d="m 8.70769,-113.38728 c 0,4.80918 -3.89852,8.7077 -8.70769,8.7077 -4.80917,0 -8.70769,-3.89852 -8.70769,-8.7077 0,-4.80918 3.89852,-8.70769 8.70769,-8.70769 4.80917,0 8.70769,3.89851 8.70769,8.70769 z"
               style="fill:none;stroke:#000000;stroke-opacity:1;stroke-width:1.19553;stroke-linecap:butt;stroke-linejoin:miter;stroke-miterlimit:10;stroke-dasharray:none"
               id="path164" /></g><g
             id="g166"
             transform="translate(-2.491,-116.596)"><g
               id="g168"><g
                 id="g170"
                 transform="translate(-156.553,-27.49)"><text
                   transform="matrix(1,0,0,-1,156.553,27.49)"
                   id="text172"><tspan
                     style="fill:#000000;fill-opacity:1;fill-rule:nonzero;stroke:none;font-family:CMR10;font-variant:normal;font-weight:normal;font-size:9.9626;writing-mode:lr;-inkscape-font-specification:CMR10"
                     x="0"
                     y="0"
                     id="tspan174">7</tspan></text>
<g
                   id="g176"
                   transform="translate(156.553,27.49)" /></g></g><g
               id="g178"
               transform="translate(2.491,116.596)" /></g></g><g
           id="g180"><path
             d="m 15.78072,-112.28343 c 19.0417,2.67619 37.10115,10.15489 52.45822,21.72726"
             style="fill:none;stroke:#000000;stroke-opacity:1;stroke-width:1.59404;stroke-linecap:butt;stroke-linejoin:miter;stroke-miterlimit:10;stroke-dasharray:none"
             id="path182" /></g><g
           id="g184"><g
             id="g186"><path
               d="m 88.88469,-80.17699 c 0,4.80918 -3.89853,8.70769 -8.7077,8.70769 -4.80918,0 -8.70769,-3.89851 -8.70769,-8.70769 0,-4.80917 3.89851,-8.7077 8.70769,-8.7077 4.80917,0 8.7077,3.89853 8.7077,8.7077 z"
               style="fill:none;stroke:#000000;stroke-opacity:1;stroke-width:1.19553;stroke-linecap:butt;stroke-linejoin:miter;stroke-miterlimit:10;stroke-dasharray:none"
               id="path188" /></g><g
             id="g190"
             transform="translate(77.685,-83.386)"><g
               id="g192"><g
                 id="g194"
                 transform="translate(-236.729,-60.7)"><text
                   transform="matrix(1,0,0,-1,236.729,60.7)"
                   id="text196"><tspan
                     style="fill:#000000;fill-opacity:1;fill-rule:nonzero;stroke:none;font-family:CMR10;font-variant:normal;font-weight:normal;font-size:9.9626;writing-mode:lr;-inkscape-font-specification:CMR10"
                     x="0"
                     y="0"
                     id="tspan198">8</tspan></text>
<g
                   id="g200"
                   transform="translate(236.729,60.7)" /></g></g><g
               id="g202"
               transform="translate(-77.685,83.386)" /></g></g><g
           id="g204"><path
             d="m 90.55617,-68.23894 c 11.57237,15.35707 19.05107,33.41652 21.72726,52.45822"
             style="fill:none;stroke:#000000;stroke-opacity:1;stroke-width:1.59404;stroke-linecap:butt;stroke-linejoin:miter;stroke-miterlimit:10;stroke-dasharray:none"
             id="path206" /></g><g
           id="g208"><path
             d="M 125.66997,22.37074 C 123.30817,39.17522 114.8946,59.49211 101.8757,76.76881"
             style="fill:none;stroke:#000000;stroke-opacity:1;stroke-width:0.79701;stroke-linecap:butt;stroke-linejoin:miter;stroke-miterlimit:10;stroke-dasharray:none"
             id="path210" /><g
             id="g212"
             transform="matrix(0.13918,-0.99034,0.99034,0.13918,125.66995,22.37076)"><g
               id="g214"><path
                 d="M 4.66248,0 C 3.28098,0.25902 1.0361,1.0361 -0.51805,1.94269 l 0,-3.88538 C 1.0361,-1.0361 3.28098,-0.25902 4.66248,0"
                 style="fill:#000000;fill-opacity:1;fill-rule:nonzero;stroke:none"
                 id="path216" /></g></g></g><g
           id="g218"><path
             d="M -22.37074,125.66997 C -39.17522,123.30817 -59.49211,114.8946 -76.76881,101.8757"
             style="fill:none;stroke:#000000;stroke-opacity:1;stroke-width:0.79701;stroke-linecap:butt;stroke-linejoin:miter;stroke-miterlimit:10;stroke-dasharray:none"
             id="path220" /><g
             id="g222"
             transform="matrix(0.99034,0.13918,-0.13918,0.99034,-22.37076,125.66995)"><g
               id="g224"><path
                 d="M 4.66248,0 C 3.28098,0.25902 1.0361,1.0361 -0.51805,1.94269 l 0,-3.88538 C 1.0361,-1.0361 3.28098,-0.25902 4.66248,0"
                 style="fill:#000000;fill-opacity:1;fill-rule:nonzero;stroke:none"
                 id="path226" /></g></g></g><g
           id="g228"><path
             d="m -125.66997,-22.37074 c 2.3618,-16.80448 10.77537,-37.12137 23.79427,-54.39807"
             style="fill:none;stroke:#000000;stroke-opacity:1;stroke-width:0.79701;stroke-linecap:butt;stroke-linejoin:miter;stroke-miterlimit:10;stroke-dasharray:none"
             id="path230" /><g
             id="g232"
             transform="matrix(-0.13918,0.99034,-0.99034,-0.13918,-125.66995,-22.37076)"><g
               id="g234"><path
                 d="M 4.66248,0 C 3.28098,0.25902 1.0361,1.0361 -0.51805,1.94269 l 0,-3.88538 C 1.0361,-1.0361 3.28098,-0.25902 4.66248,0"
                 style="fill:#000000;fill-opacity:1;fill-rule:nonzero;stroke:none"
                 id="path236" /></g></g></g><g
           id="g238"><path
             d="m 22.37074,-125.66997 c 16.80448,2.3618 37.12137,10.77537 54.39807,23.79427"
             style="fill:none;stroke:#000000;stroke-opacity:1;stroke-width:0.79701;stroke-linecap:butt;stroke-linejoin:miter;stroke-miterlimit:10;stroke-dasharray:none"
             id="path240" /><g
             id="g242"
             transform="matrix(-0.99034,-0.13918,0.13918,-0.99034,22.37076,-125.66995)"><g
               id="g244"><path
                 d="M 4.66248,0 C 3.28098,0.25902 1.0361,1.0361 -0.51805,1.94269 l 0,-3.88538 C 1.0361,-1.0361 3.28098,-0.25902 4.66248,0"
                 style="fill:#000000;fill-opacity:1;fill-rule:nonzero;stroke:none"
                 id="path246" /></g></g></g><g
           id="g248"><path
             d="M 139.70532,24.34332 C 131.55476,82.33661 82.33661,131.55476 19.72588,140.3543"
             style="fill:none;stroke:#000000;stroke-opacity:1;stroke-width:0.79701;stroke-linecap:butt;stroke-linejoin:miter;stroke-miterlimit:10;stroke-dasharray:none"
             id="path250" /><g
             id="g252"
             transform="matrix(0.13919,-0.99034,0.99034,0.13919,139.70532,24.34334)"><g
               id="g254"><path
                 d="M 4.66248,0 C 3.28098,0.25902 1.0361,1.0361 -0.51805,1.94269 l 0,-3.88538 C 1.0361,-1.0361 3.28098,-0.25902 4.66248,0"
                 style="fill:#000000;fill-opacity:1;fill-rule:nonzero;stroke:none"
                 id="path256" /></g></g></g><g
           id="g258"><path
             d="m -139.70532,-24.34332 c 8.15056,-57.99329 57.36871,-107.21144 119.97944,-116.01098"
             style="fill:none;stroke:#000000;stroke-opacity:1;stroke-width:0.79701;stroke-linecap:butt;stroke-linejoin:miter;stroke-miterlimit:10;stroke-dasharray:none"
             id="path260" /><g
             id="g262"
             transform="matrix(-0.13919,0.99034,-0.99034,-0.13919,-139.70532,-24.34334)"><g
               id="g264"><path
                 d="M 4.66248,0 C 3.28098,0.25902 1.0361,1.0361 -0.51805,1.94269 l 0,-3.88538 C 1.0361,-1.0361 3.28098,-0.25902 4.66248,0"
                 style="fill:#000000;fill-opacity:1;fill-rule:nonzero;stroke:none"
                 id="path266" /></g></g></g><g
           id="g268"><path
             d="M -155.31276,13.5886 C -147.80788,99.36655 -72.18933,162.81764 13.5886,155.31276 85.89615,148.98643 144.28777,93.5763 153.74083,26.3159"
             style="fill:none;stroke:#000000;stroke-opacity:1;stroke-width:0.79701;stroke-linecap:butt;stroke-linejoin:miter;stroke-miterlimit:10;stroke-dasharray:none"
             id="path270" /><g
             id="g272"
             transform="matrix(0.13918,-0.99034,0.99034,0.13918,153.74081,26.31592)"><g
               id="g274"><path
                 d="M 4.66248,0 C 3.28098,0.25902 1.0361,1.0361 -0.51805,1.94269 l 0,-3.88538 C 1.0361,-1.0361 3.28098,-0.25902 4.66248,0"
                 style="fill:#000000;fill-opacity:1;fill-rule:nonzero;stroke:none"
                 id="path276" /></g></g></g><g
           id="g278"><g
             id="g280" /><g
             id="g282"
             transform="translate(-0.462,11.231)"><g
               id="g284" /><g
               id="g286"
               transform="translate(0.462,-11.231)" /></g></g><g
           id="g288"><g
             id="g290"><path
               d="m -0.4615,11.23167 0,0 0,0 0,0 z"
               style="fill:none;stroke:#ffffff;stroke-opacity:1;stroke-width:1.25;stroke-linecap:butt;stroke-linejoin:miter;stroke-miterlimit:10;stroke-dasharray:none"
               id="path292" /></g><g
             id="g294"
             transform="translate(-0.462,11.231)"><g
               id="g296" /><g
               id="g298"
               transform="translate(0.462,-11.231)" /></g></g></g></g></g></svg>