<?xml version="1.0" encoding="UTF-8" standalone="no"?>
<!-- Created with Inkscape (http://www.inkscape.org/) -->

<svg
   xmlns:dc="http://purl.org/dc/elements/1.1/"
   xmlns:cc="http://creativecommons.org/ns#"
   xmlns:rdf="http://www.w3.org/1999/02/22-rdf-syntax-ns#"
   xmlns:svg="http://www.w3.org/2000/svg"
   xmlns="http://www.w3.org/2000/svg"
   xmlns:sodipodi="http://sodipodi.sourceforge.net/DTD/sodipodi-0.dtd"
   xmlns:inkscape="http://www.inkscape.org/namespaces/inkscape"
   version="1.1"
   width="359.68304"
   height="174.33456"
   id="svg2985"
   xml:space="preserve"
   inkscape:version="0.48.5 r10040"
   sodipodi:docname="shared_dist_proc.svg"><sodipodi:namedview
     pagecolor="#ffffff"
     bordercolor="#666666"
     borderopacity="1"
     objecttolerance="10"
     gridtolerance="10"
     guidetolerance="10"
     inkscape:pageopacity="0"
     inkscape:pageshadow="2"
     inkscape:window-width="2560"
     inkscape:window-height="1377"
     id="namedview189"
     showgrid="false"
     fit-margin-top="0"
     fit-margin-left="0"
     fit-margin-right="0"
     fit-margin-bottom="0"
     inkscape:zoom="3.1777977"
     inkscape:cx="142.55156"
     inkscape:cy="87.856387"
     inkscape:window-x="-8"
     inkscape:window-y="-8"
     inkscape:window-maximized="1"
     inkscape:current-layer="svg2985" /><metadata
     id="metadata2991"><rdf:RDF><cc:Work
         rdf:about=""><dc:format>image/svg+xml</dc:format><dc:type
           rdf:resource="http://purl.org/dc/dcmitype/StillImage" /><dc:title /></cc:Work></rdf:RDF></metadata><defs
     id="defs2989"><clipPath
       id="clipPath3033"><path
         d="m 0,0 362.835,0 0,3.985 L 0,3.985 0,0 z"
         id="path3035"
         inkscape:connector-curvature="0" /></clipPath><linearGradient
       x1="0"
       y1="0"
       x2="0"
       y2="3.9851"
       id="linearGradient3037"
       gradientUnits="userSpaceOnUse"><stop
         id="stop3039"
         style="stop-color:#ffffff;stop-opacity:1"
         offset="0" /><stop
         id="stop3041"
         style="stop-color:#808080;stop-opacity:1"
         offset="1" /></linearGradient><clipPath
       id="clipPath3051"><path
         d="m 0,0 362.8394,0 0,19.67815 L 0,19.67815 0,0 z"
         id="path3053"
         inkscape:connector-curvature="0" /></clipPath><clipPath
       id="clipPath3065"><path
         d="m 0,0 362.835,0 0,272.126 L 0,272.126 0,0 z"
         id="path3067"
         inkscape:connector-curvature="0" /></clipPath><linearGradient
       x1="0"
       y1="0"
       x2="362.83939"
       y2="0"
       id="linearGradient3069"
       gradientUnits="userSpaceOnUse"><stop
         id="stop3071"
         style="stop-color:#3333b3;stop-opacity:1"
         offset="0" /><stop
         id="stop3073"
         style="stop-color:#000000;stop-opacity:1"
         offset="1" /></linearGradient><clipPath
       id="clipPath3089"><path
         d="m 0,0 362.835,0 0,3.985 L 0,3.985 0,0 z"
         id="path3091"
         inkscape:connector-curvature="0" /></clipPath><linearGradient
       x1="0"
       y1="0"
       x2="0"
       y2="3.9851"
       id="linearGradient3093"
       gradientUnits="userSpaceOnUse"><stop
         id="stop3095"
         style="stop-color:#ffffff;stop-opacity:1"
         offset="0" /><stop
         id="stop3097"
         style="stop-color:#808080;stop-opacity:1"
         offset="1" /></linearGradient><clipPath
       id="clipPath3113"><path
         d="M 0,0 769,0 769,374 0,374 0,0 z"
         id="path3115"
         inkscape:connector-curvature="0" /></clipPath></defs><g
     transform="matrix(0.4681375,0,0,-0.4681375,-37.067783,187.73945)"
     id="g3109"><g
       transform="translate(22.81532,65.594044)"
       id="g3117" /><g
       transform="translate(22.81532,65.594044)"
       id="g3119"><path
         d="m 487.78511,323.52383 72,0 0,-72 -72,0 0,72 z"
         id="path3123"
         style="fill:#f5f5f5;fill-opacity:1;fill-rule:nonzero;stroke:none"
         inkscape:connector-curvature="0" /><g
         transform="matrix(1,0,0,-1,42.785108,359.52383)"
         id="g3125"><path
           d="m 445,36 72,0 0,72 -72,0 0,-72 z"
           id="path3127"
           style="fill:none;stroke:#000000;stroke-width:1;stroke-linecap:round;stroke-linejoin:round;stroke-miterlimit:1;stroke-opacity:1;stroke-dasharray:none"
           inkscape:connector-curvature="0" /></g><g
         transform="matrix(1,0,0,-1,523.78511,287.52383)"
         id="g3129"><text
   transform="translate(-11.330078,6.5)"
   id="text3131"><tspan
     x="0"
     y="0"
     id="tspan3133"
     style="font-size:24px;font-style:italic;font-variant:normal;font-weight:bold;writing-mode:lr-tb;fill:#000000;fill-opacity:1;fill-rule:nonzero;stroke:none;font-family:Times New Roman;-inkscape-font-specification:TimesNewRomanPS-BoldItalicMT">P</tspan></text>



</g><g
         transform="matrix(1,0,0,-1,523.78511,287.52383)"
         id="g3135"><text
   transform="translate(3.3300781,12.5)"
   id="text3137"><tspan
     x="0"
     y="0"
     id="tspan3139"
     style="font-size:14px;font-variant:normal;font-weight:bold;writing-mode:lr-tb;fill:#000000;fill-opacity:1;fill-rule:nonzero;stroke:none;font-family:Times New Roman;-inkscape-font-specification:TimesNewRomanPS-BoldMT">0</tspan></text>



</g><path
         d="m 594.78511,323.52383 72,0 0,-72 -72,0 0,72 z"
         id="path3141"
         style="fill:#f5f5f5;fill-opacity:1;fill-rule:nonzero;stroke:none"
         inkscape:connector-curvature="0" /><g
         transform="matrix(1,0,0,-1,42.785108,359.52383)"
         id="g3143"><path
           d="m 552,36 72,0 0,72 -72,0 0,-72 z"
           id="path3145"
           style="fill:none;stroke:#000000;stroke-width:1;stroke-linecap:round;stroke-linejoin:round;stroke-miterlimit:1;stroke-opacity:1;stroke-dasharray:none"
           inkscape:connector-curvature="0" /></g><g
         transform="matrix(1,0,0,-1,630.78511,287.52383)"
         id="g3147"><text
   transform="translate(-11.330078,6.5)"
   id="text3149"><tspan
     x="0"
     y="0"
     id="tspan3151"
     style="font-size:24px;font-style:italic;font-variant:normal;font-weight:bold;writing-mode:lr-tb;fill:#000000;fill-opacity:1;fill-rule:nonzero;stroke:none;font-family:Times New Roman;-inkscape-font-specification:TimesNewRomanPS-BoldItalicMT">P</tspan></text>



</g><g
         transform="matrix(1,0,0,-1,630.78511,287.52383)"
         id="g3153"><text
   transform="translate(3.3300781,12.5)"
   id="text3155"><tspan
     x="0"
     y="0"
     id="tspan3157"
     style="font-size:14px;font-variant:normal;font-weight:bold;writing-mode:lr-tb;fill:#000000;fill-opacity:1;fill-rule:nonzero;stroke:none;font-family:Times New Roman;-inkscape-font-specification:TimesNewRomanPS-BoldMT">1</tspan></text>



</g><path
         d="m 738.78511,323.52383 72,0 0,-72 -72,0 0,72 z"
         id="path3159"
         style="fill:#f5f5f5;fill-opacity:1;fill-rule:nonzero;stroke:none"
         inkscape:connector-curvature="0" /><g
         transform="matrix(1,0,0,-1,42.785108,359.52383)"
         id="g3161"><path
           d="m 696,36 72,0 0,72 -72,0 0,-72 z"
           id="path3163"
           style="fill:none;stroke:#000000;stroke-width:1;stroke-linecap:round;stroke-linejoin:round;stroke-miterlimit:10;stroke-opacity:1;stroke-dasharray:none"
           inkscape:connector-curvature="0" /></g><g
         transform="matrix(1,0,0,-1,774.78511,287.52383)"
         id="g3165"><text
   transform="translate(-12.885254,6.5)"
   id="text3167"><tspan
     x="0"
     y="0"
     id="tspan3169"
     style="font-size:24px;font-style:italic;font-variant:normal;font-weight:bold;writing-mode:lr-tb;fill:#000000;fill-opacity:1;fill-rule:nonzero;stroke:none;font-family:Times New Roman;-inkscape-font-specification:TimesNewRomanPS-BoldItalicMT">P</tspan></text>



</g><g
         transform="matrix(1,0,0,-1,774.78511,287.52383)"
         id="g3171"><text
   transform="translate(1.7749023,12.5)"
   id="text3173"><tspan
     x="0"
     y="0"
     id="tspan3175"
     style="font-size:14px;font-style:italic;font-variant:normal;font-weight:bold;writing-mode:lr-tb;fill:#000000;fill-opacity:1;fill-rule:nonzero;stroke:none;font-family:Times New Roman;-inkscape-font-specification:TimesNewRomanPS-BoldItalicMT">N</tspan></text>



</g><path
         d="m 487.78511,107.52383 72,0 0,-72.000001 -72,0 0,72.000001 z"
         id="path3177"
         style="fill:#f5f5f5;fill-opacity:1;fill-rule:nonzero;stroke:none"
         inkscape:connector-curvature="0" /><g
         transform="matrix(1,0,0,-1,42.785108,359.52383)"
         id="g3179"><path
           d="m 445,252 72,0 0,72 -72,0 0,-72 z"
           id="path3181"
           style="fill:none;stroke:#000000;stroke-width:1;stroke-linecap:round;stroke-linejoin:round;stroke-miterlimit:1;stroke-opacity:1;stroke-dasharray:none"
           inkscape:connector-curvature="0" /></g><g
         transform="matrix(1,0,0,-1,523.78511,71.523829)"
         id="g3183"><text
   transform="translate(-14.669922,6.5)"
   id="text3185"><tspan
     x="0"
     y="0"
     id="tspan3187"
     style="font-size:24px;font-style:italic;font-variant:normal;font-weight:bold;writing-mode:lr-tb;fill:#000000;fill-opacity:1;fill-rule:nonzero;stroke:none;font-family:Times New Roman;-inkscape-font-specification:TimesNewRomanPS-BoldItalicMT">M</tspan></text>



</g><g
         transform="matrix(1,0,0,-1,523.78511,71.523829)"
         id="g3189"><text
   transform="translate(6.6699219,12.5)"
   id="text3191"><tspan
     x="0"
     y="0"
     id="tspan3193"
     style="font-size:14px;font-variant:normal;font-weight:bold;writing-mode:lr-tb;fill:#000000;fill-opacity:1;fill-rule:nonzero;stroke:none;font-family:Times New Roman;-inkscape-font-specification:TimesNewRomanPS-BoldMT">0</tspan></text>



</g><path
         d="m 594.78511,107.52383 72,0 0,-72.000001 -72,0 0,72.000001 z"
         id="path3195"
         style="fill:#f5f5f5;fill-opacity:1;fill-rule:nonzero;stroke:none"
         inkscape:connector-curvature="0" /><g
         transform="matrix(1,0,0,-1,42.785108,359.52383)"
         id="g3197"><path
           d="m 552,252 72,0 0,72 -72,0 0,-72 z"
           id="path3199"
           style="fill:none;stroke:#000000;stroke-width:1;stroke-linecap:round;stroke-linejoin:round;stroke-miterlimit:1;stroke-opacity:1;stroke-dasharray:none"
           inkscape:connector-curvature="0" /></g><g
         transform="matrix(1,0,0,-1,630.78511,71.523829)"
         id="g3201"><text
   transform="translate(-14.669922,6.5)"
   id="text3203"><tspan
     x="0"
     y="0"
     id="tspan3205"
     style="font-size:24px;font-style:italic;font-variant:normal;font-weight:bold;writing-mode:lr-tb;fill:#000000;fill-opacity:1;fill-rule:nonzero;stroke:none;font-family:Times New Roman;-inkscape-font-specification:TimesNewRomanPS-BoldItalicMT">M</tspan></text>



</g><g
         transform="matrix(1,0,0,-1,630.78511,71.523829)"
         id="g3207"><text
   transform="translate(6.6699219,12.5)"
   id="text3209"><tspan
     x="0"
     y="0"
     id="tspan3211"
     style="font-size:14px;font-variant:normal;font-weight:bold;writing-mode:lr-tb;fill:#000000;fill-opacity:1;fill-rule:nonzero;stroke:none;font-family:Times New Roman;-inkscape-font-specification:TimesNewRomanPS-BoldMT">1</tspan></text>



</g><path
         d="m 738.78511,107.52383 72,0 0,-72.000001 -72,0 0,72.000001 z"
         id="path3213"
         style="fill:#f5f5f5;fill-opacity:1;fill-rule:nonzero;stroke:none"
         inkscape:connector-curvature="0" /><g
         transform="matrix(1,0,0,-1,42.785108,359.52383)"
         id="g3215"><path
           d="m 696,252 72,0 0,72 -72,0 0,-72 z"
           id="path3217"
           style="fill:none;stroke:#000000;stroke-width:1;stroke-linecap:round;stroke-linejoin:round;stroke-miterlimit:10;stroke-opacity:1;stroke-dasharray:none"
           inkscape:connector-curvature="0" /></g><g
         transform="matrix(1,0,0,-1,774.78511,71.523829)"
         id="g3219"><text
   transform="translate(-16.225098,6.5)"
   id="text3221"><tspan
     x="0"
     y="0"
     id="tspan3223"
     style="font-size:24px;font-style:italic;font-variant:normal;font-weight:bold;writing-mode:lr-tb;fill:#000000;fill-opacity:1;fill-rule:nonzero;stroke:none;font-family:Times New Roman;-inkscape-font-specification:TimesNewRomanPS-BoldItalicMT">M</tspan></text>



</g><g
         transform="matrix(1,0,0,-1,774.78511,71.523829)"
         id="g3225"><text
   transform="translate(5.1147461,12.5)"
   id="text3227"><tspan
     x="0"
     y="0"
     id="tspan3229"
     style="font-size:14px;font-style:italic;font-variant:normal;font-weight:bold;writing-mode:lr-tb;fill:#000000;fill-opacity:1;fill-rule:nonzero;stroke:none;font-family:Times New Roman;-inkscape-font-specification:TimesNewRomanPS-BoldItalicMT">N</tspan></text>



</g><path
         d="m 488.78511,215.52383 322,0 0,-72 -322,0 0,72 z"
         id="path3231"
         style="fill:#f5f5f5;fill-opacity:1;fill-rule:nonzero;stroke:none"
         inkscape:connector-curvature="0" /><g
         transform="matrix(1,0,0,-1,42.785108,359.52383)"
         id="g3233"><path
           d="m 446,144 322,0 0,72 -322,0 0,-72 z"
           id="path3235"
           style="fill:none;stroke:#000000;stroke-width:1;stroke-linecap:round;stroke-linejoin:round;stroke-miterlimit:10;stroke-opacity:1;stroke-dasharray:none"
           inkscape:connector-curvature="0" /></g><g
         transform="matrix(1,0,0,-1,649.78511,179.52383)"
         id="g3237"><text
   transform="translate(-40.507812,6.5)"
   id="text3239"><tspan
     x="0 13.344 24 30.672001 46.68 58.68 68.015999"
     y="0"
     id="tspan3241"
     style="font-size:24px;font-style:italic;font-variant:normal;font-weight:bold;writing-mode:lr-tb;fill:#000000;fill-opacity:1;fill-rule:nonzero;stroke:none;font-family:Times New Roman;-inkscape-font-specification:TimesNewRomanPS-BoldItalicMT">network</tspan></text>



</g><g
         transform="matrix(1,0,0,-1,42.785108,359.52383)"
         id="g3243"><path
           d="M 480.9985,144 481,108"
           id="path3245"
           style="fill:none;stroke:#000000;stroke-width:1;stroke-linecap:round;stroke-linejoin:round;stroke-miterlimit:10;stroke-opacity:1;stroke-dasharray:none"
           inkscape:connector-curvature="0" /></g><g
         transform="matrix(1,0,0,-1,42.785108,359.52383)"
         id="g3247"><path
           d="M 731.81268,144 732,108"
           id="path3249"
           style="fill:none;stroke:#000000;stroke-width:1;stroke-linecap:round;stroke-linejoin:round;stroke-miterlimit:10;stroke-opacity:1;stroke-dasharray:none"
           inkscape:connector-curvature="0" /></g><g
         transform="matrix(1,0,0,-1,42.785108,359.52383)"
         id="g3251"><path
           d="M 481.15918,216 481,252"
           id="path3253"
           style="fill:none;stroke:#000000;stroke-width:1;stroke-linecap:round;stroke-linejoin:round;stroke-miterlimit:10;stroke-opacity:1;stroke-dasharray:none"
           inkscape:connector-curvature="0" /></g><g
         transform="matrix(1,0,0,-1,42.785108,359.52383)"
         id="g3255"><path
           d="M 732.25024,216 732,252"
           id="path3257"
           style="fill:none;stroke:#000000;stroke-width:1;stroke-linecap:round;stroke-linejoin:round;stroke-miterlimit:10;stroke-opacity:1;stroke-dasharray:none"
           inkscape:connector-curvature="0" /></g><g
         transform="matrix(1,0,0,-1,42.785108,359.52383)"
         id="g3259"><path
           d="M 588.10608,144 588,108"
           id="path3261"
           style="fill:none;stroke:#000000;stroke-width:1;stroke-linecap:round;stroke-linejoin:round;stroke-miterlimit:10;stroke-opacity:1;stroke-dasharray:none"
           inkscape:connector-curvature="0" /></g><g
         transform="matrix(1,0,0,-1,42.785108,359.52383)"
         id="g3263"><path
           d="M 587.92389,216 588,252"
           id="path3265"
           style="fill:none;stroke:#000000;stroke-width:1;stroke-linecap:round;stroke-linejoin:round;stroke-miterlimit:10;stroke-opacity:1;stroke-dasharray:none"
           inkscape:connector-curvature="0" /></g><g
         transform="matrix(1,0,0,-1,702.78511,287.89883)"
         id="g3267"><text
   transform="translate(-19.771484,10)"
   id="text3269"><tspan
     x="0 8.3999996 15.072 23.472 30.143999"
     y="0"
     id="tspan3271"
     style="font-size:24px;font-variant:normal;font-weight:normal;writing-mode:lr-tb;fill:#000000;fill-opacity:1;fill-rule:nonzero;stroke:none;font-family:Helvetica;-inkscape-font-specification:Helvetica">• • •</tspan></text>



</g><g
         transform="matrix(1,0,0,-1,702.78511,71.898829)"
         id="g3273"><text
   transform="translate(-19.771484,10)"
   id="text3275"><tspan
     x="0 8.3999996 15.072 23.472 30.143999"
     y="0"
     id="tspan3277"
     style="font-size:24px;font-variant:normal;font-weight:normal;writing-mode:lr-tb;fill:#000000;fill-opacity:1;fill-rule:nonzero;stroke:none;font-family:Helvetica;-inkscape-font-specification:Helvetica">• • •</tspan></text>



</g><g
         transform="matrix(1,0,0,-1,647.28511,-14.601171)"
         id="g3279"><text
   transform="translate(-154.16797,6.5)"
   id="text3281"><tspan
     x="0 9.3360004 22.68 34.68 44.015999 54.672001 66.671997 74.664001 93.335999 103.992 122.664 134.664 144 154.65601 160.65601 179.328 192.672 199.34399 206.01601 212.688 224.688 234.024 246.024 256.67999 267.336 276.672 286.008 298.008"
     y="0"
     id="tspan3283"
     style="font-size:24px;font-style:italic;font-variant:normal;font-weight:bold;writing-mode:lr-tb;fill:#000000;fill-opacity:1;fill-rule:nonzero;stroke:none;font-family:Times New Roman;-inkscape-font-specification:TimesNewRomanPS-BoldItalicMT">shared-memory multiprocessor</tspan></text>



</g><path
         d="m 78.785108,215.52383 72.000002,0 0,-72 -72.000002,0 0,72 z"
         id="path3285"
         style="fill:#f5f5f5;fill-opacity:1;fill-rule:nonzero;stroke:none"
         inkscape:connector-curvature="0" /><g
         transform="matrix(1,0,0,-1,42.785108,359.52383)"
         id="g3287"><path
           d="m 36,144 72,0 0,72 -72,0 0,-72 z"
           id="path3289"
           style="fill:none;stroke:#000000;stroke-width:1;stroke-linecap:round;stroke-linejoin:round;stroke-miterlimit:1;stroke-opacity:1;stroke-dasharray:none"
           inkscape:connector-curvature="0" /></g><g
         transform="matrix(1,0,0,-1,114.78511,179.52383)"
         id="g3291"><text
   transform="translate(-11.330078,6.5)"
   id="text3293"><tspan
     x="0"
     y="0"
     id="tspan3295"
     style="font-size:24px;font-style:italic;font-variant:normal;font-weight:bold;writing-mode:lr-tb;fill:#000000;fill-opacity:1;fill-rule:nonzero;stroke:none;font-family:Times New Roman;-inkscape-font-specification:TimesNewRomanPS-BoldItalicMT">P</tspan></text>



</g><g
         transform="matrix(1,0,0,-1,114.78511,179.52383)"
         id="g3297"><text
   transform="translate(3.3300781,12.5)"
   id="text3299"><tspan
     x="0"
     y="0"
     id="tspan3301"
     style="font-size:14px;font-variant:normal;font-weight:bold;writing-mode:lr-tb;fill:#000000;fill-opacity:1;fill-rule:nonzero;stroke:none;font-family:Times New Roman;-inkscape-font-specification:TimesNewRomanPS-BoldMT">0</tspan></text>



</g><path
         d="m 186.78511,215.52383 72,0 0,-72 -72,0 0,72 z"
         id="path3303"
         style="fill:#f5f5f5;fill-opacity:1;fill-rule:nonzero;stroke:none"
         inkscape:connector-curvature="0" /><g
         transform="matrix(1,0,0,-1,42.785108,359.52383)"
         id="g3305"><path
           d="m 144,144 72,0 0,72 -72,0 0,-72 z"
           id="path3307"
           style="fill:none;stroke:#000000;stroke-width:1;stroke-linecap:round;stroke-linejoin:round;stroke-miterlimit:1;stroke-opacity:1;stroke-dasharray:none"
           inkscape:connector-curvature="0" /></g><g
         transform="matrix(1,0,0,-1,222.78511,179.52383)"
         id="g3309"><text
   transform="translate(-11.330078,6.5)"
   id="text3311"><tspan
     x="0"
     y="0"
     id="tspan3313"
     style="font-size:24px;font-style:italic;font-variant:normal;font-weight:bold;writing-mode:lr-tb;fill:#000000;fill-opacity:1;fill-rule:nonzero;stroke:none;font-family:Times New Roman;-inkscape-font-specification:TimesNewRomanPS-BoldItalicMT">P</tspan></text>



</g><g
         transform="matrix(1,0,0,-1,222.78511,179.52383)"
         id="g3315"><text
   transform="translate(3.3300781,12.5)"
   id="text3317"><tspan
     x="0"
     y="0"
     id="tspan3319"
     style="font-size:14px;font-variant:normal;font-weight:bold;writing-mode:lr-tb;fill:#000000;fill-opacity:1;fill-rule:nonzero;stroke:none;font-family:Times New Roman;-inkscape-font-specification:TimesNewRomanPS-BoldMT">1</tspan></text>



</g><path
         d="m 330.78511,215.52383 72,0 0,-72 -72,0 0,72 z"
         id="path3321"
         style="fill:#f5f5f5;fill-opacity:1;fill-rule:nonzero;stroke:none"
         inkscape:connector-curvature="0" /><g
         transform="matrix(1,0,0,-1,42.785108,359.52383)"
         id="g3323"><path
           d="m 288,144 72,0 0,72 -72,0 0,-72 z"
           id="path3325"
           style="fill:none;stroke:#000000;stroke-width:1;stroke-linecap:round;stroke-linejoin:round;stroke-miterlimit:10;stroke-opacity:1;stroke-dasharray:none"
           inkscape:connector-curvature="0" /></g><g
         transform="matrix(1,0,0,-1,366.78511,179.52383)"
         id="g3327"><text
   transform="translate(-12.885254,6.5)"
   id="text3329"><tspan
     x="0"
     y="0"
     id="tspan3331"
     style="font-size:24px;font-style:italic;font-variant:normal;font-weight:bold;writing-mode:lr-tb;fill:#000000;fill-opacity:1;fill-rule:nonzero;stroke:none;font-family:Times New Roman;-inkscape-font-specification:TimesNewRomanPS-BoldItalicMT">P</tspan></text>



</g><g
         transform="matrix(1,0,0,-1,366.78511,179.52383)"
         id="g3333"><text
   transform="translate(1.7749023,12.5)"
   id="text3335"><tspan
     x="0"
     y="0"
     id="tspan3337"
     style="font-size:14px;font-style:italic;font-variant:normal;font-weight:bold;writing-mode:lr-tb;fill:#000000;fill-opacity:1;fill-rule:nonzero;stroke:none;font-family:Times New Roman;-inkscape-font-specification:TimesNewRomanPS-BoldItalicMT">N</tspan></text>



</g><path
         d="m 78.785108,107.52383 322.000002,0 0,-72.000001 -322.000002,0 0,72.000001 z"
         id="path3339"
         style="fill:#f5f5f5;fill-opacity:1;fill-rule:nonzero;stroke:none"
         inkscape:connector-curvature="0" /><g
         transform="matrix(1,0,0,-1,42.785108,359.52383)"
         id="g3341"><path
           d="m 36,252 322,0 0,72 -322,0 0,-72 z"
           id="path3343"
           style="fill:none;stroke:#000000;stroke-width:1;stroke-linecap:round;stroke-linejoin:round;stroke-miterlimit:10;stroke-opacity:1;stroke-dasharray:none"
           inkscape:connector-curvature="0" /></g><g
         transform="matrix(1,0,0,-1,239.78511,71.523829)"
         id="g3345"><text
   transform="translate(-40.507812,6.5)"
   id="text3347"><tspan
     x="0 13.344 24 30.672001 46.68 58.68 68.015999"
     y="0"
     id="tspan3349"
     style="font-size:24px;font-style:italic;font-variant:normal;font-weight:bold;writing-mode:lr-tb;fill:#000000;fill-opacity:1;fill-rule:nonzero;stroke:none;font-family:Times New Roman;-inkscape-font-specification:TimesNewRomanPS-BoldItalicMT">network</tspan></text>



</g><g
         transform="matrix(1,0,0,-1,42.785108,359.52383)"
         id="g3351"><path
           d="M 72.095665,252 72,216"
           id="path3353"
           style="fill:none;stroke:#000000;stroke-width:1;stroke-linecap:round;stroke-linejoin:round;stroke-miterlimit:10;stroke-opacity:1;stroke-dasharray:none"
           inkscape:connector-curvature="0" /></g><g
         transform="matrix(1,0,0,-1,42.785108,359.52383)"
         id="g3355"><path
           d="M 324.00677,252 324,216"
           id="path3357"
           style="fill:none;stroke:#000000;stroke-width:1;stroke-linecap:round;stroke-linejoin:round;stroke-miterlimit:10;stroke-opacity:1;stroke-dasharray:none"
           inkscape:connector-curvature="0" /></g><g
         transform="matrix(1,0,0,-1,42.785108,359.52383)"
         id="g3359"><path
           d="M 179.97983,252 180,216"
           id="path3361"
           style="fill:none;stroke:#000000;stroke-width:1;stroke-linecap:round;stroke-linejoin:round;stroke-miterlimit:10;stroke-opacity:1;stroke-dasharray:none"
           inkscape:connector-curvature="0" /></g><g
         transform="matrix(1,0,0,-1,294.78511,179.89883)"
         id="g3363"><text
   transform="translate(-19.771484,10)"
   id="text3365"><tspan
     x="0 8.3999996 15.072 23.472 30.143999"
     y="0"
     id="tspan3367"
     style="font-size:24px;font-variant:normal;font-weight:normal;writing-mode:lr-tb;fill:#000000;fill-opacity:1;fill-rule:nonzero;stroke:none;font-family:Helvetica;-inkscape-font-specification:Helvetica">• • •</tspan></text>



</g><path
         d="m 78.785108,323.52383 72.000002,0 0,-72 -72.000002,0 0,72 z"
         id="path3369"
         style="fill:#f5f5f5;fill-opacity:1;fill-rule:nonzero;stroke:none"
         inkscape:connector-curvature="0" /><g
         transform="matrix(1,0,0,-1,42.785108,359.52383)"
         id="g3371"><path
           d="m 36,36 72,0 0,72 -72,0 0,-72 z"
           id="path3373"
           style="fill:none;stroke:#000000;stroke-width:1;stroke-linecap:round;stroke-linejoin:round;stroke-miterlimit:1;stroke-opacity:1;stroke-dasharray:none"
           inkscape:connector-curvature="0" /></g><g
         transform="matrix(1,0,0,-1,114.78511,287.52383)"
         id="g3375"><text
   transform="translate(-14.669922,6.5)"
   id="text3377"><tspan
     x="0"
     y="0"
     id="tspan3379"
     style="font-size:24px;font-style:italic;font-variant:normal;font-weight:bold;writing-mode:lr-tb;fill:#000000;fill-opacity:1;fill-rule:nonzero;stroke:none;font-family:Times New Roman;-inkscape-font-specification:TimesNewRomanPS-BoldItalicMT">M</tspan></text>



</g><g
         transform="matrix(1,0,0,-1,114.78511,287.52383)"
         id="g3381"><text
   transform="translate(6.6699219,12.5)"
   id="text3383"><tspan
     x="0"
     y="0"
     id="tspan3385"
     style="font-size:14px;font-variant:normal;font-weight:bold;writing-mode:lr-tb;fill:#000000;fill-opacity:1;fill-rule:nonzero;stroke:none;font-family:Times New Roman;-inkscape-font-specification:TimesNewRomanPS-BoldMT">0</tspan></text>



</g><path
         d="m 186.78511,323.52383 72,0 0,-72 -72,0 0,72 z"
         id="path3387"
         style="fill:#f5f5f5;fill-opacity:1;fill-rule:nonzero;stroke:none"
         inkscape:connector-curvature="0" /><g
         transform="matrix(1,0,0,-1,42.785108,359.52383)"
         id="g3389"><path
           d="m 144,36 72,0 0,72 -72,0 0,-72 z"
           id="path3391"
           style="fill:none;stroke:#000000;stroke-width:1;stroke-linecap:round;stroke-linejoin:round;stroke-miterlimit:1;stroke-opacity:1;stroke-dasharray:none"
           inkscape:connector-curvature="0" /></g><g
         transform="matrix(1,0,0,-1,222.78511,287.52383)"
         id="g3393"><text
   transform="translate(-14.669922,6.5)"
   id="text3395"><tspan
     x="0"
     y="0"
     id="tspan3397"
     style="font-size:24px;font-style:italic;font-variant:normal;font-weight:bold;writing-mode:lr-tb;fill:#000000;fill-opacity:1;fill-rule:nonzero;stroke:none;font-family:Times New Roman;-inkscape-font-specification:TimesNewRomanPS-BoldItalicMT">M</tspan></text>



</g><g
         transform="matrix(1,0,0,-1,222.78511,287.52383)"
         id="g3399"><text
   transform="translate(6.6699219,12.5)"
   id="text3401"><tspan
     x="0"
     y="0"
     id="tspan3403"
     style="font-size:14px;font-variant:normal;font-weight:bold;writing-mode:lr-tb;fill:#000000;fill-opacity:1;fill-rule:nonzero;stroke:none;font-family:Times New Roman;-inkscape-font-specification:TimesNewRomanPS-BoldMT">1</tspan></text>



</g><path
         d="m 330.78511,323.52383 72,0 0,-72 -72,0 0,72 z"
         id="path3405"
         style="fill:#f5f5f5;fill-opacity:1;fill-rule:nonzero;stroke:none"
         inkscape:connector-curvature="0" /><g
         transform="matrix(1,0,0,-1,42.785108,359.52383)"
         id="g3407"><path
           d="m 288,36 72,0 0,72 -72,0 0,-72 z"
           id="path3409"
           style="fill:none;stroke:#000000;stroke-width:1;stroke-linecap:round;stroke-linejoin:round;stroke-miterlimit:1;stroke-opacity:1;stroke-dasharray:none"
           inkscape:connector-curvature="0" /></g><g
         transform="matrix(1,0,0,-1,366.78511,287.52383)"
         id="g3411"><text
   transform="translate(-16.225098,6.5)"
   id="text3413"><tspan
     x="0"
     y="0"
     id="tspan3415"
     style="font-size:24px;font-style:italic;font-variant:normal;font-weight:bold;writing-mode:lr-tb;fill:#000000;fill-opacity:1;fill-rule:nonzero;stroke:none;font-family:Times New Roman;-inkscape-font-specification:TimesNewRomanPS-BoldItalicMT">M</tspan></text>



</g><g
         transform="matrix(1,0,0,-1,366.78511,287.52383)"
         id="g3417"><text
   transform="translate(5.1147461,12.5)"
   id="text3419"><tspan
     x="0"
     y="0"
     id="tspan3421"
     style="font-size:14px;font-style:italic;font-variant:normal;font-weight:bold;writing-mode:lr-tb;fill:#000000;fill-opacity:1;fill-rule:nonzero;stroke:none;font-family:Times New Roman;-inkscape-font-specification:TimesNewRomanPS-BoldItalicMT">N</tspan></text>



</g><g
         transform="matrix(1,0,0,-1,293.78511,286.89883)"
         id="g3423"><text
   transform="translate(-19.771484,10)"
   id="text3425"><tspan
     x="0 8.3999996 15.072 23.472 30.143999"
     y="0"
     id="tspan3427"
     style="font-size:24px;font-variant:normal;font-weight:normal;writing-mode:lr-tb;fill:#000000;fill-opacity:1;fill-rule:nonzero;stroke:none;font-family:Helvetica;-inkscape-font-specification:Helvetica">• • •</tspan></text>



</g><g
         transform="matrix(1,0,0,-1,240.78511,-13.601171)"
         id="g3429"><text
   transform="translate(-172.83594,6.5)"
   id="text3431"><tspan
     x="0 12 18.672001 28.007999 34.68 44.015999 50.688 62.688 76.031998 82.704002 93.360001 105.36 113.352 132.024 142.67999 161.35201 173.35201 182.688 193.34399 199.34399 218.01601 231.36 238.032 244.70399 251.37601 262.03201 274.03201 292.70401 304.70401 318.048 324.72 335.37601"
     y="0"
     id="tspan3433"
     style="font-size:24px;font-style:italic;font-variant:normal;font-weight:bold;writing-mode:lr-tb;fill:#000000;fill-opacity:1;fill-rule:nonzero;stroke:none;font-family:Times New Roman;-inkscape-font-specification:TimesNewRomanPS-BoldItalicMT">distributed-memory multicomputer</tspan></text>



</g><g
         transform="matrix(1,0,0,-1,42.785108,359.52383)"
         id="g3435"><path
           d="m 72,108 0,36"
           id="path3437"
           style="fill:none;stroke:#000000;stroke-width:1;stroke-linecap:round;stroke-linejoin:round;stroke-miterlimit:10;stroke-opacity:1;stroke-dasharray:none"
           inkscape:connector-curvature="0" /></g><g
         transform="matrix(1,0,0,-1,42.785108,359.52383)"
         id="g3439"><path
           d="m 180,108 0,36"
           id="path3441"
           style="fill:none;stroke:#000000;stroke-width:1;stroke-linecap:round;stroke-linejoin:round;stroke-miterlimit:10;stroke-opacity:1;stroke-dasharray:none"
           inkscape:connector-curvature="0" /></g><g
         transform="matrix(1,0,0,-1,42.785108,359.52383)"
         id="g3443"><path
           d="m 324,108 0,36"
           id="path3445"
           style="fill:none;stroke:#000000;stroke-width:1;stroke-linecap:round;stroke-linejoin:round;stroke-miterlimit:10;stroke-opacity:1;stroke-dasharray:none"
           inkscape:connector-curvature="0" /></g></g></g></svg>