<?xml version="1.0" encoding="UTF-8" standalone="no"?>
<!-- Created with Inkscape (http://www.inkscape.org/) -->

<svg
   xmlns:dc="http://purl.org/dc/elements/1.1/"
   xmlns:cc="http://creativecommons.org/ns#"
   xmlns:rdf="http://www.w3.org/1999/02/22-rdf-syntax-ns#"
   xmlns:svg="http://www.w3.org/2000/svg"
   xmlns="http://www.w3.org/2000/svg"
   version="1.1"
   width="116.83651"
   height="107.704"
   id="svg2"
   xml:space="preserve"><metadata
     id="metadata8"><rdf:RDF><cc:Work
         rdf:about=""><dc:format>image/svg+xml</dc:format><dc:type
           rdf:resource="http://purl.org/dc/dcmitype/StillImage" /><dc:title></dc:title></cc:Work></rdf:RDF></metadata><defs
     id="defs6"><clipPath
       id="clipPath18"><path
         d="M 0,1609.55 0,0 l 2338.59,0 0,1609.55 -2338.59,0 z"
         id="path20" /></clipPath></defs><g
     transform="matrix(1.25,0,0,-1.25,-84.801594,154.29226)"
     id="g10"><path
       d="m 68.341275,122.93381 0,-25.274999 8.4272,0 0,-42.021 16.852,-16.743 41.912005,0 16.849,16.743 0,42.021 8.429,0 0,25.274999 -42.024,0 0,-25.274999 8.432,0 0,-33.489 -25.279,0 0,33.489 8.423,0 0,25.274999 -42.021205,0 0,0"
       id="path98"
       style="fill:#c4122e;fill-opacity:1;fill-rule:nonzero;stroke:none" /><path
       d="m 68.341275,122.93381 0,-25.274999 8.4272,0 0,-42.021 16.852,-16.743 41.912005,0 16.849,16.743 0,42.021 8.429,0 0,25.274999 -42.024,0 0,-25.274999 8.432,0 0,-33.489 -25.279,0 0,33.489 8.423,0 0,25.274999 -42.021205,0 0,0 z"
       id="path100"
       style="fill:none;stroke:#c4122e;stroke-width:1;stroke-linecap:butt;stroke-linejoin:miter;stroke-miterlimit:4;stroke-opacity:1;stroke-dasharray:none" /><path
       d="m 148.30948,40.598711 0.412,0 c 0.469,0 0.865,0.1692 0.865,0.6114 0,0.3117 -0.226,0.6261 -0.865,0.6261 -0.185,0 -0.313,-0.0156 -0.412,-0.0304 l 0,-1.2071 z m 0,-1.9754 -0.571,0 0,3.568 c 0.3,0.0422 0.584,0.0852 1.01,0.0852 0.541,0 0.897,-0.1141 1.109,-0.2707 0.214,-0.1559 0.328,-0.3973 0.328,-0.7391 0,-0.4695 -0.312,-0.7547 -0.697,-0.8672 l 0,-0.0293 c 0.314,-0.0555 0.526,-0.3406 0.597,-0.8652 0.084,-0.5555 0.172,-0.7703 0.228,-0.8817 l -0.598,0 c -0.087,0.1114 -0.17,0.4395 -0.241,0.909 -0.085,0.4543 -0.312,0.6242 -0.768,0.6242 l -0.397,0 0,-1.5332 z m 0.596,4.5625 c -1.408,0 -2.559,-1.2082 -2.559,-2.7004 0,-1.5222 1.151,-2.7156 2.572,-2.7156 1.422,-0.0137 2.562,1.1934 2.562,2.7 0,1.5078 -1.14,2.716 -2.562,2.716 l -0.013,0 z m 0.013,0.4969 c 1.75,0 3.145,-1.4203 3.145,-3.1973 0,-1.8066 -1.395,-3.2148 -3.158,-3.2148 -1.75,0 -3.17,1.4082 -3.17,3.2148 0,1.777 1.42,3.1973 3.17,3.1973 l 0.013,0"
       id="path102"
       style="fill:#ffffff;fill-opacity:1;fill-rule:nonzero;stroke:none" /></g></svg>