<?xml version="1.0" encoding="UTF-8" standalone="no"?>
<!-- Created with Inkscape (http://www.inkscape.org/) -->

<svg
   xmlns:dc="http://purl.org/dc/elements/1.1/"
   xmlns:cc="http://creativecommons.org/ns#"
   xmlns:rdf="http://www.w3.org/1999/02/22-rdf-syntax-ns#"
   xmlns:svg="http://www.w3.org/2000/svg"
   xmlns="http://www.w3.org/2000/svg"
   xmlns:sodipodi="http://sodipodi.sourceforge.net/DTD/sodipodi-0.dtd"
   xmlns:inkscape="http://www.inkscape.org/namespaces/inkscape"
   id="svg2"
   version="1.1"
   inkscape:version="0.48.5 r10040"
   width="292.5"
   height="201.25"
   xml:space="preserve"
   sodipodi:docname="Ulogo_cmyk.pdf"><metadata
     id="metadata8"><rdf:RDF><cc:Work
         rdf:about=""><dc:format>image/svg+xml</dc:format><dc:type
           rdf:resource="http://purl.org/dc/dcmitype/StillImage" /><dc:title></dc:title></cc:Work></rdf:RDF></metadata><defs
     id="defs6"><clipPath
       clipPathUnits="userSpaceOnUse"
       id="clipPath18"><path
         d="M 0,1609.55 0,0 l 2338.59,0 0,1609.55 -2338.59,0 z"
         id="path20" /></clipPath></defs><sodipodi:namedview
     pagecolor="#ffffff"
     bordercolor="#666666"
     borderopacity="1"
     objecttolerance="10"
     gridtolerance="10"
     guidetolerance="10"
     inkscape:pageopacity="0"
     inkscape:pageshadow="2"
     inkscape:window-width="640"
     inkscape:window-height="480"
     id="namedview4"
     showgrid="false"
     inkscape:zoom="1.1076923"
     inkscape:cx="146.25"
     inkscape:cy="100.625"
     inkscape:window-x="0"
     inkscape:window-y="0"
     inkscape:window-maximized="0"
     inkscape:current-layer="g10" /><g
     id="g10"
     inkscape:groupmode="layer"
     inkscape:label="Ulogo_cmyk"
     transform="matrix(1.25,0,0,-1.25,0,201.25)"><g
       id="g12"
       transform="scale(0.1,0.1)"><g
         id="g14"><g
           id="g16"
           clip-path="url(#clipPath18)"><path
             d="m 500.367,823.301 c 0,-19.094 0,-34.785 1.024,-43.145 0.574,-5.761 1.757,-10.136 7.714,-10.918 2.79,-0.429 7.168,-0.82 8.961,-0.82 1.172,0 1.579,-0.586 1.579,-1.172 0,-0.976 -0.993,-1.582 -3.157,-1.582 -10.925,0 -23.465,0.606 -24.461,0.606 -1.011,0 -13.511,-0.606 -19.492,-0.606 -2.183,0 -3.156,0.391 -3.156,1.582 0,0.586 0.367,1.172 1.598,1.172 1.753,0 4.152,0.391 5.941,0.82 3.988,0.782 4.969,5.157 5.762,10.918 0.976,8.36 0.976,24.051 0.976,43.145 l 0,84.07 -29.41,-0.391 c -12.308,-0.175 -17.058,-1.601 -20.269,-6.367 -2.184,-3.386 -2.789,-4.765 -3.375,-6.14 -0.622,-1.602 -1.207,-2.024 -1.997,-2.024 -0.574,0 -1,0.625 -1,1.797 0,2.004 3.997,19.121 4.383,20.684 0.407,1.183 1.203,3.789 1.989,3.789 1.398,0 3.367,-1.981 8.757,-2.41 5.774,-0.559 13.305,-0.989 15.7,-0.989 l 74.535,0 c 6.383,0 10.941,0.598 14.117,0.989 2.977,0.613 4.789,1.004 5.57,1.004 0.996,0 0.996,-1.2 0.996,-2.383 0,-5.965 -0.586,-19.696 -0.586,-21.856 0,-1.797 -0.605,-2.605 -1.421,-2.605 -0.977,0 -1.368,0.625 -1.582,3.386 l -0.196,2.188 c -0.797,5.977 -5.375,10.547 -24.461,10.937 l -25.039,0.391 0,-84.07"
             style="fill:#231f20;fill-opacity:1;fill-rule:nonzero;stroke:none"
             id="path22" /><path
             d="m 500.367,823.301 c 0,-19.094 0,-34.785 1.024,-43.145 0.574,-5.761 1.757,-10.136 7.714,-10.918 2.79,-0.429 7.168,-0.82 8.961,-0.82 1.172,0 1.579,-0.586 1.579,-1.172 0,-0.976 -0.993,-1.582 -3.157,-1.582 -10.925,0 -23.465,0.606 -24.461,0.606 -1.011,0 -13.511,-0.606 -19.492,-0.606 -2.183,0 -3.156,0.391 -3.156,1.582 0,0.586 0.367,1.172 1.598,1.172 1.753,0 4.152,0.391 5.941,0.82 3.988,0.782 4.969,5.157 5.762,10.918 0.976,8.36 0.976,24.051 0.976,43.145 l 0,84.07 -29.41,-0.391 c -12.308,-0.175 -17.058,-1.601 -20.269,-6.367 -2.184,-3.386 -2.789,-4.765 -3.375,-6.14 -0.622,-1.602 -1.207,-2.024 -1.997,-2.024 -0.574,0 -1,0.625 -1,1.797 0,2.004 3.997,19.121 4.383,20.684 0.407,1.183 1.203,3.789 1.989,3.789 1.398,0 3.367,-1.981 8.757,-2.41 5.774,-0.559 13.305,-0.989 15.7,-0.989 l 74.535,0 c 6.383,0 10.941,0.598 14.117,0.989 2.977,0.613 4.789,1.004 5.57,1.004 0.996,0 0.996,-1.2 0.996,-2.383 0,-5.965 -0.586,-19.696 -0.586,-21.856 0,-1.797 -0.605,-2.605 -1.421,-2.605 -0.977,0 -1.368,0.625 -1.582,3.386 l -0.196,2.188 c -0.797,5.977 -5.375,10.547 -24.461,10.937 l -25.039,0.391 0,-84.07 z"
             style="fill:none;stroke:#231f20;stroke-opacity:1;stroke-width:3;stroke-linecap:butt;stroke-linejoin:miter;stroke-miterlimit:3.8637;stroke-dasharray:none"
             id="path24" /><path
             d="m 732.156,823.301 c 0,-19.094 0,-34.785 0.981,-43.145 0.617,-5.761 1.804,-10.136 7.761,-10.918 2.79,-0.429 7.168,-0.82 8.961,-0.82 1.172,0 1.579,-0.586 1.579,-1.172 0,-0.976 -0.993,-1.582 -3.192,-1.582 -10.891,0 -23.465,0.606 -24.441,0.606 -0.996,0 -13.524,-0.606 -19.481,-0.606 -2.179,0 -3.152,0.391 -3.152,1.582 0,0.586 0.371,1.172 1.543,1.172 1.805,0 4.203,0.391 5.996,0.82 3.949,0.782 4.961,5.157 5.762,10.918 0.976,8.36 0.976,24.051 0.976,43.145 l 0,20.859 c 0,0.781 -0.586,1.192 -1.191,1.192 l -84.281,0 c -0.575,0 -1.192,-0.196 -1.192,-1.192 l 0,-20.859 c 0,-19.094 0,-34.785 1.012,-43.145 0.601,-5.761 1.789,-10.136 7.73,-10.918 2.77,-0.429 7.164,-0.82 8.957,-0.82 1.157,0 1.598,-0.586 1.598,-1.172 0,-0.976 -1.012,-1.582 -3.195,-1.582 -10.926,0 -23.446,0.606 -24.457,0.606 -0.977,0 -13.516,-0.606 -19.473,-0.606 -2.203,0 -3.18,0.391 -3.18,1.582 0,0.586 0.407,1.172 1.598,1.172 1.793,0 4.156,0.391 5.941,0.82 4.008,0.782 4.989,5.157 5.789,10.918 0.989,8.36 0.989,24.051 0.989,43.145 l 0,34.969 c 0,31.015 0,36.593 -0.406,42.929 -0.375,6.778 -1.993,9.942 -8.547,11.36 -1.582,0.371 -4.957,0.566 -6.762,0.566 -0.781,0 -1.559,0.43 -1.559,1.238 0,1.164 0.973,1.555 3.141,1.555 8.953,0 21.492,-0.598 22.469,-0.598 1.011,0 13.531,0.598 19.492,0.598 2.168,0 3.18,-0.391 3.18,-1.555 0,-0.808 -0.782,-1.238 -1.586,-1.238 -1.399,0 -2.571,-0.195 -4.985,-0.566 -5.347,-0.996 -6.945,-4.387 -7.355,-11.36 -0.391,-6.336 -0.391,-11.914 -0.391,-42.929 l 0,-4.161 c 0,-0.996 0.617,-1.191 1.192,-1.191 l 84.281,0 c 0.605,0 1.191,0.195 1.191,1.191 l 0,4.161 c 0,31.015 0,36.593 -0.39,42.929 -0.391,6.778 -1.973,9.942 -8.551,11.36 -1.563,0.371 -4.965,0.566 -6.774,0.566 -0.781,0 -1.558,0.43 -1.558,1.238 0,1.164 0.972,1.555 3.172,1.555 8.933,0 21.461,-0.598 22.457,-0.598 0.976,0 13.55,0.598 19.476,0.598 2.199,0 3.207,-0.391 3.207,-1.555 0,-0.808 -0.828,-1.238 -1.609,-1.238 -1.387,0 -2.594,-0.195 -4.945,-0.566 -5.383,-0.996 -6.996,-4.387 -7.371,-11.36 -0.407,-6.336 -0.407,-11.914 -0.407,-42.929 l 0,-34.969"
             style="fill:#231f20;fill-opacity:1;fill-rule:nonzero;stroke:none"
             id="path26" /><path
             d="m 732.156,823.301 c 0,-19.094 0,-34.785 0.981,-43.145 0.617,-5.761 1.804,-10.136 7.761,-10.918 2.79,-0.429 7.168,-0.82 8.961,-0.82 1.172,0 1.579,-0.586 1.579,-1.172 0,-0.976 -0.993,-1.582 -3.192,-1.582 -10.891,0 -23.465,0.606 -24.441,0.606 -0.996,0 -13.524,-0.606 -19.481,-0.606 -2.179,0 -3.152,0.391 -3.152,1.582 0,0.586 0.371,1.172 1.543,1.172 1.805,0 4.203,0.391 5.996,0.82 3.949,0.782 4.961,5.157 5.762,10.918 0.976,8.36 0.976,24.051 0.976,43.145 l 0,20.859 c 0,0.781 -0.586,1.192 -1.191,1.192 l -84.281,0 c -0.575,0 -1.192,-0.196 -1.192,-1.192 l 0,-20.859 c 0,-19.094 0,-34.785 1.012,-43.145 0.601,-5.761 1.789,-10.136 7.73,-10.918 2.77,-0.429 7.164,-0.82 8.957,-0.82 1.157,0 1.598,-0.586 1.598,-1.172 0,-0.976 -1.012,-1.582 -3.195,-1.582 -10.926,0 -23.446,0.606 -24.457,0.606 -0.977,0 -13.516,-0.606 -19.473,-0.606 -2.203,0 -3.18,0.391 -3.18,1.582 0,0.586 0.407,1.172 1.598,1.172 1.793,0 4.156,0.391 5.941,0.82 4.008,0.782 4.989,5.157 5.789,10.918 0.989,8.36 0.989,24.051 0.989,43.145 l 0,34.969 c 0,31.015 0,36.593 -0.406,42.929 -0.375,6.778 -1.993,9.942 -8.547,11.36 -1.582,0.371 -4.957,0.566 -6.762,0.566 -0.781,0 -1.559,0.43 -1.559,1.238 0,1.164 0.973,1.555 3.141,1.555 8.953,0 21.492,-0.598 22.469,-0.598 1.011,0 13.531,0.598 19.492,0.598 2.168,0 3.18,-0.391 3.18,-1.555 0,-0.808 -0.782,-1.238 -1.586,-1.238 -1.399,0 -2.571,-0.195 -4.985,-0.566 -5.347,-0.996 -6.945,-4.387 -7.355,-11.36 -0.391,-6.336 -0.391,-11.914 -0.391,-42.929 l 0,-4.161 c 0,-0.996 0.617,-1.191 1.192,-1.191 l 84.281,0 c 0.605,0 1.191,0.195 1.191,1.191 l 0,4.161 c 0,31.015 0,36.593 -0.39,42.929 -0.391,6.778 -1.973,9.942 -8.551,11.36 -1.563,0.371 -4.965,0.566 -6.774,0.566 -0.781,0 -1.558,0.43 -1.558,1.238 0,1.164 0.972,1.555 3.172,1.555 8.933,0 21.461,-0.598 22.457,-0.598 0.976,0 13.55,0.598 19.476,0.598 2.199,0 3.207,-0.391 3.207,-1.555 0,-0.808 -0.828,-1.238 -1.609,-1.238 -1.387,0 -2.594,-0.195 -4.945,-0.566 -5.383,-0.996 -6.996,-4.387 -7.371,-11.36 -0.407,-6.336 -0.407,-11.914 -0.407,-42.929 l 0,-34.969 z"
             style="fill:none;stroke:#231f20;stroke-opacity:1;stroke-width:3;stroke-linecap:butt;stroke-linejoin:miter;stroke-miterlimit:3.8637;stroke-dasharray:none"
             id="path28" /><path
             d="m 819.617,858.27 c 0,31.015 0,36.593 -0.387,42.929 -0.406,6.778 -1.988,9.942 -8.531,11.36 -1.597,0.371 -5,0.566 -6.773,0.566 -0.817,0 -1.617,0.43 -1.617,1.238 0,1.164 1.011,1.555 3.195,1.555 8.973,0 21.473,-0.598 22.449,-0.598 1.402,0 40.977,0 45.539,0.207 3.774,0.223 6.969,0.586 8.524,1.004 1.011,0.207 1.812,0.989 2.804,0.989 0.618,0 0.782,-0.782 0.782,-1.77 0,-1.387 -0.954,-3.797 -1.598,-9.363 -0.176,-1.992 -0.563,-10.715 -0.977,-13.125 -0.172,-0.996 -0.621,-2.168 -1.379,-2.168 -1.187,0 -1.593,0.976 -1.593,2.597 0,1.368 -0.184,4.735 -1.192,7.137 -1.383,3.176 -3.39,5.559 -14.136,6.758 -3.348,0.391 -25.032,0.586 -27.211,0.586 -0.797,0 -1.188,-0.586 -1.188,-2.012 l 0,-54.844 c 0,-1.394 0.211,-1.953 1.188,-1.953 2.574,0 27.05,0 31.609,0.364 4.754,0.39 7.555,0.781 9.348,2.8 1.398,1.582 2.179,2.559 2.957,2.559 0.586,0 0.976,-0.391 0.976,-1.563 0,-1.199 -0.976,-4.578 -1.539,-11.14 -0.406,-3.985 -0.812,-11.328 -0.812,-12.735 0,-1.593 0,-3.75 -1.403,-3.75 -0.996,0 -1.386,0.782 -1.386,1.766 0,1.984 0,3.977 -0.797,6.563 -0.801,2.804 -2.59,6.132 -10.34,6.972 -5.336,0.567 -25.043,0.977 -28.418,0.977 -0.992,0 -1.383,-0.606 -1.383,-1.387 l 0,-17.488 c 0,-6.77 -0.23,-29.824 0,-33.965 0.586,-13.77 3.551,-16.328 23.043,-16.328 5.195,0 13.942,0 19.102,2.207 5.164,2.148 7.539,6.133 8.922,14.316 0.41,2.117 0.796,2.957 1.808,2.957 1.192,0 1.192,-1.621 1.192,-2.957 0,-1.601 -1.594,-15.136 -2.59,-19.297 -1.403,-5.175 -2.985,-5.175 -10.735,-5.175 -30.007,0 -43.336,1.211 -49.117,1.211 -0.39,0 -3.754,-0.215 -7.926,-0.215 -3.992,-0.215 -8.566,-0.391 -11.547,-0.391 -2.164,0 -3.16,0.391 -3.16,1.582 0,0.586 0.379,1.172 1.567,1.172 1.789,0 4.168,0.391 5.972,0.82 3.977,0.782 4.969,5.157 5.786,10.918 0.972,8.36 0.972,24.051 0.972,43.145 l 0,34.969"
             style="fill:#231f20;fill-opacity:1;fill-rule:nonzero;stroke:none"
             id="path30" /><path
             d="m 819.617,858.27 c 0,31.015 0,36.593 -0.387,42.929 -0.406,6.778 -1.988,9.942 -8.531,11.36 -1.597,0.371 -5,0.566 -6.773,0.566 -0.817,0 -1.617,0.43 -1.617,1.238 0,1.164 1.011,1.555 3.195,1.555 8.973,0 21.473,-0.598 22.449,-0.598 1.402,0 40.977,0 45.539,0.207 3.774,0.223 6.969,0.586 8.524,1.004 1.011,0.207 1.812,0.989 2.804,0.989 0.618,0 0.782,-0.782 0.782,-1.77 0,-1.387 -0.954,-3.797 -1.598,-9.363 -0.176,-1.992 -0.563,-10.715 -0.977,-13.125 -0.172,-0.996 -0.621,-2.168 -1.379,-2.168 -1.187,0 -1.593,0.976 -1.593,2.597 0,1.368 -0.184,4.735 -1.192,7.137 -1.383,3.176 -3.39,5.559 -14.136,6.758 -3.348,0.391 -25.032,0.586 -27.211,0.586 -0.797,0 -1.188,-0.586 -1.188,-2.012 l 0,-54.844 c 0,-1.394 0.211,-1.953 1.188,-1.953 2.574,0 27.05,0 31.609,0.364 4.754,0.39 7.555,0.781 9.348,2.8 1.398,1.582 2.179,2.559 2.957,2.559 0.586,0 0.976,-0.391 0.976,-1.563 0,-1.199 -0.976,-4.578 -1.539,-11.14 -0.406,-3.985 -0.812,-11.328 -0.812,-12.735 0,-1.593 0,-3.75 -1.403,-3.75 -0.996,0 -1.386,0.782 -1.386,1.766 0,1.984 0,3.977 -0.797,6.563 -0.801,2.804 -2.59,6.132 -10.34,6.972 -5.336,0.567 -25.043,0.977 -28.418,0.977 -0.992,0 -1.383,-0.606 -1.383,-1.387 l 0,-17.488 c 0,-6.77 -0.23,-29.824 0,-33.965 0.586,-13.77 3.551,-16.328 23.043,-16.328 5.195,0 13.942,0 19.102,2.207 5.164,2.148 7.539,6.133 8.922,14.316 0.41,2.117 0.796,2.957 1.808,2.957 1.192,0 1.192,-1.621 1.192,-2.957 0,-1.601 -1.594,-15.136 -2.59,-19.297 -1.403,-5.175 -2.985,-5.175 -10.735,-5.175 -30.007,0 -43.336,1.211 -49.117,1.211 -0.39,0 -3.754,-0.215 -7.926,-0.215 -3.992,-0.215 -8.566,-0.391 -11.547,-0.391 -2.164,0 -3.16,0.391 -3.16,1.582 0,0.586 0.379,1.172 1.567,1.172 1.789,0 4.168,0.391 5.972,0.82 3.977,0.782 4.969,5.157 5.786,10.918 0.972,8.36 0.972,24.051 0.972,43.145 l 0,34.969 z"
             style="fill:none;stroke:#231f20;stroke-opacity:1;stroke-width:3;stroke-linecap:butt;stroke-linejoin:miter;stroke-miterlimit:3.8637;stroke-dasharray:none"
             id="path32" /><path
             d="m 28.5117,531.602 c 0,48.91 0,57.699 -0.6211,67.718 -0.6406,10.641 -3.1211,15.7 -13.4804,17.887 -2.4961,0.625 -7.84379,0.918 -10.64457,0.918 -1.27735,0 -2.51563,0.625 -2.51563,1.895 0,1.894 1.54297,2.5 5.00391,2.5 14.11719,0 33.23439,-0.938 36.07029,-0.938 2.8242,0 21.6446,0.938 31.043,0.938 3.4258,0 5.0234,-0.606 5.0234,-2.5 0,-1.27 -1.2617,-1.895 -2.5156,-1.895 -2.1836,0 -4.0625,-0.293 -7.8437,-0.918 -8.461,-1.25 -10.9961,-6.914 -11.6016,-17.887 -0.6406,-10.019 -0.6406,-18.808 -0.6406,-67.718 l 0,-43.911 c 0,-45.132 10.0429,-64.601 23.5429,-77.461 15.3555,-14.39 29.477,-17.242 47.34,-17.242 19.117,0 37.957,9.102 49.219,22.614 14.441,17.859 18.179,44.519 18.179,76.796 l 0,39.204 c 0,48.91 0,57.699 -0.617,67.718 -0.64,10.641 -3.121,15.7 -13.488,17.887 -2.492,0.625 -7.836,0.918 -10.672,0.918 -1.223,0 -2.508,0.625 -2.508,1.895 0,1.894 1.567,2.5 5.047,2.5 14.102,0 31.356,-0.938 33.219,-0.938 2.183,0 16.937,0.938 26.34,0.938 3.445,0 5.015,-0.606 5.015,-2.5 0,-1.27 -1.242,-1.895 -2.515,-1.895 -2.18,0 -4.078,0 -7.836,-0.918 -8.461,-1.562 -10.95,-6.914 -11.606,-17.887 -0.597,-10.019 -0.597,-18.808 -0.597,-67.718 l 0,-33.551 c 0,-33.871 -3.778,-71.492 -28.848,-93.77 -22.609,-20.043 -46.098,-23.211 -64.613,-23.211 -10.664,0 -42.3402,1.289 -64.6019,22.27 -15.3399,14.75 -27.2774,36.742 -27.2774,82.48 l 0,45.782"
             style="fill:#231f20;fill-opacity:1;fill-rule:nonzero;stroke:none"
             id="path34" /><path
             d="m 28.5117,531.602 c 0,48.91 0,57.699 -0.6211,67.718 -0.6406,10.641 -3.1211,15.7 -13.4804,17.887 -2.4961,0.625 -7.84379,0.918 -10.64457,0.918 -1.27735,0 -2.51563,0.625 -2.51563,1.895 0,1.894 1.54297,2.5 5.00391,2.5 14.11719,0 33.23439,-0.938 36.07029,-0.938 2.8242,0 21.6446,0.938 31.043,0.938 3.4258,0 5.0234,-0.606 5.0234,-2.5 0,-1.27 -1.2617,-1.895 -2.5156,-1.895 -2.1836,0 -4.0625,-0.293 -7.8437,-0.918 -8.461,-1.25 -10.9961,-6.914 -11.6016,-17.887 -0.6406,-10.019 -0.6406,-18.808 -0.6406,-67.718 l 0,-43.911 c 0,-45.132 10.0429,-64.601 23.5429,-77.461 15.3555,-14.39 29.477,-17.242 47.34,-17.242 19.117,0 37.957,9.102 49.219,22.614 14.441,17.859 18.179,44.519 18.179,76.796 l 0,39.204 c 0,48.91 0,57.699 -0.617,67.718 -0.64,10.641 -3.121,15.7 -13.488,17.887 -2.492,0.625 -7.836,0.918 -10.672,0.918 -1.223,0 -2.508,0.625 -2.508,1.895 0,1.894 1.567,2.5 5.047,2.5 14.102,0 31.356,-0.938 33.219,-0.938 2.183,0 16.937,0.938 26.34,0.938 3.445,0 5.015,-0.606 5.015,-2.5 0,-1.27 -1.242,-1.895 -2.515,-1.895 -2.18,0 -4.078,0 -7.836,-0.918 -8.461,-1.562 -10.95,-6.914 -11.606,-17.887 -0.597,-10.019 -0.597,-18.808 -0.597,-67.718 l 0,-33.551 c 0,-33.871 -3.778,-71.492 -28.848,-93.77 -22.609,-20.043 -46.098,-23.211 -64.613,-23.211 -10.664,0 -42.3402,1.289 -64.6019,22.27 -15.3399,14.75 -27.2774,36.742 -27.2774,82.48 l 0,45.782 z"
             style="fill:none;stroke:#231f20;stroke-opacity:1;stroke-width:2.5;stroke-linecap:butt;stroke-linejoin:miter;stroke-miterlimit:3.8637;stroke-dasharray:none"
             id="path36" /><path
             d="m 341.793,428.121 c 0.602,-25.68 3.754,-33.859 12.199,-36.383 5.957,-1.578 12.86,-1.859 15.68,-1.859 1.578,0 2.48,-0.641 2.48,-1.891 0,-1.879 -1.843,-2.5 -5.621,-2.5 -17.863,0 -30.383,0.934 -33.218,0.934 -2.84,0 -16.004,-0.934 -30.125,-0.934 -3.133,0 -5.012,0.313 -5.012,2.5 0,1.25 0.957,1.891 2.512,1.891 2.5,0 8.164,0.281 12.867,1.859 7.8,2.184 9.414,11.313 9.414,39.821 l 0.301,179.671 c 0,12.247 0.925,15.704 3.441,15.704 2.535,0 7.859,-6.914 10.984,-10.059 4.7,-5.312 51.414,-55.824 99.7,-107.523 31.043,-33.262 65.25,-71.52 75.261,-81.832 l -3.445,159.281 c -0.301,20.39 -2.516,27.281 -12.238,29.762 -5.621,1.269 -12.84,1.562 -15.34,1.562 -2.199,0 -2.524,0.957 -2.524,2.188 0,1.914 2.524,2.207 6.246,2.207 14.122,0 29.18,-0.938 32.637,-0.938 3.446,0 13.801,0.938 26.656,0.938 3.442,0 5.661,-0.293 5.661,-2.207 0,-1.231 -1.278,-2.188 -3.473,-2.188 -1.582,0 -3.766,0 -7.523,-0.918 -10.344,-2.187 -11.598,-9.105 -11.598,-27.906 l -0.625,-183.75 c 0,-20.692 -0.625,-22.27 -2.836,-22.27 -2.484,0 -6.262,3.438 -22.883,20.059 -3.441,3.14 -48.613,49.262 -81.855,84.98 -36.368,39.219 -71.801,78.711 -81.821,90 l 4.098,-150.199 0,0"
             style="fill:#231f20;fill-opacity:1;fill-rule:nonzero;stroke:none"
             id="path38" /><path
             d="m 341.793,428.121 c 0.602,-25.68 3.754,-33.859 12.199,-36.383 5.957,-1.578 12.86,-1.859 15.68,-1.859 1.578,0 2.48,-0.641 2.48,-1.891 0,-1.879 -1.843,-2.5 -5.621,-2.5 -17.863,0 -30.383,0.934 -33.218,0.934 -2.84,0 -16.004,-0.934 -30.125,-0.934 -3.133,0 -5.012,0.313 -5.012,2.5 0,1.25 0.957,1.891 2.512,1.891 2.5,0 8.164,0.281 12.867,1.859 7.8,2.184 9.414,11.313 9.414,39.821 l 0.301,179.671 c 0,12.247 0.925,15.704 3.441,15.704 2.535,0 7.859,-6.914 10.984,-10.059 4.7,-5.312 51.414,-55.824 99.7,-107.523 31.043,-33.262 65.25,-71.52 75.261,-81.832 l -3.445,159.281 c -0.301,20.39 -2.516,27.281 -12.238,29.762 -5.621,1.269 -12.84,1.562 -15.34,1.562 -2.199,0 -2.524,0.957 -2.524,2.188 0,1.914 2.524,2.207 6.246,2.207 14.122,0 29.18,-0.938 32.637,-0.938 3.446,0 13.801,0.938 26.656,0.938 3.442,0 5.661,-0.293 5.661,-2.207 0,-1.231 -1.278,-2.188 -3.473,-2.188 -1.582,0 -3.766,0 -7.523,-0.918 -10.344,-2.187 -11.598,-9.105 -11.598,-27.906 l -0.625,-183.75 c 0,-20.692 -0.625,-22.27 -2.836,-22.27 -2.484,0 -6.262,3.438 -22.883,20.059 -3.441,3.14 -48.613,49.262 -81.855,84.98 -36.368,39.219 -71.801,78.711 -81.821,90 l 4.098,-150.199 0,0 z"
             style="fill:none;stroke:#231f20;stroke-opacity:1;stroke-width:2.5;stroke-linecap:butt;stroke-linejoin:miter;stroke-miterlimit:3.8637;stroke-dasharray:none"
             id="path40" /><path
             d="m 682.93,476.441 c 0,-30.109 0,-54.902 1.562,-68.062 0.942,-9.098 2.821,-15.981 12.203,-17.231 4.399,-0.679 11.317,-1.269 14.121,-1.269 1.895,0 2.512,-0.969 2.512,-1.891 0,-1.566 -1.574,-2.5 -5.015,-2.5 -17.223,0 -36.985,0.934 -38.563,0.934 -1.535,0 -21.305,-0.934 -30.719,-0.934 -3.441,0 -5.004,0.621 -5.004,2.5 0,0.922 0.586,1.891 2.489,1.891 2.82,0 6.593,0.59 9.418,1.269 6.277,1.25 7.82,8.133 9.082,17.231 1.578,13.16 1.578,37.953 1.578,68.062 l 0,55.161 c 0,48.91 0,57.699 -0.641,67.718 -0.601,10.641 -3.742,15.993 -10.68,17.555 -3.437,0.957 -7.5,1.25 -9.683,1.25 -1.258,0 -2.531,0.625 -2.531,1.895 0,1.894 1.554,2.5 5.011,2.5 10.375,0 30.145,-0.938 31.68,-0.938 1.578,0 21.34,0.938 30.758,0.938 3.43,0 4.988,-0.606 4.988,-2.5 0,-1.27 -1.262,-1.895 -2.504,-1.895 -2.199,0 -4.082,-0.293 -7.836,-0.918 -8.468,-1.562 -10.984,-6.914 -11.582,-17.887 -0.644,-10.019 -0.644,-18.808 -0.644,-67.718 l 0,-55.161"
             style="fill:#231f20;fill-opacity:1;fill-rule:nonzero;stroke:none"
             id="path42" /><path
             d="m 682.93,476.441 c 0,-30.109 0,-54.902 1.562,-68.062 0.942,-9.098 2.821,-15.981 12.203,-17.231 4.399,-0.679 11.317,-1.269 14.121,-1.269 1.895,0 2.512,-0.969 2.512,-1.891 0,-1.566 -1.574,-2.5 -5.015,-2.5 -17.223,0 -36.985,0.934 -38.563,0.934 -1.535,0 -21.305,-0.934 -30.719,-0.934 -3.441,0 -5.004,0.621 -5.004,2.5 0,0.922 0.586,1.891 2.489,1.891 2.82,0 6.593,0.59 9.418,1.269 6.277,1.25 7.82,8.133 9.082,17.231 1.578,13.16 1.578,37.953 1.578,68.062 l 0,55.161 c 0,48.91 0,57.699 -0.641,67.718 -0.601,10.641 -3.742,15.993 -10.68,17.555 -3.437,0.957 -7.5,1.25 -9.683,1.25 -1.258,0 -2.531,0.625 -2.531,1.895 0,1.894 1.554,2.5 5.011,2.5 10.375,0 30.145,-0.938 31.68,-0.938 1.578,0 21.34,0.938 30.758,0.938 3.43,0 4.988,-0.606 4.988,-2.5 0,-1.27 -1.262,-1.895 -2.504,-1.895 -2.199,0 -4.082,-0.293 -7.836,-0.918 -8.468,-1.562 -10.984,-6.914 -11.582,-17.887 -0.644,-10.019 -0.644,-18.808 -0.644,-67.718 l 0,-55.161 z"
             style="fill:none;stroke:#231f20;stroke-opacity:1;stroke-width:2.5;stroke-linecap:butt;stroke-linejoin:miter;stroke-miterlimit:3.8637;stroke-dasharray:none"
             id="path44" /><path
             d="m 888.949,423.75 c 18.199,42.012 60.199,151.422 67.086,174 1.543,4.711 2.836,9.121 2.836,11.918 0,2.52 -0.957,5.645 -4.062,7.207 -3.793,1.25 -8.496,1.25 -11.938,1.25 -1.894,0 -3.476,0.352 -3.476,1.895 0,1.894 1.878,2.5 6.918,2.5 12.527,0 26.964,-0.938 30.742,-0.938 1.883,0 15.355,0.938 24.455,0.938 3.45,0 5.32,-0.606 5.32,-2.207 0,-1.563 -1.25,-2.188 -3.77,-2.188 -2.19,0 -9.083,0 -15.009,-3.75 -4.121,-2.812 -8.836,-8.184 -17.281,-29.453 -3.434,-8.813 -19.137,-46.442 -35.102,-85 -19.121,-45.762 -33.234,-79.652 -40.473,-94.961 -8.777,-18.852 -10.039,-23.891 -13.164,-23.891 -3.773,0 -5.32,4.418 -11.277,19.461 L 793.91,592.73 c -6.898,17.563 -11.597,21.02 -22.558,24.145 -4.715,1.25 -10.059,1.25 -11.918,1.25 -1.868,0 -2.52,0.957 -2.52,2.188 0,1.914 3.16,2.207 8.16,2.207 15.039,0 32.934,-0.938 36.664,-0.938 3.157,0 17.278,0.938 29.176,0.938 5.641,0 8.461,-0.606 8.461,-2.207 0,-1.563 -0.937,-2.188 -3.121,-2.188 -3.457,0 -9.082,-0.293 -11.902,-1.562 -3.457,-1.543 -4.098,-4.063 -4.098,-6.27 0,-4.102 3.801,-13.773 8.48,-26.012 l 60.215,-160.531 0,0"
             style="fill:#231f20;fill-opacity:1;fill-rule:nonzero;stroke:none"
             id="path46" /><path
             d="m 888.949,423.75 c 18.199,42.012 60.199,151.422 67.086,174 1.543,4.711 2.836,9.121 2.836,11.918 0,2.52 -0.957,5.645 -4.062,7.207 -3.793,1.25 -8.496,1.25 -11.938,1.25 -1.894,0 -3.476,0.352 -3.476,1.895 0,1.894 1.878,2.5 6.918,2.5 12.527,0 26.964,-0.938 30.742,-0.938 1.883,0 15.355,0.938 24.455,0.938 3.45,0 5.32,-0.606 5.32,-2.207 0,-1.563 -1.25,-2.188 -3.77,-2.188 -2.19,0 -9.083,0 -15.009,-3.75 -4.121,-2.812 -8.836,-8.184 -17.281,-29.453 -3.434,-8.813 -19.137,-46.442 -35.102,-85 -19.121,-45.762 -33.234,-79.652 -40.473,-94.961 -8.777,-18.852 -10.039,-23.891 -13.164,-23.891 -3.773,0 -5.32,4.418 -11.277,19.461 L 793.91,592.73 c -6.898,17.563 -11.597,21.02 -22.558,24.145 -4.715,1.25 -10.059,1.25 -11.918,1.25 -1.868,0 -2.52,0.957 -2.52,2.188 0,1.914 3.16,2.207 8.16,2.207 15.039,0 32.934,-0.938 36.664,-0.938 3.157,0 17.278,0.938 29.176,0.938 5.641,0 8.461,-0.606 8.461,-2.207 0,-1.563 -0.937,-2.188 -3.121,-2.188 -3.457,0 -9.082,-0.293 -11.902,-1.562 -3.457,-1.543 -4.098,-4.063 -4.098,-6.27 0,-4.102 3.801,-13.773 8.48,-26.012 l 60.215,-160.531 0,0 z"
             style="fill:none;stroke:#231f20;stroke-opacity:1;stroke-width:2.5;stroke-linecap:butt;stroke-linejoin:miter;stroke-miterlimit:3.8637;stroke-dasharray:none"
             id="path48" /><path
             d="m 1079.89,531.602 c 0,48.91 0,57.699 -0.63,67.718 -0.61,10.641 -3.15,15.7 -13.49,17.887 -2.5,0.625 -7.85,0.918 -10.67,0.918 -1.23,0 -2.51,0.625 -2.51,1.895 0,1.894 1.58,2.5 5.04,2.5 14.14,0 33.84,-0.938 35.43,-0.938 2.19,0 64.59,0 71.79,0.332 6,0.313 11,0.899 13.5,1.563 1.54,0.293 2.79,1.562 4.38,1.562 0.94,0 1.24,-1.269 1.24,-2.812 0,-2.207 -1.54,-5.957 -2.5,-14.766 -0.33,-3.109 -0.97,-16.891 -1.58,-20.66 -0.28,-1.61 -0.92,-3.461 -2.15,-3.461 -1.89,0 -2.54,1.582 -2.54,4.058 0,2.231 -0.29,7.543 -1.85,11.313 -2.21,5 -5.35,8.75 -22.28,10.641 -5.32,0.609 -39.52,0.941 -42.97,0.941 -1.23,0 -1.85,-0.941 -1.85,-3.102 l 0,-86.55 c 0,-2.2 0.28,-3.161 1.85,-3.161 4.07,0 42.67,0 49.88,0.622 7.5,0.628 11.91,1.269 14.73,4.418 2.2,2.48 3.44,4.062 4.68,4.062 0.96,0 1.58,-0.66 1.58,-2.48 0,-1.911 -1.58,-7.262 -2.53,-17.582 -0.59,-6.29 -1.24,-17.911 -1.24,-20.059 0,-2.539 0,-5.973 -2.18,-5.973 -1.56,0 -2.17,1.25 -2.17,2.832 0,3.141 0,6.231 -1.29,10.352 -1.25,4.379 -4.08,9.707 -16.31,10.957 -8.46,0.941 -39.48,1.562 -44.81,1.562 -1.57,0 -2.19,-0.941 -2.19,-2.191 l 0,-27.559 c 0,-10.679 -0.34,-47.089 0,-53.652 0.92,-21.617 5.62,-25.719 36.35,-25.719 8.17,0 21.94,0 30.11,3.461 8.15,3.43 11.93,9.699 14.07,22.559 0.65,3.469 1.3,4.699 2.84,4.699 1.89,0 1.89,-2.519 1.89,-4.699 0,-2.5 -2.5,-23.809 -4.08,-30.418 -2.18,-8.141 -4.7,-8.141 -16.91,-8.141 -47.39,0 -68.37,1.891 -77.46,1.891 -0.62,0 -5.98,-0.313 -12.53,-0.313 -6.3,-0.308 -13.49,-0.621 -18.2,-0.621 -3.45,0 -5.02,0.621 -5.02,2.5 0,0.922 0.61,1.891 2.5,1.891 2.84,0 6.62,0.59 9.41,1.269 6.25,1.25 7.85,8.133 9.09,17.231 1.58,13.16 1.58,37.953 1.58,68.062 l 0,55.161"
             style="fill:#231f20;fill-opacity:1;fill-rule:nonzero;stroke:none"
             id="path50" /><path
             d="m 1079.89,531.602 c 0,48.91 0,57.699 -0.63,67.718 -0.61,10.641 -3.15,15.7 -13.49,17.887 -2.5,0.625 -7.85,0.918 -10.67,0.918 -1.23,0 -2.51,0.625 -2.51,1.895 0,1.894 1.58,2.5 5.04,2.5 14.14,0 33.84,-0.938 35.43,-0.938 2.19,0 64.59,0 71.79,0.332 6,0.313 11,0.899 13.5,1.563 1.54,0.293 2.79,1.562 4.38,1.562 0.94,0 1.24,-1.269 1.24,-2.812 0,-2.207 -1.54,-5.957 -2.5,-14.766 -0.33,-3.109 -0.97,-16.891 -1.58,-20.66 -0.28,-1.61 -0.92,-3.461 -2.15,-3.461 -1.89,0 -2.54,1.582 -2.54,4.058 0,2.231 -0.29,7.543 -1.85,11.313 -2.21,5 -5.35,8.75 -22.28,10.641 -5.32,0.609 -39.52,0.941 -42.97,0.941 -1.23,0 -1.85,-0.941 -1.85,-3.102 l 0,-86.55 c 0,-2.2 0.28,-3.161 1.85,-3.161 4.07,0 42.67,0 49.88,0.622 7.5,0.628 11.91,1.269 14.73,4.418 2.2,2.48 3.44,4.062 4.68,4.062 0.96,0 1.58,-0.66 1.58,-2.48 0,-1.911 -1.58,-7.262 -2.53,-17.582 -0.59,-6.29 -1.24,-17.911 -1.24,-20.059 0,-2.539 0,-5.973 -2.18,-5.973 -1.56,0 -2.17,1.25 -2.17,2.832 0,3.141 0,6.231 -1.29,10.352 -1.25,4.379 -4.08,9.707 -16.31,10.957 -8.46,0.941 -39.48,1.562 -44.81,1.562 -1.57,0 -2.19,-0.941 -2.19,-2.191 l 0,-27.559 c 0,-10.679 -0.34,-47.089 0,-53.652 0.92,-21.617 5.62,-25.719 36.35,-25.719 8.17,0 21.94,0 30.11,3.461 8.15,3.43 11.93,9.699 14.07,22.559 0.65,3.469 1.3,4.699 2.84,4.699 1.89,0 1.89,-2.519 1.89,-4.699 0,-2.5 -2.5,-23.809 -4.08,-30.418 -2.18,-8.141 -4.7,-8.141 -16.91,-8.141 -47.39,0 -68.37,1.891 -77.46,1.891 -0.62,0 -5.98,-0.313 -12.53,-0.313 -6.3,-0.308 -13.49,-0.621 -18.2,-0.621 -3.45,0 -5.02,0.621 -5.02,2.5 0,0.922 0.61,1.891 2.5,1.891 2.84,0 6.62,0.59 9.41,1.269 6.25,1.25 7.85,8.133 9.09,17.231 1.58,13.16 1.58,37.953 1.58,68.062 l 0,55.161 z"
             style="fill:none;stroke:#231f20;stroke-opacity:1;stroke-width:2.5;stroke-linecap:butt;stroke-linejoin:miter;stroke-miterlimit:3.8637;stroke-dasharray:none"
             id="path52" /><path
             d="m 1297.51,476.441 c 0,-30.109 0,-54.902 -1.6,-68.062 -1.23,-9.098 -2.79,-15.981 -9.08,-17.231 -2.84,-0.679 -6.56,-1.269 -9.44,-1.269 -1.85,0 -2.48,-0.969 -2.48,-1.891 0,-1.879 1.6,-2.5 5.04,-2.5 9.43,0 29.16,0.934 29.48,0.934 1.54,0 21.32,-0.934 38.57,-0.934 3.44,0 5,0.934 5,2.5 0,0.922 -0.63,1.891 -2.52,1.891 -2.81,0 -9.69,0.59 -14.08,1.269 -9.41,1.25 -11.31,8.133 -12.29,17.231 -1.53,13.16 -1.53,37.953 -1.53,68.062 l 0,7.481 c 0,1.59 0.65,2.539 2.18,2.539 l 38.61,-0.641 c 1.88,0 2.78,-0.629 4.06,-1.898 6.27,-8.16 21.06,-29.172 34.18,-46.383 17.86,-23.539 28.85,-38.91 42.35,-46.117 8.11,-4.371 15.97,-5.934 33.53,-5.934 l 22.27,0 c 5.64,0 7.5,0.621 7.5,2.5 0,0.922 -1.24,1.891 -2.81,1.891 -1.89,0 -6.28,0 -12.25,0.922 -7.81,1.25 -21.32,4.711 -38.23,22.597 -18.2,19.391 -39.5,47.34 -65.23,80.274 28.22,26 37.91,49.219 37.91,72.418 0,21.621 -13.77,37 -21.6,42.64 -16.56,11.934 -37.62,13.79 -57.38,13.79 -9.73,0 -33.54,-0.938 -36.96,-0.938 -1.6,0 -21.33,0.938 -35.47,0.938 -3.45,0 -5.03,-0.606 -5.03,-2.5 0,-1.27 1.25,-1.895 2.5,-1.895 2.83,0 8.15,-0.293 10.69,-0.918 10.34,-2.187 12.89,-7.246 13.48,-17.887 0.63,-10.019 0.63,-18.808 0.63,-67.718 l 0,-55.161 z m 25.07,130.43 c 0,1.859 0.94,3.09 2.51,3.754 3.14,0.938 11.6,1.875 20.97,1.875 33.6,0 54.3,-23.539 54.3,-62.699 0,-23.879 -8.16,-40.762 -19.18,-48.281 -7.19,-5.04 -15.93,-5.989 -23.48,-5.989 -13.82,0 -28.2,2.199 -32.94,5.02 -1.53,0.969 -2.18,2.199 -2.18,3.769 l 0,102.551"
             style="fill:#231f20;fill-opacity:1;fill-rule:nonzero;stroke:none"
             id="path54" /><path
             d="m 1297.51,476.441 c 0,-30.109 0,-54.902 -1.6,-68.062 -1.23,-9.098 -2.79,-15.981 -9.08,-17.231 -2.84,-0.679 -6.56,-1.269 -9.44,-1.269 -1.85,0 -2.48,-0.969 -2.48,-1.891 0,-1.879 1.6,-2.5 5.04,-2.5 9.43,0 29.16,0.934 29.48,0.934 1.54,0 21.32,-0.934 38.57,-0.934 3.44,0 5,0.934 5,2.5 0,0.922 -0.63,1.891 -2.52,1.891 -2.81,0 -9.69,0.59 -14.08,1.269 -9.41,1.25 -11.31,8.133 -12.29,17.231 -1.53,13.16 -1.53,37.953 -1.53,68.062 l 0,7.481 c 0,1.59 0.65,2.539 2.18,2.539 l 38.61,-0.641 c 1.88,0 2.78,-0.629 4.06,-1.898 6.27,-8.16 21.06,-29.172 34.18,-46.383 17.86,-23.539 28.85,-38.91 42.35,-46.117 8.11,-4.371 15.97,-5.934 33.53,-5.934 l 22.27,0 c 5.64,0 7.5,0.621 7.5,2.5 0,0.922 -1.24,1.891 -2.81,1.891 -1.89,0 -6.28,0 -12.25,0.922 -7.81,1.25 -21.32,4.711 -38.23,22.597 -18.2,19.391 -39.5,47.34 -65.23,80.274 28.22,26 37.91,49.219 37.91,72.418 0,21.621 -13.77,37 -21.6,42.64 -16.56,11.934 -37.62,13.79 -57.38,13.79 -9.73,0 -33.54,-0.938 -36.96,-0.938 -1.6,0 -21.33,0.938 -35.47,0.938 -3.45,0 -5.03,-0.606 -5.03,-2.5 0,-1.27 1.25,-1.895 2.5,-1.895 2.83,0 8.15,-0.293 10.69,-0.918 10.34,-2.187 12.89,-7.246 13.48,-17.887 0.63,-10.019 0.63,-18.808 0.63,-67.718 l 0,-55.161 z m 25.07,130.43 c 0,1.859 0.94,3.09 2.51,3.754 3.14,0.938 11.6,1.875 20.97,1.875 33.6,0 54.3,-23.539 54.3,-62.699 0,-23.879 -8.16,-40.762 -19.18,-48.281 -7.19,-5.04 -15.93,-5.989 -23.48,-5.989 -13.82,0 -28.2,2.199 -32.94,5.02 -1.53,0.969 -2.18,2.199 -2.18,3.769 l 0,102.551 z"
             style="fill:none;stroke:#231f20;stroke-opacity:1;stroke-width:2.5;stroke-linecap:butt;stroke-linejoin:miter;stroke-miterlimit:3.8637;stroke-dasharray:none"
             id="path56" /><path
             d="m 1537.15,389.551 c -4.39,2.187 -4.69,3.437 -4.69,11.91 0,15.711 1.23,28.269 1.56,33.25 0.29,3.449 0.94,5.039 2.48,5.039 1.89,0 2.22,-0.941 2.22,-3.48 0,-2.809 0,-7.231 0.94,-11.598 4.71,-23.211 25.41,-32 46.4,-32 30.09,0 44.82,21.668 44.82,41.719 0,21.64 -9.07,34.16 -36.06,56.429 l -14.09,11.621 c -33.24,27.289 -40.77,46.719 -40.77,68.028 0,33.551 25.11,56.465 64.91,56.465 12.2,0 21.31,-1.27 29.17,-3.164 5.97,-1.25 8.48,-1.543 10.95,-1.543 2.52,0 3.17,-0.645 3.17,-2.207 0,-1.543 -1.24,-11.918 -1.24,-33.219 0,-5.039 -0.69,-7.231 -2.21,-7.231 -1.9,0 -2.19,1.559 -2.52,4.059 -0.32,3.769 -2.18,12.25 -4.09,15.691 -1.87,3.43 -10.36,16.637 -39.15,16.637 -21.68,0 -38.64,-13.496 -38.64,-36.387 0,-17.851 8.81,-28.539 38.26,-52.66 l 8.81,-6.91 c 36.97,-29.18 45.78,-48.609 45.78,-73.668 0,-12.871 -5,-36.703 -26.66,-52.07 -13.43,-9.403 -30.41,-13.192 -47.32,-13.192 -14.78,0 -29.15,2.211 -42.03,8.481 l 0,0"
             style="fill:#231f20;fill-opacity:1;fill-rule:nonzero;stroke:none"
             id="path58" /><path
             d="m 1537.15,389.551 c -4.39,2.187 -4.69,3.437 -4.69,11.91 0,15.711 1.23,28.269 1.56,33.25 0.29,3.449 0.94,5.039 2.48,5.039 1.89,0 2.22,-0.941 2.22,-3.48 0,-2.809 0,-7.231 0.94,-11.598 4.71,-23.211 25.41,-32 46.4,-32 30.09,0 44.82,21.668 44.82,41.719 0,21.64 -9.07,34.16 -36.06,56.429 l -14.09,11.621 c -33.24,27.289 -40.77,46.719 -40.77,68.028 0,33.551 25.11,56.465 64.91,56.465 12.2,0 21.31,-1.27 29.17,-3.164 5.97,-1.25 8.48,-1.543 10.95,-1.543 2.52,0 3.17,-0.645 3.17,-2.207 0,-1.543 -1.24,-11.918 -1.24,-33.219 0,-5.039 -0.69,-7.231 -2.21,-7.231 -1.9,0 -2.19,1.559 -2.52,4.059 -0.32,3.769 -2.18,12.25 -4.09,15.691 -1.87,3.43 -10.36,16.637 -39.15,16.637 -21.68,0 -38.64,-13.496 -38.64,-36.387 0,-17.851 8.81,-28.539 38.26,-52.66 l 8.81,-6.91 c 36.97,-29.18 45.78,-48.609 45.78,-73.668 0,-12.871 -5,-36.703 -26.66,-52.07 -13.43,-9.403 -30.41,-13.192 -47.32,-13.192 -14.78,0 -29.15,2.211 -42.03,8.481 l 0,0 z"
             style="fill:none;stroke:#231f20;stroke-opacity:1;stroke-width:2.5;stroke-linecap:butt;stroke-linejoin:miter;stroke-miterlimit:3.8637;stroke-dasharray:none"
             id="path60" /><path
             d="m 1788.61,476.441 c 0,-30.109 0,-54.902 1.58,-68.062 0.91,-9.098 2.82,-15.981 12.23,-17.231 4.39,-0.679 11.31,-1.269 14.12,-1.269 1.87,0 2.48,-0.969 2.48,-1.891 0,-1.566 -1.56,-2.5 -5,-2.5 -17.25,0 -37.02,0.934 -38.58,0.934 -1.57,0 -21.35,-0.934 -30.73,-0.934 -3.46,0 -5,0.621 -5,2.5 0,0.922 0.62,1.891 2.49,1.891 2.83,0 6.61,0.59 9.39,1.269 6.29,1.25 7.85,8.133 9.11,17.231 1.56,13.16 1.56,37.953 1.56,68.062 l 0,55.161 c 0,48.91 0,57.699 -0.62,67.718 -0.63,10.641 -3.76,15.993 -10.63,17.555 -3.47,0.957 -7.57,1.25 -9.76,1.25 -1.24,0 -2.48,0.625 -2.48,1.895 0,1.894 1.56,2.5 5.02,2.5 10.3,0 30.08,-0.938 31.65,-0.938 1.56,0 21.33,0.938 30.75,0.938 3.41,0 5,-0.606 5,-2.5 0,-1.27 -1.28,-1.895 -2.51,-1.895 -2.2,0 -4.08,-0.293 -7.81,-0.918 -8.51,-1.562 -11.01,-6.914 -11.63,-17.887 -0.63,-10.019 -0.63,-18.808 -0.63,-67.718 l 0,-55.161"
             style="fill:#231f20;fill-opacity:1;fill-rule:nonzero;stroke:none"
             id="path62" /><path
             d="m 1788.61,476.441 c 0,-30.109 0,-54.902 1.58,-68.062 0.91,-9.098 2.82,-15.981 12.23,-17.231 4.39,-0.679 11.31,-1.269 14.12,-1.269 1.87,0 2.48,-0.969 2.48,-1.891 0,-1.566 -1.56,-2.5 -5,-2.5 -17.25,0 -37.02,0.934 -38.58,0.934 -1.57,0 -21.35,-0.934 -30.73,-0.934 -3.46,0 -5,0.621 -5,2.5 0,0.922 0.62,1.891 2.49,1.891 2.83,0 6.61,0.59 9.39,1.269 6.29,1.25 7.85,8.133 9.11,17.231 1.56,13.16 1.56,37.953 1.56,68.062 l 0,55.161 c 0,48.91 0,57.699 -0.62,67.718 -0.63,10.641 -3.76,15.993 -10.63,17.555 -3.47,0.957 -7.57,1.25 -9.76,1.25 -1.24,0 -2.48,0.625 -2.48,1.895 0,1.894 1.56,2.5 5.02,2.5 10.3,0 30.08,-0.938 31.65,-0.938 1.56,0 21.33,0.938 30.75,0.938 3.41,0 5,-0.606 5,-2.5 0,-1.27 -1.28,-1.895 -2.51,-1.895 -2.2,0 -4.08,-0.293 -7.81,-0.918 -8.51,-1.562 -11.01,-6.914 -11.63,-17.887 -0.63,-10.019 -0.63,-18.808 -0.63,-67.718 l 0,-55.161 z"
             style="fill:none;stroke:#231f20;stroke-opacity:1;stroke-width:2.5;stroke-linecap:butt;stroke-linejoin:miter;stroke-miterlimit:3.8637;stroke-dasharray:none"
             id="path64" /><path
             d="m 1993.35,476.441 c 0,-30.109 0,-54.902 1.59,-68.062 0.97,-9.098 2.8,-15.981 12.22,-17.231 4.37,-0.679 11.29,-1.269 14.09,-1.269 1.88,0 2.58,-0.969 2.58,-1.891 0,-1.566 -1.6,-2.5 -5.06,-2.5 -17.26,0 -37.02,0.934 -38.58,0.934 -1.52,0 -21.3,-0.934 -30.71,-0.934 -3.46,0 -5.02,0.621 -5.02,2.5 0,0.922 0.61,1.891 2.52,1.891 2.8,0 6.57,0.59 9.39,1.269 6.26,1.25 7.8,8.133 9.11,17.231 1.56,13.16 1.56,37.953 1.56,68.062 l 0,132.598 -46.41,-0.598 c -19.48,-0.339 -27,-2.519 -31.99,-10.043 -3.43,-5.328 -4.37,-7.519 -5.35,-9.769 -0.96,-2.481 -1.85,-3.098 -3.13,-3.098 -0.91,0 -1.55,0.949 -1.55,2.848 0,3.101 6.24,30.098 6.9,32.617 0.64,1.817 1.89,5.938 3.13,5.938 2.21,0 5.32,-3.164 13.83,-3.77 9.04,-0.937 20.98,-1.582 24.76,-1.582 l 117.57,0 c 10.02,0 17.21,0.938 22.26,1.582 4.71,0.938 7.51,1.563 8.77,1.563 1.56,0 1.56,-1.914 1.56,-3.731 0,-9.433 -0.9,-31.074 -0.9,-34.516 0,-2.851 -0.96,-4.082 -2.22,-4.082 -1.58,0 -2.19,0.942 -2.5,5.313 l -0.34,3.437 c -1.24,9.422 -8.46,16.641 -38.59,17.293 l -39.49,0.598 0,-132.598"
             style="fill:#231f20;fill-opacity:1;fill-rule:nonzero;stroke:none"
             id="path66" /><path
             d="m 1993.35,476.441 c 0,-30.109 0,-54.902 1.59,-68.062 0.97,-9.098 2.8,-15.981 12.22,-17.231 4.37,-0.679 11.29,-1.269 14.09,-1.269 1.88,0 2.58,-0.969 2.58,-1.891 0,-1.566 -1.6,-2.5 -5.06,-2.5 -17.26,0 -37.02,0.934 -38.58,0.934 -1.52,0 -21.3,-0.934 -30.71,-0.934 -3.46,0 -5.02,0.621 -5.02,2.5 0,0.922 0.61,1.891 2.52,1.891 2.8,0 6.57,0.59 9.39,1.269 6.26,1.25 7.8,8.133 9.11,17.231 1.56,13.16 1.56,37.953 1.56,68.062 l 0,132.598 -46.41,-0.598 c -19.48,-0.339 -27,-2.519 -31.99,-10.043 -3.43,-5.328 -4.37,-7.519 -5.35,-9.769 -0.96,-2.481 -1.85,-3.098 -3.13,-3.098 -0.91,0 -1.55,0.949 -1.55,2.848 0,3.101 6.24,30.098 6.9,32.617 0.64,1.817 1.89,5.938 3.13,5.938 2.21,0 5.32,-3.164 13.83,-3.77 9.04,-0.937 20.98,-1.582 24.76,-1.582 l 117.57,0 c 10.02,0 17.21,0.938 22.26,1.582 4.71,0.938 7.51,1.563 8.77,1.563 1.56,0 1.56,-1.914 1.56,-3.731 0,-9.433 -0.9,-31.074 -0.9,-34.516 0,-2.851 -0.96,-4.082 -2.22,-4.082 -1.58,0 -2.19,0.942 -2.5,5.313 l -0.34,3.437 c -1.24,9.422 -8.46,16.641 -38.59,17.293 l -39.49,0.598 0,-132.598 z"
             style="fill:none;stroke:#231f20;stroke-opacity:1;stroke-width:2.5;stroke-linecap:butt;stroke-linejoin:miter;stroke-miterlimit:3.8637;stroke-dasharray:none"
             id="path68" /><path
             d="m 2211.27,466.68 c 0,16.929 -3.12,23.851 -7.19,32.949 -2.21,5 -44.21,73.961 -55.17,90.293 -7.87,11.598 -15.7,19.43 -21.36,23.203 -4.7,3.145 -10.65,5 -13.46,5 -1.59,0 -3.14,0.625 -3.14,2.188 0,1.269 1.24,2.207 4.04,2.207 5.98,0 29.52,-0.938 31.08,-0.938 2.22,0 14.08,0.938 26.36,0.938 3.44,0 4.05,-0.938 4.05,-2.207 0,-1.231 -1.83,-1.563 -4.69,-2.793 -2.52,-1.25 -4.07,-3.145 -4.07,-5.645 0,-3.773 1.55,-7.523 4.07,-12.246 4.98,-9.059 52.04,-89.981 57.7,-99.078 5.96,13.179 45.74,81.847 52.01,92.179 4.11,6.59 5.38,11.961 5.38,16 0,4.395 -1.27,7.833 -5.06,8.79 -2.81,0.957 -4.7,1.562 -4.7,3.144 0,1.25 1.89,1.856 5.05,1.856 8.13,0 18.15,-0.938 20.66,-0.938 1.9,0 24.46,0.938 30.4,0.938 2.2,0 4.11,-0.606 4.11,-1.856 0,-1.582 -1.56,-2.539 -4.11,-2.539 -3.39,0 -9.39,-1.25 -14.4,-4.375 -6.24,-3.789 -9.73,-7.559 -16.59,-16 -10.39,-12.559 -54.31,-86.211 -59.9,-99.699 -4.69,-11.289 -4.69,-21.02 -4.69,-31.371 l 0,-26.93 c 0,-5.039 0,-18.211 0.91,-31.371 0.63,-9.098 3.43,-15.981 12.83,-17.231 4.42,-0.679 11.31,-1.269 14.12,-1.269 1.92,0 2.56,-0.969 2.56,-1.891 0,-1.566 -1.61,-2.5 -5.06,-2.5 -17.26,0 -36.95,0.934 -38.57,0.934 -1.56,0 -21.3,-0.934 -30.7,-0.934 -3.47,0 -5.03,0.621 -5.03,2.5 0,0.922 0.62,1.891 2.52,1.891 2.8,0 6.55,0.59 9.4,1.269 6.28,1.25 9.12,8.133 9.71,17.231 0.93,13.16 0.93,26.332 0.93,31.371 l 0,26.93"
             style="fill:#231f20;fill-opacity:1;fill-rule:nonzero;stroke:none"
             id="path70" /><path
             d="m 2211.27,466.68 c 0,16.929 -3.12,23.851 -7.19,32.949 -2.21,5 -44.21,73.961 -55.17,90.293 -7.87,11.598 -15.7,19.43 -21.36,23.203 -4.7,3.145 -10.65,5 -13.46,5 -1.59,0 -3.14,0.625 -3.14,2.188 0,1.269 1.24,2.207 4.04,2.207 5.98,0 29.52,-0.938 31.08,-0.938 2.22,0 14.08,0.938 26.36,0.938 3.44,0 4.05,-0.938 4.05,-2.207 0,-1.231 -1.83,-1.563 -4.69,-2.793 -2.52,-1.25 -4.07,-3.145 -4.07,-5.645 0,-3.773 1.55,-7.523 4.07,-12.246 4.98,-9.059 52.04,-89.981 57.7,-99.078 5.96,13.179 45.74,81.847 52.01,92.179 4.11,6.59 5.38,11.961 5.38,16 0,4.395 -1.27,7.833 -5.06,8.79 -2.81,0.957 -4.7,1.562 -4.7,3.144 0,1.25 1.89,1.856 5.05,1.856 8.13,0 18.15,-0.938 20.66,-0.938 1.9,0 24.46,0.938 30.4,0.938 2.2,0 4.11,-0.606 4.11,-1.856 0,-1.582 -1.56,-2.539 -4.11,-2.539 -3.39,0 -9.39,-1.25 -14.4,-4.375 -6.24,-3.789 -9.73,-7.559 -16.59,-16 -10.39,-12.559 -54.31,-86.211 -59.9,-99.699 -4.69,-11.289 -4.69,-21.02 -4.69,-31.371 l 0,-26.93 c 0,-5.039 0,-18.211 0.91,-31.371 0.63,-9.098 3.43,-15.981 12.83,-17.231 4.42,-0.679 11.31,-1.269 14.12,-1.269 1.92,0 2.56,-0.969 2.56,-1.891 0,-1.566 -1.61,-2.5 -5.06,-2.5 -17.26,0 -36.95,0.934 -38.57,0.934 -1.56,0 -21.3,-0.934 -30.7,-0.934 -3.47,0 -5.03,0.621 -5.03,2.5 0,0.922 0.62,1.891 2.52,1.891 2.8,0 6.55,0.59 9.4,1.269 6.28,1.25 9.12,8.133 9.71,17.231 0.93,13.16 0.93,26.332 0.93,31.371 l 0,26.93 z"
             style="fill:none;stroke:#231f20;stroke-opacity:1;stroke-width:2.5;stroke-linecap:butt;stroke-linejoin:miter;stroke-miterlimit:3.8637;stroke-dasharray:none"
             id="path72" /><path
             d="m 452.965,165.699 c 0,-35.758 22.637,-78.1209 77.125,-78.1209 47.89,0 79.32,36.7739 79.32,81.2929 0,46.34 -33.398,74.551 -78.148,74.551 -54.867,0 -78.297,-45.492 -78.297,-77.723 l 0,0 z m 18.855,5.59 c 0,43.512 24.856,65.371 58.051,65.371 31.418,0 60.449,-25.648 60.449,-73.359 0,-57.832 -36.996,-68.1799 -54.89,-68.1799 -35.758,0 -63.61,29.8199 -63.61,76.1679 l 0,0"
             style="fill:#231f20;fill-opacity:1;fill-rule:nonzero;stroke:none"
             id="path74" /><path
             d="m 452.965,165.699 c 0,-35.758 22.637,-78.1209 77.125,-78.1209 47.89,0 79.32,36.7739 79.32,81.2929 0,46.34 -33.398,74.551 -78.148,74.551 -54.867,0 -78.297,-45.492 -78.297,-77.723 l 0,0 z m 18.855,5.59 c 0,43.512 24.856,65.371 58.051,65.371 31.418,0 60.449,-25.648 60.449,-73.359 0,-57.832 -36.996,-68.1799 -54.89,-68.1799 -35.758,0 -63.61,29.8199 -63.61,76.1679 l 0,0 z"
             style="fill:none;stroke:#231f20;stroke-opacity:1;stroke-width:3;stroke-linecap:butt;stroke-linejoin:miter;stroke-miterlimit:3.8637;stroke-dasharray:none"
             id="path76" /><path
             d="m 668.281,182.988 c 0,30.992 0,36.582 -0.41,42.973 -0.391,6.711 -2.008,9.918 -8.531,11.301 -1.613,0.398 -4.985,0.59 -6.758,0.59 -0.797,0 -1.598,0.41 -1.598,1.207 0,1.211 0.996,1.601 3.161,1.601 8.976,0 21.5,-0.582 22.488,-0.582 3.957,0 44.308,0 48.902,0.192 3.781,0.199 6.942,0.199 8.707,0.781 1.227,0.371 2.008,1.179 2.809,1.179 0.797,0 1.203,-0.808 1.203,-1.761 0,-1.41 -0.981,-3.809 -1.598,-9.379 -0.195,-1.988 -0.601,-10.719 -0.992,-13.102 -0.195,-1.019 -0.605,-2.187 -1.598,-2.187 -0.996,0 -1.363,1 -1.363,2.398 0,1.582 -0.617,4.942 -1.808,7.52 -1.188,2.582 -5.801,6.172 -13.516,6.371 l -30.637,0.582 c -1.172,0 -1.793,-0.582 -1.793,-2.121 l 0,-54.91 c 0,-1.211 0.231,-1.789 1.422,-1.789 l 25.422,0.187 c 3.422,0 6.172,0 8.973,0.223 4.769,0.386 7.359,0.988 9.152,3.57 0.781,1.02 1.352,1.988 2.168,1.988 0.789,0 0.984,-0.582 0.984,-1.601 0,-1.188 -0.984,-4.571 -1.57,-11.129 -0.391,-3.969 -0.801,-11.918 -0.801,-13.301 0,-1.801 0,-3.789 -1.383,-3.789 -1.011,0 -1.421,0.801 -1.421,1.801 -0.176,1.988 -0.391,4.758 -1.184,7.14 -0.996,2.778 -4.152,6.368 -10.309,7.149 -4.98,0.609 -26.66,0.609 -30.031,0.609 -1.012,0 -1.422,-0.39 -1.422,-1.82 l 0,-16.867 c 0,-19.071 0,-34.774 1.012,-43.192 0.605,-5.6989 1.793,-10.0895 7.762,-10.8786 2.793,-0.3906 7.16,-0.8203 8.933,-0.8203 1.188,0 1.614,-0.5625 1.614,-1.1719 0,-0.9883 -0.993,-1.5781 -3.192,-1.5781 -10.945,0 -23.449,0.5898 -24.445,0.5898 -0.988,0 -13.512,-0.5898 -19.477,-0.5898 -2.195,0 -3.187,0.3906 -3.187,1.5781 0,0.6094 0.386,1.1719 1.594,1.1719 1.792,0 4.167,0.4297 5.941,0.8203 3.969,0.7891 4.98,5.1797 5.762,10.8786 1.015,8.418 1.015,24.121 1.015,43.192 l 0,34.976"
             style="fill:#231f20;fill-opacity:1;fill-rule:nonzero;stroke:none"
             id="path78" /><path
             d="m 668.281,182.988 c 0,30.992 0,36.582 -0.41,42.973 -0.391,6.711 -2.008,9.918 -8.531,11.301 -1.613,0.398 -4.985,0.59 -6.758,0.59 -0.797,0 -1.598,0.41 -1.598,1.207 0,1.211 0.996,1.601 3.161,1.601 8.976,0 21.5,-0.582 22.488,-0.582 3.957,0 44.308,0 48.902,0.192 3.781,0.199 6.942,0.199 8.707,0.781 1.227,0.371 2.008,1.179 2.809,1.179 0.797,0 1.203,-0.808 1.203,-1.761 0,-1.41 -0.981,-3.809 -1.598,-9.379 -0.195,-1.988 -0.601,-10.719 -0.992,-13.102 -0.195,-1.019 -0.605,-2.187 -1.598,-2.187 -0.996,0 -1.363,1 -1.363,2.398 0,1.582 -0.617,4.942 -1.808,7.52 -1.188,2.582 -5.801,6.172 -13.516,6.371 l -30.637,0.582 c -1.172,0 -1.793,-0.582 -1.793,-2.121 l 0,-54.91 c 0,-1.211 0.231,-1.789 1.422,-1.789 l 25.422,0.187 c 3.422,0 6.172,0 8.973,0.223 4.769,0.386 7.359,0.988 9.152,3.57 0.781,1.02 1.352,1.988 2.168,1.988 0.789,0 0.984,-0.582 0.984,-1.601 0,-1.188 -0.984,-4.571 -1.57,-11.129 -0.391,-3.969 -0.801,-11.918 -0.801,-13.301 0,-1.801 0,-3.789 -1.383,-3.789 -1.011,0 -1.421,0.801 -1.421,1.801 -0.176,1.988 -0.391,4.758 -1.184,7.14 -0.996,2.778 -4.152,6.368 -10.309,7.149 -4.98,0.609 -26.66,0.609 -30.031,0.609 -1.012,0 -1.422,-0.39 -1.422,-1.82 l 0,-16.867 c 0,-19.071 0,-34.774 1.012,-43.192 0.605,-5.6989 1.793,-10.0895 7.762,-10.8786 2.793,-0.3906 7.16,-0.8203 8.933,-0.8203 1.188,0 1.614,-0.5625 1.614,-1.1719 0,-0.9883 -0.993,-1.5781 -3.192,-1.5781 -10.945,0 -23.449,0.5898 -24.445,0.5898 -0.988,0 -13.512,-0.5898 -19.477,-0.5898 -2.195,0 -3.187,0.3906 -3.187,1.5781 0,0.6094 0.386,1.1719 1.594,1.1719 1.792,0 4.167,0.4297 5.941,0.8203 3.969,0.7891 4.98,5.1797 5.762,10.8786 1.015,8.418 1.015,24.121 1.015,43.192 l 0,34.976 z"
             style="fill:none;stroke:#231f20;stroke-opacity:1;stroke-width:3;stroke-linecap:butt;stroke-linejoin:miter;stroke-miterlimit:3.8637;stroke-dasharray:none"
             id="path80" /><path
             d="m 886.234,151.781 c 0,48.918 0,57.707 -0.621,67.75 -0.617,10.641 -3.125,15.641 -13.465,17.828 -2.515,0.629 -7.851,0.961 -10.687,0.961 -1.246,0 -2.484,0.602 -2.484,1.871 0,1.899 1.543,2.5 5,2.5 14.105,0 33.253,-0.91 36.062,-0.91 2.836,0 21.656,0.91 31.074,0.91 3.422,0 5.004,-0.601 5.004,-2.5 0,-1.269 -1.246,-1.871 -2.504,-1.871 -2.195,0 -4.097,-0.332 -7.855,-0.961 -8.461,-1.23 -10.977,-6.871 -11.586,-17.828 -0.656,-10.043 -0.656,-18.832 -0.656,-67.75 l 0,-43.91 c 0,-45.1796 10.058,-64.5897 23.535,-77.4608 15.367,-14.3985 29.469,-17.211 47.363,-17.211 19.086,0 37.896,9.0821 49.216,22.5625 14.42,17.8477 18.15,44.4883 18.15,76.8163 l 0,39.203 c 0,48.918 0,57.707 -0.6,67.75 -0.62,10.641 -3.13,15.641 -13.47,17.828 -2.5,0.629 -7.86,0.961 -10.64,0.961 -1.3,0 -2.55,0.602 -2.55,1.871 0,1.899 1.57,2.5 5.04,2.5 14.08,0 31.34,-0.91 33.23,-0.91 2.19,0 16.94,0.91 26.34,0.91 3.45,0 5.02,-0.601 5.02,-2.5 0,-1.269 -1.24,-1.871 -2.53,-1.871 -2.17,0 -4.06,0 -7.83,-0.961 -8.47,-1.558 -10.99,-6.871 -11.61,-17.828 -0.61,-10.043 -0.61,-18.832 -0.61,-67.75 l 0,-33.562 c 0,-33.8479 -3.75,-71.5002 -28.84,-93.7698 C 1020.14,4.41016 996.602,1.25 978.137,1.25 c -10.664,0 -42.36,1.23047 -64.621,22.2813 -15.34,14.707 -27.282,36.6796 -27.282,82.4687 l 0,45.781"
             style="fill:#231f20;fill-opacity:1;fill-rule:nonzero;stroke:none"
             id="path82" /><path
             d="m 886.234,151.781 c 0,48.918 0,57.707 -0.621,67.75 -0.617,10.641 -3.125,15.641 -13.465,17.828 -2.515,0.629 -7.851,0.961 -10.687,0.961 -1.246,0 -2.484,0.602 -2.484,1.871 0,1.899 1.543,2.5 5,2.5 14.105,0 33.253,-0.91 36.062,-0.91 2.836,0 21.656,0.91 31.074,0.91 3.422,0 5.004,-0.601 5.004,-2.5 0,-1.269 -1.246,-1.871 -2.504,-1.871 -2.195,0 -4.097,-0.332 -7.855,-0.961 -8.461,-1.23 -10.977,-6.871 -11.586,-17.828 -0.656,-10.043 -0.656,-18.832 -0.656,-67.75 l 0,-43.91 c 0,-45.1796 10.058,-64.5897 23.535,-77.4608 15.367,-14.3985 29.469,-17.211 47.363,-17.211 19.086,0 37.896,9.0821 49.216,22.5625 14.42,17.8477 18.15,44.4883 18.15,76.8163 l 0,39.203 c 0,48.918 0,57.707 -0.6,67.75 -0.62,10.641 -3.13,15.641 -13.47,17.828 -2.5,0.629 -7.86,0.961 -10.64,0.961 -1.3,0 -2.55,0.602 -2.55,1.871 0,1.899 1.57,2.5 5.04,2.5 14.08,0 31.34,-0.91 33.23,-0.91 2.19,0 16.94,0.91 26.34,0.91 3.45,0 5.02,-0.601 5.02,-2.5 0,-1.269 -1.24,-1.871 -2.53,-1.871 -2.17,0 -4.06,0 -7.83,-0.961 -8.47,-1.558 -10.99,-6.871 -11.61,-17.828 -0.61,-10.043 -0.61,-18.832 -0.61,-67.75 l 0,-33.562 c 0,-33.8479 -3.75,-71.5002 -28.84,-93.7698 C 1020.14,4.41016 996.602,1.25 978.137,1.25 c -10.664,0 -42.36,1.23047 -64.621,22.2813 -15.34,14.707 -27.282,36.6796 -27.282,82.4687 l 0,45.781 z"
             style="fill:none;stroke:#231f20;stroke-opacity:1;stroke-width:2.5;stroke-linecap:butt;stroke-linejoin:miter;stroke-miterlimit:3.8637;stroke-dasharray:none"
             id="path84" /><path
             d="m 1257.82,96.5586 c 0,-30.1172 0,-54.8594 1.56,-67.9883 0.96,-9.1211 2.86,-16.0312 12.24,-17.2812 4.4,-0.6094 11.28,-1.2305 14.09,-1.2305 1.89,0 2.52,-0.95704 2.52,-1.89844 0,-1.57813 -1.54,-2.51953 -4.98,-2.51953 -17.24,0 -37.03,0.9414 -38.61,0.9414 -1.56,0 -21.31,-0.9414 -30.68,-0.9414 -3.47,0 -5.08,0.64843 -5.08,2.51953 0,0.9414 0.66,1.89844 2.56,1.89844 2.8,0 6.56,0.6211 9.39,1.2305 6.23,1.25 7.83,8.1601 9.08,17.2812 1.56,13.1289 1.56,37.8711 1.56,67.9883 l 0,132.6794 -46.41,-0.668 c -19.44,-0.269 -26.96,-2.5 -31.96,-10 -3.44,-5.351 -4.42,-7.558 -5.35,-9.761 -0.93,-2.481 -1.88,-3.09 -3.11,-3.09 -0.96,0 -1.58,0.922 -1.58,2.793 0,3.187 6.28,30.117 6.91,32.617 0.59,1.883 1.86,5.98 3.13,5.98 2.18,0 5.35,-3.148 13.78,-3.769 9.12,-0.981 21,-1.559 24.78,-1.559 l 117.59,0 c 9.99,0 17.22,0.91 22.26,1.559 4.69,0.961 7.5,1.539 8.77,1.539 1.59,0 1.59,-1.867 1.59,-3.75 0,-9.391 -0.97,-31.027 -0.97,-34.488 0,-2.832 -0.93,-4.082 -2.18,-4.082 -1.55,0 -2.19,0.953 -2.52,5.351 l -0.29,3.442 c -1.23,9.41 -8.5,16.617 -38.56,17.218 l -39.53,0.668 0,-132.6794"
             style="fill:#231f20;fill-opacity:1;fill-rule:nonzero;stroke:none"
             id="path86" /><path
             d="m 1257.82,96.5586 c 0,-30.1172 0,-54.8594 1.56,-67.9883 0.96,-9.1211 2.86,-16.0312 12.24,-17.2812 4.4,-0.6094 11.28,-1.2305 14.09,-1.2305 1.89,0 2.52,-0.95704 2.52,-1.89844 0,-1.57813 -1.54,-2.51953 -4.98,-2.51953 -17.24,0 -37.03,0.9414 -38.61,0.9414 -1.56,0 -21.31,-0.9414 -30.68,-0.9414 -3.47,0 -5.08,0.64843 -5.08,2.51953 0,0.9414 0.66,1.89844 2.56,1.89844 2.8,0 6.56,0.6211 9.39,1.2305 6.23,1.25 7.83,8.1601 9.08,17.2812 1.56,13.1289 1.56,37.8711 1.56,67.9883 l 0,132.6794 -46.41,-0.668 c -19.44,-0.269 -26.96,-2.5 -31.96,-10 -3.44,-5.351 -4.42,-7.558 -5.35,-9.761 -0.93,-2.481 -1.88,-3.09 -3.11,-3.09 -0.96,0 -1.58,0.922 -1.58,2.793 0,3.187 6.28,30.117 6.91,32.617 0.59,1.883 1.86,5.98 3.13,5.98 2.18,0 5.35,-3.148 13.78,-3.769 9.12,-0.981 21,-1.559 24.78,-1.559 l 117.59,0 c 9.99,0 17.22,0.91 22.26,1.559 4.69,0.961 7.5,1.539 8.77,1.539 1.59,0 1.59,-1.867 1.59,-3.75 0,-9.391 -0.97,-31.027 -0.97,-34.488 0,-2.832 -0.93,-4.082 -2.18,-4.082 -1.55,0 -2.19,0.953 -2.52,5.351 l -0.29,3.442 c -1.23,9.41 -8.5,16.617 -38.56,17.218 l -39.53,0.668 0,-132.6794 z"
             style="fill:none;stroke:#231f20;stroke-opacity:1;stroke-width:2.5;stroke-linecap:butt;stroke-linejoin:miter;stroke-miterlimit:3.8637;stroke-dasharray:none"
             id="path88" /><path
             d="m 1393.94,40.1602 c -5.67,-15.711 -11.92,-27.6211 -26.37,-29.4805 -2.48,-0.3477 -6.9,-0.6211 -9.05,-0.6211 -1.62,0 -2.87,-0.64844 -2.87,-1.89844 0,-1.8711 1.94,-2.51953 5.98,-2.51953 14.77,0 32.02,0.9414 35.45,0.9414 3.46,0 16.91,-0.9414 24.47,-0.9414 2.8,0 4.71,0.64843 4.71,2.51953 0,1.25 -0.97,1.89844 -3.16,1.89844 l -3.17,0 c -5.29,0 -11.87,2.793 -11.87,9.082 0,5.6211 1.52,13.1602 4.39,21.0196 l 18.79,55.4609 c 0.62,1.6289 1.56,2.5391 3.17,2.5391 l 67.35,0 c 1.63,0 2.21,-0.6407 2.87,-1.8711 l 29.14,-77.1485 c 1.87,-5.0195 0,-7.8515 -1.87,-8.4609 -1.25,-0.3477 -2.18,-0.9297 -2.18,-2.19923 0,-1.89844 3.41,-1.89844 9.35,-2.19141 21.68,-0.64843 44.61,-0.64843 49.32,-0.64843 3.43,0 6.22,0.64843 6.22,2.51953 0,1.58984 -1.24,1.89844 -3.14,1.89844 -3.08,0 -7.79,0.2734 -12.55,1.8711 -6.55,1.8398 -15.67,6.8789 -26.97,34.7891 -19.11,47.6523 -68.34,177.1722 -73.03,189.0822 -3.77,9.73 -5.06,11.308 -6.89,11.308 -1.92,0 -3.15,-1.898 -6.92,-12.23 l -71.17,-194.7188 0,0 z m 43.9,69.2698 c -0.93,0 -1.58,0.648 -0.93,2.172 l 27.55,84.687 c 1.59,4.691 3.15,4.691 4.7,0 l 29.81,-84.687 c 0.31,-1.231 0.31,-2.172 -1.26,-2.172 l -59.87,0 0,0"
             style="fill:#231f20;fill-opacity:1;fill-rule:nonzero;stroke:none"
             id="path90" /><path
             d="m 1393.94,40.1602 c -5.67,-15.711 -11.92,-27.6211 -26.37,-29.4805 -2.48,-0.3477 -6.9,-0.6211 -9.05,-0.6211 -1.62,0 -2.87,-0.64844 -2.87,-1.89844 0,-1.8711 1.94,-2.51953 5.98,-2.51953 14.77,0 32.02,0.9414 35.45,0.9414 3.46,0 16.91,-0.9414 24.47,-0.9414 2.8,0 4.71,0.64843 4.71,2.51953 0,1.25 -0.97,1.89844 -3.16,1.89844 l -3.17,0 c -5.29,0 -11.87,2.793 -11.87,9.082 0,5.6211 1.52,13.1602 4.39,21.0196 l 18.79,55.4609 c 0.62,1.6289 1.56,2.5391 3.17,2.5391 l 67.35,0 c 1.63,0 2.21,-0.6407 2.87,-1.8711 l 29.14,-77.1485 c 1.87,-5.0195 0,-7.8515 -1.87,-8.4609 -1.25,-0.3477 -2.18,-0.9297 -2.18,-2.19923 0,-1.89844 3.41,-1.89844 9.35,-2.19141 21.68,-0.64843 44.61,-0.64843 49.32,-0.64843 3.43,0 6.22,0.64843 6.22,2.51953 0,1.58984 -1.24,1.89844 -3.14,1.89844 -3.08,0 -7.79,0.2734 -12.55,1.8711 -6.55,1.8398 -15.67,6.8789 -26.97,34.7891 -19.11,47.6523 -68.34,177.1722 -73.03,189.0822 -3.77,9.73 -5.06,11.308 -6.89,11.308 -1.92,0 -3.15,-1.898 -6.92,-12.23 l -71.17,-194.7188 0,0 z m 43.9,69.2698 c -0.93,0 -1.58,0.648 -0.93,2.172 l 27.55,84.687 c 1.59,4.691 3.15,4.691 4.7,0 l 29.81,-84.687 c 0.31,-1.231 0.31,-2.172 -1.26,-2.172 l -59.87,0 0,0 z"
             style="fill:none;stroke:#231f20;stroke-opacity:1;stroke-width:2.5;stroke-linecap:butt;stroke-linejoin:miter;stroke-miterlimit:3.8637;stroke-dasharray:none"
             id="path92" /><path
             d="m 1855.2,96.5586 c 0,-30.1172 0,-54.8594 1.56,-67.9883 0.92,-9.1211 2.81,-16.0312 12.23,-17.2812 4.38,-0.6094 11.29,-1.2305 14.11,-1.2305 1.89,0 2.48,-0.95704 2.48,-1.89844 0,-1.57813 -1.54,-2.51953 -5,-2.51953 -17.26,0 -37.03,0.9414 -38.57,0.9414 -1.54,0 -21.32,-0.9414 -30.69,-0.9414 -3.47,0 -5.06,0.64843 -5.06,2.51953 0,0.9414 0.63,1.89844 2.49,1.89844 2.84,0 6.61,0.6211 9.46,1.2305 6.25,1.25 7.8,8.1601 9.05,17.2812 1.59,13.1289 1.59,37.8711 1.59,67.9883 l 0,32.9294 c 0,1.274 -0.93,1.903 -1.9,1.903 l -132.95,0 c -0.94,0 -1.86,-0.301 -1.86,-1.903 l 0,-32.9294 c 0,-30.1172 0,-54.8594 1.55,-67.9883 0.94,-9.1211 2.8,-16.0312 12.23,-17.2812 4.39,-0.6094 11.29,-1.2305 14.12,-1.2305 1.89,0 2.51,-0.95704 2.51,-1.89844 0,-1.57813 -1.57,-2.51953 -5.03,-2.51953 -17.25,0 -36.98,0.9414 -38.56,0.9414 -1.57,0 -21.3,-0.9414 -30.73,-0.9414 -3.44,0 -5,0.64843 -5,2.51953 0,0.9414 0.6,1.89844 2.52,1.89844 2.79,0 6.53,0.6211 9.38,1.2305 6.26,1.25 7.85,8.1601 9.12,17.2812 1.54,13.1289 1.54,37.8711 1.54,67.9883 l 0,55.2224 c 0,48.918 0,57.707 -0.63,67.75 -0.62,10.641 -3.13,15.641 -13.47,17.828 -2.5,0.629 -7.86,0.961 -10.64,0.961 -1.27,0 -2.51,0.602 -2.51,1.871 0,1.899 1.56,2.5 5,2.5 14.12,0 33.85,-0.91 35.42,-0.91 1.58,0 21.31,0.91 30.75,0.91 3.47,0 5.01,-0.601 5.01,-2.5 0,-1.269 -1.27,-1.871 -2.48,-1.871 -2.22,0 -4.11,-0.332 -7.88,-0.961 -8.46,-1.558 -10.94,-6.871 -11.59,-17.828 -0.63,-10.043 -0.63,-18.832 -0.63,-67.75 l 0,-6.57 c 0,-1.602 0.92,-1.93 1.86,-1.93 l 132.95,0 c 0.97,0 1.9,0.328 1.9,1.93 l 0,6.57 c 0,48.918 0,57.707 -0.66,67.75 -0.59,10.641 -3.11,15.641 -13.44,17.828 -2.55,0.629 -7.86,0.961 -10.7,0.961 -1.25,0 -2.52,0.602 -2.52,1.871 0,1.899 1.62,2.5 5.08,2.5 14.08,0 33.86,-0.91 35.4,-0.91 1.54,0 21.31,0.91 30.71,0.91 3.48,0 5.05,-0.601 5.05,-2.5 0,-1.269 -1.28,-1.871 -2.54,-1.871 -2.14,0 -4.05,-0.332 -7.8,-0.961 -8.47,-1.558 -10.99,-6.871 -11.61,-17.828 -0.62,-10.043 -0.62,-18.832 -0.62,-67.75 l 0,-55.2224"
             style="fill:#231f20;fill-opacity:1;fill-rule:nonzero;stroke:none"
             id="path94" /><path
             d="m 1855.2,96.5586 c 0,-30.1172 0,-54.8594 1.56,-67.9883 0.92,-9.1211 2.81,-16.0312 12.23,-17.2812 4.38,-0.6094 11.29,-1.2305 14.11,-1.2305 1.89,0 2.48,-0.95704 2.48,-1.89844 0,-1.57813 -1.54,-2.51953 -5,-2.51953 -17.26,0 -37.03,0.9414 -38.57,0.9414 -1.54,0 -21.32,-0.9414 -30.69,-0.9414 -3.47,0 -5.06,0.64843 -5.06,2.51953 0,0.9414 0.63,1.89844 2.49,1.89844 2.84,0 6.61,0.6211 9.46,1.2305 6.25,1.25 7.8,8.1601 9.05,17.2812 1.59,13.1289 1.59,37.8711 1.59,67.9883 l 0,32.9294 c 0,1.274 -0.93,1.903 -1.9,1.903 l -132.95,0 c -0.94,0 -1.86,-0.301 -1.86,-1.903 l 0,-32.9294 c 0,-30.1172 0,-54.8594 1.55,-67.9883 0.94,-9.1211 2.8,-16.0312 12.23,-17.2812 4.39,-0.6094 11.29,-1.2305 14.12,-1.2305 1.89,0 2.51,-0.95704 2.51,-1.89844 0,-1.57813 -1.57,-2.51953 -5.03,-2.51953 -17.25,0 -36.98,0.9414 -38.56,0.9414 -1.57,0 -21.3,-0.9414 -30.73,-0.9414 -3.44,0 -5,0.64843 -5,2.51953 0,0.9414 0.6,1.89844 2.52,1.89844 2.79,0 6.53,0.6211 9.38,1.2305 6.26,1.25 7.85,8.1601 9.12,17.2812 1.54,13.1289 1.54,37.8711 1.54,67.9883 l 0,55.2224 c 0,48.918 0,57.707 -0.63,67.75 -0.62,10.641 -3.13,15.641 -13.47,17.828 -2.5,0.629 -7.86,0.961 -10.64,0.961 -1.27,0 -2.51,0.602 -2.51,1.871 0,1.899 1.56,2.5 5,2.5 14.12,0 33.85,-0.91 35.42,-0.91 1.58,0 21.31,0.91 30.75,0.91 3.47,0 5.01,-0.601 5.01,-2.5 0,-1.269 -1.27,-1.871 -2.48,-1.871 -2.22,0 -4.11,-0.332 -7.88,-0.961 -8.46,-1.558 -10.94,-6.871 -11.59,-17.828 -0.63,-10.043 -0.63,-18.832 -0.63,-67.75 l 0,-6.57 c 0,-1.602 0.92,-1.93 1.86,-1.93 l 132.95,0 c 0.97,0 1.9,0.328 1.9,1.93 l 0,6.57 c 0,48.918 0,57.707 -0.66,67.75 -0.59,10.641 -3.11,15.641 -13.44,17.828 -2.55,0.629 -7.86,0.961 -10.7,0.961 -1.25,0 -2.52,0.602 -2.52,1.871 0,1.899 1.62,2.5 5.08,2.5 14.08,0 33.86,-0.91 35.4,-0.91 1.54,0 21.31,0.91 30.71,0.91 3.48,0 5.05,-0.601 5.05,-2.5 0,-1.269 -1.28,-1.871 -2.54,-1.871 -2.14,0 -4.05,-0.332 -7.8,-0.961 -8.47,-1.558 -10.99,-6.871 -11.61,-17.828 -0.62,-10.043 -0.62,-18.832 -0.62,-67.75 l 0,-55.2224 z"
             style="fill:none;stroke:#231f20;stroke-opacity:1;stroke-width:2.5;stroke-linecap:butt;stroke-linejoin:miter;stroke-miterlimit:3.8637;stroke-dasharray:none"
             id="path96" /><path
             d="m 935.828,1604.55 0,-252.75 84.272,0 0,-420.21 168.52,-167.43 419.12,0 168.49,167.43 0,420.21 84.29,0 0,252.75 -420.24,0 0,-252.75 84.32,0 0,-334.89 -252.79,0 0,334.89 84.23,0 0,252.75 -420.212,0 0,0"
             style="fill:#c4122e;fill-opacity:1;fill-rule:nonzero;stroke:none"
             id="path98" /><path
             d="m 935.828,1604.55 0,-252.75 84.272,0 0,-420.21 168.52,-167.43 419.12,0 168.49,167.43 0,420.21 84.29,0 0,252.75 -420.24,0 0,-252.75 84.32,0 0,-334.89 -252.79,0 0,334.89 84.23,0 0,252.75 -420.212,0 0,0 z"
             style="fill:none;stroke:#c4122e;stroke-opacity:1;stroke-width:10;stroke-linecap:butt;stroke-linejoin:miter;stroke-miterlimit:4;stroke-dasharray:none"
             id="path100" /><path
             d="m 1733.21,788.504 4.12,0 c 4.69,0 8.66,1.691 8.66,6.113 0,3.117 -2.27,6.262 -8.66,6.262 -1.84,0 -3.12,-0.156 -4.12,-0.305 l 0,-12.07 z m 0,-19.754 -5.7,0 0,35.68 c 3,0.422 5.84,0.851 10.1,0.851 5.41,0 8.96,-1.14 11.08,-2.711 2.14,-1.554 3.28,-3.968 3.28,-7.386 0,-4.696 -3.11,-7.547 -6.96,-8.672 l 0,-0.293 c 3.13,-0.555 5.25,-3.406 5.97,-8.653 0.84,-5.554 1.72,-7.703 2.27,-8.816 l -5.97,0 c -0.87,1.113 -1.7,4.395 -2.42,9.09 -0.85,4.543 -3.11,6.242 -7.67,6.242 l -3.98,0 0,-15.332 z m 5.97,45.625 c -14.08,0 -25.6,-12.082 -25.6,-27.004 0,-15.223 11.52,-27.156 25.73,-27.156 14.22,-0.137 25.61,11.933 25.61,27 0,15.078 -11.39,27.16 -25.61,27.16 l -0.13,0 z m 0.13,4.969 c 17.5,0 31.44,-14.203 31.44,-31.973 0,-18.066 -13.94,-32.148 -31.57,-32.148 -17.5,0 -31.71,14.082 -31.71,32.148 0,17.77 14.21,31.973 31.71,31.973 l 0.13,0"
             style="fill:#231f20;fill-opacity:1;fill-rule:nonzero;stroke:none"
             id="path102" /></g></g></g></g></svg>